<svg width="12" height="12" viewBox="0 0 12 12" fill="none" xmlns="http://www.w3.org/2000/svg">
<path d="M6.46824 9.33339L11.8083 3.99324C11.9319 3.86973 12 3.70486 12 3.52905C12 3.35325 11.9319 3.18837 11.8083 3.06486L11.4151 2.6716C11.1589 2.4157 10.7425 2.4157 10.4867 2.6716L6.00249 7.15585L1.51326 2.66662C1.38965 2.54311 1.22487 2.47491 1.04916 2.47491C0.873261 2.47491 0.708482 2.54311 0.584775 2.66662L0.191706 3.05989C0.0680971 3.18349 0 3.34827 0 3.52408C0 3.69988 0.0680971 3.86476 0.191706 3.98827L5.53664 9.33339C5.66064 9.4572 5.8262 9.5252 6.00219 9.52481C6.17888 9.5252 6.34434 9.4572 6.46824 9.33339Z" fill="#B1B1B1"/>
</svg>
