<svg width="30" height="30" viewBox="0 0 30 30" xmlns="http://www.w3.org/2000/svg">
<path fill-rule="evenodd" clip-rule="evenodd" d="M15 28.5C22.4558 28.5 28.5 22.456 28.5 15C28.5 7.54416 22.456 1.49997 15 1.49997C7.54416 1.49997 1.49997 7.54416 1.49997 15C1.49997 22.4558 7.54416 28.5 15 28.5ZM15 30C23.2842 30 30 23.2842 30 15C30 6.71567 23.2842 0 15 0C6.71567 0 0 6.71567 0 15C0 23.2842 6.71567 30 15 30Z"/>
<path fill-rule="evenodd" clip-rule="evenodd" d="M21.0001 15C21.0001 15.4141 20.6642 15.75 20.2501 15.75H9.74998C9.33574 15.75 9 15.4141 9 15C9 14.5859 9.33574 14.25 9.74998 14.25H20.2499C20.6642 14.25 21.0001 14.5859 21.0001 15Z"/>
<path fill-rule="evenodd" clip-rule="evenodd" d="M15 21C14.5859 21 14.25 20.6641 14.25 20.2501V9.74997C14.25 9.33572 14.5859 8.99998 15 8.99998C15.4141 8.99998 15.75 9.33572 15.75 9.74997V20.2499C15.75 20.6641 15.4141 21 15 21Z"/>
</svg>
