<svg width="5" height="7" viewBox="0 0 5 7" fill="none" xmlns="http://www.w3.org/2000/svg">
<path d="M4.44463 3.22686L1.32954 0.111828C1.25749 0.0397233 1.16131 0 1.05876 0C0.956209 0 0.860031 0.0397233 0.787983 0.111828L0.558578 0.341176C0.409303 0.490622 0.409303 0.733514 0.558578 0.882733L3.17439 3.49855L0.555676 6.11727C0.483628 6.18937 0.443848 6.28549 0.443848 6.38799C0.443848 6.4906 0.483628 6.58672 0.555676 6.65888L0.785081 6.88817C0.857186 6.96028 0.953307 7 1.05586 7C1.15841 7 1.25459 6.96028 1.32664 6.88817L4.44463 3.77029C4.51685 3.69796 4.55651 3.60139 4.55629 3.49872C4.55651 3.39566 4.51685 3.29914 4.44463 3.22686Z" fill="#4C858B"/>
</svg>
