<svg width="68" height="68" viewBox="0 0 68 68" fill="none" xmlns="http://www.w3.org/2000/svg">
<g clip-path="url(#clip0_51_195)">
<path d="M47.1646 51.775C46.9518 51.8195 46.7418 51.8731 46.5352 51.9359C45.253 50.2333 43.4235 49.0782 41.399 48.6297L42.7721 45.974L45.5652 43.1829C47.7019 41.045 47.7019 37.5664 45.5652 35.4285L42.5811 32.4428L57.7611 17.2543C57.7742 17.2422 57.7878 17.2314 57.8006 17.2187C57.8135 17.2059 57.8246 17.1918 57.837 17.1785L63.7376 11.2746C63.7377 11.2745 63.7378 11.2743 63.738 11.2743C63.7381 11.2742 63.7381 11.2741 63.7382 11.2739L66.5063 8.50425C68.4488 6.56598 68.4499 3.40491 66.5076 1.45655C65.5688 0.517172 64.3177 0 62.984 0C62.9829 0 62.9816 0 62.9805 0C61.6475 0.000929688 60.3979 0.518633 59.463 1.45655L56.6943 4.22676C56.6943 4.22676 56.6943 4.22676 56.6941 4.22676L56.694 4.22689L50.7921 10.132C50.7792 10.144 50.7655 10.1548 50.7529 10.1673C50.74 10.1802 50.729 10.194 50.7168 10.2073L47.3699 13.556C46.8514 14.0749 46.8515 14.9158 47.3703 15.4344C47.8891 15.9528 48.73 15.9526 49.2485 15.4339L51.6936 12.9875L54.9819 16.2775L40.7032 30.564L37.4149 27.274L40.8205 23.8665C41.339 23.3476 41.3387 22.5068 40.82 21.9882C40.3009 21.4697 39.4601 21.4698 38.9416 21.9887L35.5371 25.3951L32.554 22.4104C31.5224 21.3783 30.1458 20.8099 28.6779 20.8099C27.2099 20.8099 25.8334 21.3783 24.8012 22.411L22.0121 25.2053L16.6339 27.9924C16.6282 27.9953 16.6225 27.9982 16.6169 28.0011L11.4365 30.6857C11.4137 30.6967 11.3913 30.7082 11.3689 30.7206L3.01039 35.0523C1.21582 35.9813 0.243237 37.0793 0.0367134 38.4091C-0.163037 39.6959 0.421737 41.0348 1.77456 42.3883L5.45307 46.07C5.46675 46.0849 5.48136 46.0984 5.49557 46.1126L13.6833 54.3074L21.8493 62.4753C21.8696 62.4969 21.8906 62.518 21.9125 62.5385L25.5955 66.2224C26.7764 67.4038 27.9458 67.9999 29.0794 67.9999C29.2448 67.9999 29.4095 67.9871 29.5733 67.9618C30.9031 67.7554 32.001 66.7821 32.9295 64.9865L33.5327 63.8204C33.868 64.1236 34.2281 64.4041 34.6127 64.6575C36.0738 65.6203 37.7468 66.1184 39.4555 66.1184C40.0544 66.1184 40.6582 66.0571 41.2583 65.9332C42.3918 65.7 43.4635 65.2493 44.4104 64.6129C46.0268 65.7836 48.0642 66.2343 50.0592 65.8239C51.9352 65.4372 53.5481 64.3431 54.6007 62.7429C55.653 61.1433 56.0198 59.2296 55.6334 57.3547C54.8375 53.4845 51.0408 50.9809 47.1646 51.775ZM62.9823 2.65625H62.9839C63.6077 2.65625 64.1919 2.89704 64.6277 3.33306C65.5352 4.24349 65.5364 5.71984 64.6289 6.62535L62.799 8.45617L59.5107 5.16614L61.3428 3.33293C61.7775 2.89704 62.3596 2.65665 62.9823 2.65625ZM53.5716 11.1086L57.633 7.04491L60.9213 10.3349L56.8597 14.3986L53.5716 11.1086ZM33.1238 51.121L14.2386 32.2256L16.9897 30.8L35.5317 49.3521C34.6223 49.8056 33.8115 50.4075 33.1238 51.121ZM22.5544 27.916L40.0615 45.4328L38.4866 48.4792C38.4651 48.4816 38.4436 48.484 38.4221 48.4865L19.4637 29.5177L22.5544 27.916ZM26.6808 24.2882C27.2105 23.7582 27.9199 23.4662 28.6781 23.4662C29.4362 23.4662 30.1456 23.7582 30.6755 24.2882L43.6865 37.3062C44.7884 38.4087 44.7884 40.2027 43.6871 41.3046L41.6879 43.3023L24.6838 26.2889L26.6808 24.2882ZM30.5704 63.7663C30.0871 64.7011 29.5753 65.2736 29.1663 65.337C28.7808 65.3974 28.1645 65.0351 27.4744 64.3446L24.445 61.3144L27.3458 55.715C27.6832 55.0637 27.4288 54.2621 26.7774 53.9248C26.126 53.5875 25.3246 53.8418 24.9873 54.4931L22.4746 59.3434L16.5033 53.3707L20.7073 49.1522C21.225 48.6326 21.2235 47.7916 20.7039 47.2739C20.1844 46.7562 19.3434 46.7576 18.8257 47.2773L14.6256 51.4919L8.6512 45.5123L13.5 42.9975C14.1512 42.6599 14.4053 41.8583 14.0676 41.2071C13.7299 40.556 12.928 40.3017 12.2771 40.6396L6.68199 43.5414L3.65399 40.5107C2.96364 39.8201 2.60212 39.2025 2.66202 38.8166C2.72564 38.4071 3.29779 37.8949 4.23253 37.411L11.7647 33.5077L31.5693 53.3232C30.7131 55.036 30.4004 57.0362 30.8147 59.0543C30.9964 59.9347 31.3049 60.7677 31.7252 61.5342L30.5704 63.7663ZM52.3822 61.2831C51.7196 62.2904 50.7044 62.9792 49.5241 63.2223C48.0204 63.5322 46.4775 63.0639 45.3972 61.9708C44.9008 61.4685 44.0979 61.4425 43.57 61.9121C42.7721 62.6218 41.7877 63.1128 40.7224 63.3319C39.1052 63.6659 37.4546 63.349 36.0746 62.4398C34.6943 61.5303 33.7501 60.1374 33.4161 58.5191C32.7293 55.1732 34.8886 51.8928 38.2295 51.2063C38.2296 51.2063 38.2297 51.2063 38.23 51.2061C38.6505 51.1195 39.0712 51.0776 39.4876 51.0776C41.6837 51.0776 43.7454 52.2475 44.8621 54.2191C45.2097 54.8327 45.9763 55.0676 46.6079 54.7543C46.9529 54.5833 47.323 54.4556 47.703 54.3762C50.14 53.8774 52.5307 55.4535 53.0324 57.891C53.2757 59.0713 53.0448 60.2762 52.3822 61.2831Z" fill="#EA6628"/>
<path d="M63.3834 56.0383C60.8356 56.0383 58.7629 58.1102 58.7629 60.6567C58.7629 63.2054 60.8356 65.2789 63.3834 65.2789C65.929 65.2789 67.9999 63.2054 67.9999 60.6567C67.9999 58.1102 65.929 56.0383 63.3834 56.0383ZM63.3834 62.6226C62.3003 62.6226 61.4192 61.7408 61.4192 60.6567C61.4192 59.5749 62.3003 58.6946 63.3834 58.6946C64.4643 58.6946 65.3437 59.5747 65.3437 60.6567C65.3437 61.7408 64.4642 62.6226 63.3834 62.6226Z" fill="#EA6628"/>
<path d="M63.0558 41.9127C63.0558 38.7164 60.4565 36.116 57.2614 36.116C54.0685 36.116 51.4709 38.7164 51.4709 41.9127C51.4709 45.109 54.0686 47.7094 57.2614 47.7094C60.4565 47.7094 63.0558 45.109 63.0558 41.9127ZM57.2614 45.0532C55.5332 45.0532 54.1272 43.6445 54.1272 41.9127C54.1272 40.181 55.5332 38.7722 57.2614 38.7722C58.9917 38.7722 60.3995 40.181 60.3995 41.9127C60.3995 43.6445 58.9919 45.0532 57.2614 45.0532Z" fill="#EA6628"/>
<path d="M44.0936 20.0403C44.4345 20.0403 44.7757 19.9102 45.0355 19.6504C45.5541 19.1318 45.5541 18.2908 45.0355 17.772C44.5169 17.2534 43.6759 17.2534 43.1571 17.772L43.1534 17.7757C42.6348 18.2944 42.6367 19.1335 43.1553 19.6521C43.4143 19.9111 43.7537 20.0403 44.0936 20.0403Z" fill="#EA6628"/>
</g>
<defs>
<clipPath id="clip0_51_195">
<rect width="68" height="68" fill="white"/>
</clipPath>
</defs>
</svg>
