<svg width="22" height="22" viewBox="0 0 22 22" fill="none" xmlns="http://www.w3.org/2000/svg">
<g clip-path="url(#clip0_52_23)">
<path d="M21.0833 0.916626H0.916683C0.410405 0.916626 0 1.32703 0 1.83326C0 2.33948 0.410405 2.74994 0.916683 2.74994H21.0833C21.5896 2.74994 22 2.33954 22 1.83326C22 1.32698 21.5896 0.916626 21.0833 0.916626Z" fill="#4C858B"/>
<path d="M21.0833 10.0833H0.916683C0.410405 10.0833 0 10.4937 0 10.9999C0 11.5062 0.410405 11.9166 0.916683 11.9166H21.0833C21.5896 11.9166 22 11.5062 22 10.9999C22 10.4937 21.5896 10.0833 21.0833 10.0833Z" fill="#4C858B"/>
<path d="M21.0833 19.25H0.916683C0.410405 19.25 0 19.6604 0 20.1667C0 20.673 0.410405 21.0834 0.916683 21.0834H21.0833C21.5896 21.0834 22 20.673 22 20.1667C22 19.6604 21.5896 19.25 21.0833 19.25Z" fill="#4C858B"/>
</g>
<defs>
<clipPath id="clip0_52_23">
<rect width="22" height="22" fill="white"/>
</clipPath>
</defs>
</svg>
