<svg width="36" height="77" viewBox="0 0 36 77" fill="none" xmlns="http://www.w3.org/2000/svg">
<path d="M2.44057 57.3539C3.78847 57.3539 4.88117 56.2612 4.88117 54.9133C4.88117 53.5654 3.78847 52.4727 2.44057 52.4727C1.09267 52.4727 0 53.5654 0 54.9133C0 56.2612 1.09267 57.3539 2.44057 57.3539Z" fill="black"/>
<path d="M17.9289 57.3539C19.2768 57.3539 20.3695 56.2612 20.3695 54.9133C20.3695 53.5654 19.2768 52.4727 17.9289 52.4727C16.5809 52.4727 15.4883 53.5654 15.4883 54.9133C15.4883 56.2612 16.5809 57.3539 17.9289 57.3539Z" fill="black"/>
<path d="M33.4171 57.3539C34.765 57.3539 35.8577 56.2612 35.8577 54.9133C35.8577 53.5654 34.765 52.4727 33.4171 52.4727C32.0692 52.4727 30.9766 53.5654 30.9766 54.9133C30.9766 56.2612 32.0692 57.3539 33.4171 57.3539Z" fill="black"/>
<path d="M2.44057 39.0964C3.78847 39.0964 4.88117 38.0037 4.88117 36.6558C4.88117 35.3079 3.78847 34.2152 2.44057 34.2152C1.09267 34.2152 0 35.3079 0 36.6558C0 38.0037 1.09267 39.0964 2.44057 39.0964Z" fill="black"/>
<path d="M17.9289 39.0964C19.2768 39.0964 20.3695 38.0037 20.3695 36.6558C20.3695 35.3079 19.2768 34.2152 17.9289 34.2152C16.5809 34.2152 15.4883 35.3079 15.4883 36.6558C15.4883 38.0037 16.5809 39.0964 17.9289 39.0964Z" fill="black"/>
<path d="M33.4171 39.0964C34.765 39.0964 35.8577 38.0037 35.8577 36.6558C35.8577 35.3079 34.765 34.2152 33.4171 34.2152C32.0692 34.2152 30.9766 35.3079 30.9766 36.6558C30.9766 38.0037 32.0692 39.0964 33.4171 39.0964Z" fill="black"/>
<path d="M2.44057 23.1387C3.78847 23.1387 4.88117 22.046 4.88117 20.6981C4.88117 19.3502 3.78847 18.2575 2.44057 18.2575C1.09267 18.2575 0 19.3502 0 20.6981C0 22.046 1.09267 23.1387 2.44057 23.1387Z" fill="black"/>
<path d="M17.9289 23.1387C19.2768 23.1387 20.3695 22.046 20.3695 20.6981C20.3695 19.3502 19.2768 18.2575 17.9289 18.2575C16.5809 18.2575 15.4883 19.3502 15.4883 20.6981C15.4883 22.046 16.5809 23.1387 17.9289 23.1387Z" fill="black"/>
<path d="M33.4171 23.1387C34.765 23.1387 35.8577 22.046 35.8577 20.6981C35.8577 19.3502 34.765 18.2575 33.4171 18.2575C32.0692 18.2575 30.9766 19.3502 30.9766 20.6981C30.9766 22.046 32.0692 23.1387 33.4171 23.1387Z" fill="black"/>
<path d="M2.44057 76.093C3.78847 76.093 4.88117 75.0003 4.88117 73.6524C4.88117 72.3045 3.78847 71.2118 2.44057 71.2118C1.09267 71.2118 0 72.3045 0 73.6524C0 75.0003 1.09267 76.093 2.44057 76.093Z" fill="black"/>
<path d="M17.9289 76.093C19.2768 76.093 20.3695 75.0003 20.3695 73.6524C20.3695 72.3045 19.2768 71.2118 17.9289 71.2118C16.5809 71.2118 15.4883 72.3045 15.4883 73.6524C15.4883 75.0003 16.5809 76.093 17.9289 76.093Z" fill="black"/>
<path d="M33.4171 76.093C34.765 76.093 35.8577 75.0003 35.8577 73.6524C35.8577 72.3045 34.765 71.2118 33.4171 71.2118C32.0692 71.2118 30.9766 72.3045 30.9766 73.6524C30.9766 75.0003 32.0692 76.093 33.4171 76.093Z" fill="black"/>
<path d="M2.44057 4.88119C3.78847 4.88119 4.88117 3.7885 4.88117 2.44059C4.88117 1.09269 3.78847 0 2.44057 0C1.09267 0 0 1.09269 0 2.44059C0 3.7885 1.09267 4.88119 2.44057 4.88119Z" fill="black"/>
<path d="M17.9289 4.88119C19.2768 4.88119 20.3695 3.7885 20.3695 2.44059C20.3695 1.09269 19.2768 0 17.9289 0C16.5809 0 15.4883 1.09269 15.4883 2.44059C15.4883 3.7885 16.5809 4.88119 17.9289 4.88119Z" fill="black"/>
<path d="M33.4171 4.88119C34.765 4.88119 35.8577 3.7885 35.8577 2.44059C35.8577 1.09269 34.765 0 33.4171 0C32.0692 0 30.9766 1.09269 30.9766 2.44059C30.9766 3.7885 32.0692 4.88119 33.4171 4.88119Z" fill="black"/>
</svg>
