<svg width="70" height="70" viewBox="0 0 70 70" fill="none" xmlns="http://www.w3.org/2000/svg">
<path d="M19.6875 27.3438H17.5V29.5312H19.6875V27.3438Z" fill="#EA6628"/>
<path d="M30.625 27.3438H28.4375V29.5312H30.625V27.3438Z" fill="#EA6628"/>
<path d="M66.8741 39.3858L62.6008 38.7755C62.3976 38.1779 62.1576 37.5935 61.8822 37.0255L64.4679 33.578C64.6258 33.3674 64.7024 33.1068 64.6838 32.8442C64.6651 32.5817 64.5523 32.3346 64.3662 32.1485L59.7254 27.5077C59.5471 27.3307 59.3127 27.2212 59.0626 27.1982V16.6697C60.0859 15.8504 60.9121 14.8116 61.48 13.6301C62.048 12.4486 62.3432 11.1545 62.3438 9.84362C62.3538 8.18602 61.8879 6.56037 61.0012 5.15977C60.1146 3.75918 58.8446 2.6425 57.3421 1.94237C57.1754 1.86366 56.9915 1.82836 56.8076 1.83973C56.6236 1.85111 56.4455 1.9088 56.2897 2.00744C56.134 2.10609 56.0058 2.24249 55.9169 2.40397C55.828 2.56546 55.7814 2.74679 55.7813 2.93112V9.05612L53.5938 9.78565L51.4063 9.05612V2.93112C51.4055 2.74716 51.3584 2.56637 51.2692 2.40547C51.18 2.24458 51.0516 2.10878 50.896 2.01064C50.7404 1.91251 50.5626 1.8552 50.379 1.84403C50.1954 1.83287 50.0119 1.86819 49.8455 1.94675C48.3437 2.64656 47.0741 3.76256 46.1876 5.1623C45.301 6.56205 44.8346 8.18676 44.8438 9.84362C44.8445 11.1545 45.1397 12.4486 45.7076 13.6301C46.2756 14.8116 47.1017 15.8504 48.1251 16.6697V24.0624H44.8438C44.5806 24.0623 44.3262 24.1572 44.1273 24.3296C43.9284 24.502 43.7984 24.7403 43.761 25.0008L43.0533 29.9544L45.219 30.2639L45.7921 26.2499H50.458L51.0312 30.2639C51.061 30.4719 51.1501 30.6669 51.2878 30.8255C51.4255 30.9842 51.606 31.0998 51.8077 31.1586C52.7193 31.422 53.5995 31.784 54.4327 32.2381C54.617 32.3392 54.8266 32.385 55.0363 32.3701C55.246 32.3552 55.4469 32.2801 55.6151 32.1539L58.8537 29.7258L62.1524 33.0246L59.7188 36.2631C59.5926 36.4313 59.5176 36.6322 59.5027 36.8419C59.4877 37.0516 59.5335 37.2612 59.6346 37.4455C60.0887 38.2787 60.4507 39.1589 60.7141 40.0705C60.7729 40.2722 60.8886 40.4527 61.0472 40.5904C61.2059 40.7281 61.4009 40.8172 61.6088 40.8471L65.6229 41.4202V46.0861L61.6088 46.6592C61.4009 46.6891 61.2059 46.7782 61.0472 46.9159C60.8886 47.0536 60.7729 47.2341 60.7141 47.4358C60.4507 48.3474 60.0887 49.2276 59.6346 50.0608C59.5335 50.2451 59.4877 50.4547 59.5027 50.6644C59.5176 50.8741 59.5926 51.075 59.7188 51.2431L62.1469 54.4817L58.8482 57.7805L55.6118 55.3436C55.4436 55.2174 55.2427 55.1424 55.033 55.1275C54.8233 55.1125 54.6138 55.1583 54.4294 55.2594C53.5963 55.7135 52.7161 56.0755 51.8044 56.3389C51.6027 56.3977 51.4222 56.5134 51.2845 56.672C51.1468 56.8307 51.0577 57.0257 51.0279 57.2336L50.458 61.2499H45.9376V56.6244C45.9368 55.4689 45.771 54.3195 45.4454 53.2108C47.5287 53.8207 49.7542 53.7336 51.7834 52.9627C53.8127 52.1918 55.5347 50.7793 56.6875 48.94C57.8404 47.1007 58.3611 44.9353 58.1704 42.7729C57.9798 40.6105 57.0882 38.5696 55.6312 36.9604C54.1743 35.3513 52.2317 34.2619 50.0988 33.858C47.966 33.4541 45.7596 33.7578 43.8152 34.7228C41.8708 35.6879 40.2947 37.2615 39.3266 39.2044C38.3585 41.1474 38.0514 43.3533 38.4519 45.4867C38.4257 45.4758 38.4005 45.4627 38.3743 45.4528L29.5313 41.9156V40.2346C30.9929 39.4868 32.2874 38.4502 33.3365 37.1874H36.0938C36.9641 37.1874 37.7987 36.8417 38.414 36.2263C39.0294 35.611 39.3751 34.7764 39.3751 33.9061V31.5174C40.0126 31.292 40.565 30.8751 40.9565 30.3238C41.3481 29.7724 41.5598 29.1136 41.5626 28.4374V25.1561C41.5598 24.4799 41.3481 23.8211 40.9565 23.2697C40.565 22.7184 40.0126 22.3015 39.3751 22.0761V20.7811C39.3751 16.72 37.7618 12.8252 34.8901 9.95355C32.0185 7.0819 28.1237 5.46862 24.0626 5.46862C20.0014 5.46862 16.1066 7.0819 13.235 9.95355C10.3633 12.8252 8.75006 16.72 8.75006 20.7811V22.0761C8.11251 22.3015 7.56016 22.7184 7.1686 23.2697C6.77703 23.8211 6.56537 24.4799 6.56256 25.1561V28.4374C6.56256 29.3076 6.90826 30.1422 7.52362 30.7576C8.13897 31.3729 8.97357 31.7186 9.84381 31.7186H12.0313C12.1013 31.7186 12.1691 31.7077 12.238 31.7033C12.5743 33.5167 13.3222 35.2289 14.4241 36.7079C15.5259 38.1869 16.9524 39.3934 18.5938 40.2346V41.9156L9.75084 45.4528C7.51366 46.3394 5.59548 47.8795 4.24638 49.8722C2.89727 51.865 2.17982 54.2179 2.18756 56.6244V66.7186C2.18756 67.0087 2.3028 67.2869 2.50791 67.492C2.71303 67.6971 2.99123 67.8124 3.28131 67.8124H44.8438C45.1339 67.8124 45.4121 67.6971 45.6172 67.492C45.8223 67.2869 45.9376 67.0087 45.9376 66.7186V63.4374H51.4063C51.6695 63.4374 51.9239 63.3425 52.1228 63.1701C52.3217 62.9978 52.4518 62.7595 52.4891 62.4989L53.0994 58.2256C53.697 58.0224 54.2815 57.7824 54.8494 57.507L58.2969 60.0927C58.5076 60.2506 58.7681 60.3273 59.0307 60.3086C59.2933 60.2899 59.5403 60.1771 59.7265 59.991L64.3672 55.3502C64.5534 55.164 64.6662 54.917 64.6849 54.6544C64.7035 54.3918 64.6269 54.1313 64.469 53.9206L61.8833 50.4731C62.1587 49.9052 62.3987 49.3207 62.6019 48.7231L66.8752 48.1128C67.1354 48.0752 67.3733 47.9452 67.5454 47.7466C67.7175 47.5479 67.8124 47.294 67.8126 47.0311V40.4686C67.8126 40.2054 67.7177 39.951 67.5453 39.7521C67.373 39.5532 67.1347 39.4232 66.8741 39.3858ZM54.8429 29.9927C54.7915 29.9675 54.7335 29.9511 54.6821 29.9271V16.4061H52.5001V25.0796L52.4891 25.0008C52.4518 24.7403 52.3217 24.502 52.1228 24.3296C51.9239 24.1572 51.6695 24.0623 51.4063 24.0624H50.3126V16.1217C50.3126 15.9453 50.2699 15.7715 50.1882 15.6152C50.1065 15.4588 49.9882 15.3245 49.8433 15.2238C49.0303 14.6577 48.3559 13.9149 47.8709 13.0511C47.3858 12.1873 47.1026 11.2249 47.0425 10.236C46.9824 9.24714 47.147 8.2575 47.5239 7.34131C47.9008 6.42511 48.4803 5.60614 49.2188 4.94581V9.84362C49.2188 10.0733 49.291 10.2971 49.4253 10.4834C49.5595 10.6697 49.7491 10.809 49.9669 10.8816L53.2482 11.9753C53.4725 12.0501 53.7151 12.0501 53.9394 11.9753L57.2207 10.8816C57.4386 10.809 57.6281 10.6697 57.7624 10.4834C57.8966 10.2971 57.9689 10.0733 57.9688 9.84362V4.94581C58.708 5.60612 59.2879 6.42529 59.6652 7.34181C60.0425 8.25834 60.2073 9.24841 60.1472 10.2377C60.0871 11.227 59.8037 12.1899 59.3182 13.054C58.8328 13.9181 58.1579 14.6611 57.3443 15.2271C57.1999 15.3275 57.0819 15.4612 57.0002 15.617C56.9185 15.7727 56.8756 15.9459 56.8751 16.1217V28.4735L54.8429 29.9927ZM40.4688 43.7499C40.4568 42.0397 41.0136 40.374 42.0518 39.0149C43.0899 37.6558 44.5504 36.6804 46.2036 36.2421C47.8567 35.8039 49.6086 35.9276 51.1837 36.5939C52.7588 37.2602 54.0677 38.4312 54.9045 39.9228C55.7413 41.4143 56.0584 43.1417 55.8061 44.8333C55.5538 46.5248 54.7463 48.0844 53.5106 49.2668C52.2749 50.4492 50.6813 51.1872 48.9803 51.3648C47.2793 51.5424 45.5675 51.1495 44.1143 50.2478C43.3582 49.0366 42.3909 47.9708 41.2585 47.1011C40.7382 46.0607 40.4678 44.9132 40.4688 43.7499ZM36.0938 34.9999H34.766C35.299 33.9618 35.6767 32.8511 35.8871 31.7033C35.956 31.7033 36.0238 31.7186 36.0938 31.7186H37.1876V33.9061C37.1876 34.1962 37.0723 34.4744 36.8672 34.6795C36.6621 34.8846 36.3839 34.9999 36.0938 34.9999ZM33.9063 22.9686C33.3971 22.9674 32.8952 22.8482 32.4398 22.6205C31.9843 22.3928 31.5878 22.0627 31.2813 21.6561L29.3126 19.0311C29.2247 18.9139 29.1141 18.8156 28.9875 18.7419C28.8608 18.6683 28.7207 18.6208 28.5754 18.6024C28.43 18.5845 28.2825 18.5957 28.1415 18.6353C28.0005 18.675 27.8688 18.7422 27.754 18.8332L24.0833 21.7655C23.1148 22.5405 21.9124 22.9646 20.6719 22.9686H14.2188V21.8749C14.2188 19.2641 15.2559 16.7603 17.102 14.9143C18.948 13.0682 21.4518 12.0311 24.0626 12.0311C26.6733 12.0311 29.1771 13.0682 31.0231 14.9143C32.8692 16.7603 33.9063 19.2641 33.9063 21.8749V22.9686ZM39.3751 28.4374C39.3751 28.7274 39.2598 29.0056 39.0547 29.2108C38.8496 29.4159 38.5714 29.5311 38.2813 29.5311H36.0938V24.0624H38.2813C38.5714 24.0624 38.8496 24.1776 39.0547 24.3827C39.2598 24.5878 39.3751 24.866 39.3751 25.1561V28.4374ZM24.0626 7.65612C27.5424 7.65988 30.8786 9.0439 33.3392 11.5045C35.7998 13.9651 37.1838 17.3013 37.1876 20.7811V21.8749H36.0938C36.0938 18.684 34.8262 15.6238 32.5699 13.3675C30.3136 11.1112 27.2534 9.84362 24.0626 9.84362C20.8717 9.84362 17.8115 11.1112 15.5552 13.3675C13.2989 15.6238 12.0313 18.684 12.0313 21.8749H10.9376V20.7811C10.9413 17.3013 12.3253 13.9651 14.7859 11.5045C17.2465 9.0439 20.5828 7.65988 24.0626 7.65612ZM9.84381 29.5311C9.55373 29.5311 9.27553 29.4159 9.07041 29.2108C8.8653 29.0056 8.75006 28.7274 8.75006 28.4374V25.1561C8.75006 24.866 8.8653 24.5878 9.07041 24.3827C9.27553 24.1776 9.55373 24.0624 9.84381 24.0624H12.0313V29.5311H9.84381ZM14.2188 29.5311V25.1561H20.6719C22.4098 25.1538 24.0955 24.5623 25.4538 23.4783L28.244 21.246L29.5313 22.9686C30.0422 23.6463 30.703 24.1964 31.462 24.5759C32.2211 24.9554 33.0577 25.154 33.9063 25.1561V29.5311C33.9081 31.4791 33.3285 33.3833 32.2416 34.9999H24.0626V37.1874H30.2357C28.7913 38.3553 27.0456 39.0902 25.2008 39.307C23.356 39.5239 21.4875 39.2138 19.8116 38.4127C18.1357 37.6116 16.721 36.3523 15.7312 34.7805C14.7414 33.2086 14.2171 31.3886 14.2188 29.5311ZM24.0626 41.5624C25.1726 41.5596 26.2769 41.4028 27.3438 41.0964V42.6561C27.3438 43.5264 26.9981 44.361 26.3828 44.9763C25.7674 45.5917 24.9328 45.9374 24.0626 45.9374C23.1923 45.9374 22.3577 45.5917 21.7424 44.9763C21.127 44.361 20.7813 43.5264 20.7813 42.6561V41.0964C21.8482 41.4028 22.9525 41.5596 24.0626 41.5624ZM43.7501 65.6249H37.1876V53.5936H35.0001V65.6249H13.1251V53.5936H10.9376V65.6249H4.37506V56.6244C4.36869 54.6554 4.95572 52.7302 6.05959 51.0998C7.16347 49.4693 8.73298 48.2093 10.5635 47.4839L18.8355 44.1753C19.1585 45.3126 19.8437 46.3136 20.787 47.0263C21.7303 47.739 22.8803 48.1246 24.0626 48.1246C25.2448 48.1246 26.3949 47.739 27.3382 47.0263C28.2815 46.3136 28.9666 45.3126 29.2896 44.1753L37.5616 47.4839C39.3921 48.2093 40.9617 49.4693 42.0655 51.0998C43.1694 52.7302 43.7564 54.6554 43.7501 56.6244V65.6249Z" fill="#EA6628"/>
<path d="M49.2188 28.4375H47.0312V30.625H49.2188V28.4375Z" fill="#EA6628"/>
<path d="M49.2188 56.875H47.0312V59.0625H49.2188V56.875Z" fill="#EA6628"/>
<path d="M58.1783 52.2577L56.6315 53.8044L58.1783 55.3512L59.7251 53.8044L58.1783 52.2577Z" fill="#EA6628"/>
<path d="M63.4375 42.6562H61.25V44.8438H63.4375V42.6562Z" fill="#EA6628"/>
<path d="M58.1788 32.1495L56.632 33.6963L58.1788 35.2431L59.7255 33.6963L58.1788 32.1495Z" fill="#EA6628"/>
</svg>
