<svg width="70" height="70" viewBox="0 0 70 70" fill="none" xmlns="http://www.w3.org/2000/svg">
<g clip-path="url(#clip0_51_158)">
<path d="M69.8715 16.5991C69.6306 15.7031 69.0428 14.9394 68.2385 14.4763C67.4337 14.011 66.4769 13.8851 65.5792 14.126C64.6827 14.3675 63.919 14.9547 63.4559 15.759L62.8727 16.7739C62.3185 16.4555 61.6105 16.6429 61.2864 17.1943L58.3236 22.2446L57.3086 21.6614C57.0398 21.5059 56.7197 21.4637 56.4201 21.5446C56.1199 21.626 55.8648 21.8231 55.7104 22.0931C55.3943 22.6507 55.5868 23.3592 56.1421 23.6793L57.1571 24.2626L47.2421 41.4446L44.7924 47.9889L43.626 50.1698C42.943 51.3579 43.016 52.8348 43.8128 53.9494L41.1882 57.1686L40.4535 55.326C40.122 54.5047 39.3548 53.942 38.4725 53.8731C37.5897 53.8036 36.7439 54.2399 36.2888 54.9991L35.8691 55.7105L35.4726 51.0446C35.3815 49.9408 34.5266 49.0534 33.4273 48.9201C32.3275 48.7874 31.2863 49.4464 30.9349 50.4967L28.0655 59.1051C27.865 59.714 28.193 60.3701 28.8002 60.5751C28.9141 60.6281 29.0366 60.66 29.1619 60.668C29.6631 60.6697 30.1096 60.3502 30.2702 59.8751L33.1277 51.2668L33.5361 56.0021C33.6204 57.0125 34.3466 57.8526 35.3342 58.0816C36.3219 58.3106 37.3437 57.8754 37.8637 57.0057L38.2954 56.2937L39.0187 58.1254C39.3257 58.8972 40.02 59.448 40.8419 59.5704C41.6638 59.6929 42.4885 59.3688 43.008 58.7201L45.7259 55.2793C46.0267 55.3579 46.3365 55.3972 46.6475 55.3961C47.8977 55.4058 49.0585 54.7474 49.6918 53.6692L50.8583 51.7213L55.3026 46.3207L65.3224 28.9284L66.3373 29.5117C66.6079 29.6666 66.8049 29.9223 66.8853 30.2236C66.9661 30.5226 66.924 30.8416 66.7691 31.1099L62.1032 39.1937C61.9272 39.4591 61.8674 39.7849 61.938 40.0959C62.0086 40.4063 62.2029 40.6746 62.4763 40.838C62.7451 40.9941 63.0652 41.0362 63.3648 40.9554C63.6649 40.8739 63.9201 40.6768 64.0745 40.4069L68.7403 32.323C69.2057 31.5182 69.3315 30.5614 69.09 29.6637C68.8485 28.7672 68.2613 28.0035 67.4571 27.5404L66.4421 26.9572L69.3583 21.9063C69.6767 21.3521 69.4893 20.6447 68.9385 20.32L69.5218 19.3051C69.9996 18.4877 70.1261 17.5115 69.8715 16.5991ZM65.4739 16.9254C65.6282 16.6555 65.8845 16.4578 66.1858 16.3775C66.4854 16.3035 66.8021 16.345 67.0721 16.4943C67.3426 16.6486 67.5397 16.9049 67.6206 17.2057C67.6946 17.5052 67.653 17.8219 67.5038 18.0919L66.9206 19.1069L64.8906 17.9404L65.4739 16.9254ZM49.5751 49.4937L48.9918 49.1554L47.2655 48.1518L48.9218 43.7195L52.596 45.8422L49.5751 49.4937ZM46.0756 52.8644C45.583 52.5209 45.4315 51.8602 45.7259 51.3362L46.3092 50.3218L48.3385 51.4883L47.7553 52.4913C47.5918 52.775 47.3173 52.9766 46.9978 53.0478C46.6782 53.1184 46.3439 53.0523 46.0756 52.8644ZM53.926 43.9296L49.89 41.5967L59.2218 25.429L63.2577 27.762L53.926 43.9296ZM64.4242 25.744L60.3882 23.4111L62.7212 19.3751L66.7571 21.7081L64.4242 25.744Z" fill="#EA6628"/>
<path d="M18.4066 52.2812L14.2778 56.3991L11.8048 53.9261C11.3497 53.4739 10.6149 53.4739 10.1599 53.9261C9.93886 54.1454 9.8147 54.4433 9.8147 54.7542C9.8147 55.0652 9.93886 55.3637 10.1599 55.5824L12.6329 58.0554C13.0703 58.4894 13.6615 58.7326 14.2778 58.7321C14.8975 58.7355 15.4938 58.4923 15.9341 58.0554L20.0515 53.9261C20.4479 53.463 20.4211 52.7733 19.9905 52.3427C19.5594 51.9116 18.8696 51.8848 18.4066 52.2812Z" fill="#EA6628"/>
<path d="M4.66577 55.4188C4.66577 60.8952 9.10496 65.3338 14.5808 65.3338C20.0565 65.3338 24.4957 60.8952 24.4957 55.4188C24.4957 54.7746 23.9734 54.2523 23.3293 54.2523C22.6851 54.2523 22.1628 54.7746 22.1628 55.4188C22.1628 59.6062 18.7682 63.0008 14.5808 63.0008C10.3933 63.0008 6.99871 59.6062 6.99871 55.4188C6.99871 51.2314 10.3933 47.8368 14.5808 47.8368C16.2222 47.8322 17.8199 48.3648 19.1299 49.3535C19.6453 49.7402 20.3766 49.6354 20.7628 49.12C21.1495 48.6045 21.0453 47.8738 20.5299 47.4871C17.5254 45.2339 13.5054 44.8716 10.1467 46.5507C6.7874 48.2303 4.66577 51.6637 4.66577 55.4188Z" fill="#EA6628"/>
<path d="M41.9927 9.34343C42.6369 9.34343 43.1592 8.82171 43.1592 8.17697C43.1592 7.53279 42.6369 7.0105 41.9927 7.0105H11.6645C11.0203 7.0105 10.498 7.53279 10.498 8.17697V12.8428C10.498 13.4876 11.0203 14.0093 11.6645 14.0093H41.9927C42.6369 14.0093 43.1592 13.4876 43.1592 12.8428C43.1592 12.1987 42.6369 11.6764 41.9927 11.6764H12.831V9.34343H41.9927Z" fill="#EA6628"/>
<path d="M15.164 16.3423C14.5198 16.3423 13.9976 16.8646 13.9976 17.5088C13.9976 18.1535 14.5198 18.6752 15.164 18.6752H38.4934C39.1376 18.6752 39.6599 18.1535 39.6599 17.5088C39.6599 16.8646 39.1376 16.3423 38.4934 16.3423H15.164Z" fill="#EA6628"/>
<path d="M45.4921 24.5076H19.8298C19.1856 24.5076 18.6633 25.0299 18.6633 25.674C18.6633 26.3188 19.1856 26.8405 19.8298 26.8405H45.4921C46.1363 26.8405 46.6586 26.3188 46.6586 25.674C46.6586 25.0299 46.1363 24.5076 45.4921 24.5076Z" fill="#EA6628"/>
<path d="M33.8276 32.6728C33.8276 32.0286 33.3053 31.5063 32.6611 31.5063H9.33175C8.68757 31.5063 8.16528 32.0286 8.16528 32.6728C8.16528 33.3176 8.68757 33.8393 9.33175 33.8393H32.6611C33.3053 33.8393 33.8276 33.3176 33.8276 32.6728Z" fill="#EA6628"/>
<path d="M45.4921 31.5063H37.3269C36.6827 31.5063 36.1604 32.0286 36.1604 32.6728C36.1604 33.3176 36.6827 33.8393 37.3269 33.8393H45.4921C46.1363 33.8393 46.6586 33.3176 46.6586 32.6728C46.6586 32.0286 46.1363 31.5063 45.4921 31.5063Z" fill="#EA6628"/>
<path d="M20.9964 39.6716C21.6406 39.6716 22.1629 39.1499 22.1629 38.5051C22.1629 37.8609 21.6406 37.3386 20.9964 37.3386H9.33175C8.68757 37.3386 8.16528 37.8609 8.16528 38.5051C8.16528 39.1499 8.68757 39.6716 9.33175 39.6716H20.9964Z" fill="#EA6628"/>
<path d="M25.6623 39.6716H33.8276C34.4718 39.6716 34.9941 39.1499 34.9941 38.5051C34.9941 37.8609 34.4718 37.3386 33.8276 37.3386H25.6623C25.0181 37.3386 24.4958 37.8609 24.4958 38.5051C24.4958 39.1499 25.0181 39.6716 25.6623 39.6716Z" fill="#EA6628"/>
<path d="M52.4911 53.6692C51.8469 53.6692 51.3246 54.1915 51.3246 54.8357V66.5004C51.3246 67.1451 50.8023 67.6669 50.1581 67.6669H3.4994C2.85523 67.6669 2.33294 67.1451 2.33294 66.5004V3.51112C2.33294 2.86695 2.85523 2.34465 3.4994 2.34465H50.1581C50.8023 2.34465 51.3246 2.86695 51.3246 3.51112V25.4177C51.3246 26.0619 51.8469 26.5842 52.4911 26.5842C53.1352 26.5842 53.6575 26.0619 53.6575 25.4177V3.51112C53.6575 1.57859 52.0907 0.0117188 50.1581 0.0117188H3.4994C1.56687 0.0117188 0 1.57859 0 3.51112V66.5004C0 68.4335 1.56687 69.9998 3.4994 69.9998H50.1581C52.0907 69.9998 53.6575 68.4335 53.6575 66.5004V54.8357C53.6575 54.1915 53.1352 53.6692 52.4911 53.6692Z" fill="#EA6628"/>
</g>
<defs>
<clipPath id="clip0_51_158">
<rect width="70" height="70" fill="white"/>
</clipPath>
</defs>
</svg>
