<svg width="37" height="149" viewBox="0 0 37 149" fill="none" xmlns="http://www.w3.org/2000/svg">
<path d="M2.50716 95.2045C3.86164 95.2045 4.95966 94.1065 4.95966 92.7521C4.95966 91.3976 3.86164 90.2996 2.50716 90.2996C1.15268 90.2996 0.0546875 91.3976 0.0546875 92.7521C0.0546875 94.1065 1.15268 95.2045 2.50716 95.2045Z" fill="black"/>
<path d="M18.0711 95.2045C19.4256 95.2045 20.5236 94.1065 20.5236 92.7521C20.5236 91.3976 19.4256 90.2996 18.0711 90.2996C16.7166 90.2996 15.6187 91.3976 15.6187 92.7521C15.6187 94.1065 16.7166 95.2045 18.0711 95.2045Z" fill="black"/>
<path d="M33.6348 95.2045C34.9893 95.2045 36.0873 94.1065 36.0873 92.7521C36.0873 91.3976 34.9893 90.2996 33.6348 90.2996C32.2804 90.2996 31.1824 91.3976 31.1824 92.7521C31.1824 94.1065 32.2804 95.2045 33.6348 95.2045Z" fill="black"/>
<path d="M2.50716 76.8579C3.86164 76.8579 4.95966 75.7599 4.95966 74.4054C4.95966 73.051 3.86164 71.9529 2.50716 71.9529C1.15268 71.9529 0.0546875 73.051 0.0546875 74.4054C0.0546875 75.7599 1.15268 76.8579 2.50716 76.8579Z" fill="black"/>
<path d="M18.0711 76.8579C19.4256 76.8579 20.5236 75.7599 20.5236 74.4054C20.5236 73.051 19.4256 71.9529 18.0711 71.9529C16.7166 71.9529 15.6187 73.051 15.6187 74.4054C15.6187 75.7599 16.7166 76.8579 18.0711 76.8579Z" fill="black"/>
<path d="M33.6348 76.8579C34.9893 76.8579 36.0873 75.7599 36.0873 74.4054C36.0873 73.051 34.9893 71.9529 33.6348 71.9529C32.2804 71.9529 31.1824 73.051 31.1824 74.4054C31.1824 75.7599 32.2804 76.8579 33.6348 76.8579Z" fill="black"/>
<path d="M2.50716 60.8224C3.86164 60.8224 4.95966 59.7244 4.95966 58.3699C4.95966 57.0154 3.86164 55.9174 2.50716 55.9174C1.15268 55.9174 0.0546875 57.0154 0.0546875 58.3699C0.0546875 59.7244 1.15268 60.8224 2.50716 60.8224Z" fill="black"/>
<path d="M18.0711 60.8224C19.4256 60.8224 20.5236 59.7244 20.5236 58.3699C20.5236 57.0154 19.4256 55.9174 18.0711 55.9174C16.7166 55.9174 15.6187 57.0154 15.6187 58.3699C15.6187 59.7244 16.7166 60.8224 18.0711 60.8224Z" fill="black"/>
<path d="M33.6348 60.8224C34.9893 60.8224 36.0873 59.7244 36.0873 58.3699C36.0873 57.0154 34.9893 55.9174 33.6348 55.9174C32.2804 55.9174 31.1824 57.0154 31.1824 58.3699C31.1824 59.7244 32.2804 60.8224 33.6348 60.8224Z" fill="black"/>
<path d="M2.50716 148.417C3.86164 148.417 4.95966 147.319 4.95966 145.965C4.95966 144.61 3.86164 143.512 2.50716 143.512C1.15268 143.512 0.0546875 144.61 0.0546875 145.965C0.0546875 147.319 1.15268 148.417 2.50716 148.417Z" fill="black"/>
<path d="M18.0711 148.417C19.4256 148.417 20.5236 147.319 20.5236 145.965C20.5236 144.61 19.4256 143.512 18.0711 143.512C16.7166 143.512 15.6187 144.61 15.6187 145.965C15.6187 147.319 16.7166 148.417 18.0711 148.417Z" fill="black"/>
<path d="M33.6348 148.417C34.9893 148.417 36.0873 147.319 36.0873 145.965C36.0873 144.61 34.9893 143.512 33.6348 143.512C32.2804 143.512 31.1824 144.61 31.1824 145.965C31.1824 147.319 32.2804 148.417 33.6348 148.417Z" fill="black"/>
<path d="M2.50716 130.07C3.86164 130.07 4.95966 128.972 4.95966 127.618C4.95966 126.263 3.86164 125.165 2.50716 125.165C1.15268 125.165 0.0546875 126.263 0.0546875 127.618C0.0546875 128.972 1.15268 130.07 2.50716 130.07Z" fill="black"/>
<path d="M18.0711 130.07C19.4256 130.07 20.5236 128.972 20.5236 127.618C20.5236 126.263 19.4256 125.165 18.0711 125.165C16.7166 125.165 15.6187 126.263 15.6187 127.618C15.6187 128.972 16.7166 130.07 18.0711 130.07Z" fill="black"/>
<path d="M33.6348 130.07C34.9893 130.07 36.0873 128.972 36.0873 127.618C36.0873 126.263 34.9893 125.165 33.6348 125.165C32.2804 125.165 31.1824 126.263 31.1824 127.618C31.1824 128.972 32.2804 130.07 33.6348 130.07Z" fill="black"/>
<path d="M2.50716 114.035C3.86164 114.035 4.95966 112.937 4.95966 111.582C4.95966 110.228 3.86164 109.13 2.50716 109.13C1.15268 109.13 0.0546875 110.228 0.0546875 111.582C0.0546875 112.937 1.15268 114.035 2.50716 114.035Z" fill="black"/>
<path d="M18.0711 114.035C19.4256 114.035 20.5236 112.937 20.5236 111.582C20.5236 110.228 19.4256 109.13 18.0711 109.13C16.7166 109.13 15.6187 110.228 15.6187 111.582C15.6187 112.937 16.7166 114.035 18.0711 114.035Z" fill="black"/>
<path d="M33.6348 114.035C34.9893 114.035 36.0873 112.937 36.0873 111.582C36.0873 110.228 34.9893 109.13 33.6348 109.13C32.2804 109.13 31.1824 110.228 31.1824 111.582C31.1824 112.937 32.2804 114.035 33.6348 114.035Z" fill="black"/>
<path d="M2.50716 42.4759C3.86164 42.4759 4.95966 41.3779 4.95966 40.0234C4.95966 38.6689 3.86164 37.5709 2.50716 37.5709C1.15268 37.5709 0.0546875 38.6689 0.0546875 40.0234C0.0546875 41.3779 1.15268 42.4759 2.50716 42.4759Z" fill="black"/>
<path d="M18.0711 42.4759C19.4256 42.4759 20.5236 41.3779 20.5236 40.0234C20.5236 38.6689 19.4256 37.5709 18.0711 37.5709C16.7166 37.5709 15.6187 38.6689 15.6187 40.0234C15.6187 41.3779 16.7166 42.4759 18.0711 42.4759Z" fill="black"/>
<path d="M33.6348 42.4759C34.9893 42.4759 36.0873 41.3779 36.0873 40.0234C36.0873 38.6689 34.9893 37.5709 33.6348 37.5709C32.2804 37.5709 31.1824 38.6689 31.1824 40.0234C31.1824 41.3779 32.2804 42.4759 33.6348 42.4759Z" fill="black"/>
<path d="M2.50716 24.1292C3.86164 24.1292 4.95966 23.0312 4.95966 21.6767C4.95966 20.3223 3.86164 19.2242 2.50716 19.2242C1.15268 19.2242 0.0546875 20.3223 0.0546875 21.6767C0.0546875 23.0312 1.15268 24.1292 2.50716 24.1292Z" fill="black"/>
<path d="M18.0711 24.1292C19.4256 24.1292 20.5236 23.0312 20.5236 21.6767C20.5236 20.3223 19.4256 19.2242 18.0711 19.2242C16.7166 19.2242 15.6187 20.3223 15.6187 21.6767C15.6187 23.0312 16.7166 24.1292 18.0711 24.1292Z" fill="black"/>
<path d="M33.6348 24.1292C34.9893 24.1292 36.0873 23.0312 36.0873 21.6767C36.0873 20.3223 34.9893 19.2242 33.6348 19.2242C32.2804 19.2242 31.1824 20.3223 31.1824 21.6767C31.1824 23.0312 32.2804 24.1292 33.6348 24.1292Z" fill="black"/>
<path d="M2.50716 5.7828C3.86164 5.7828 4.95966 4.68478 4.95966 3.3303C4.95966 1.97583 3.86164 0.877808 2.50716 0.877808C1.15268 0.877808 0.0546875 1.97583 0.0546875 3.3303C0.0546875 4.68478 1.15268 5.7828 2.50716 5.7828Z" fill="black"/>
<path d="M18.0711 5.7828C19.4256 5.7828 20.5236 4.68478 20.5236 3.3303C20.5236 1.97583 19.4256 0.877808 18.0711 0.877808C16.7166 0.877808 15.6187 1.97583 15.6187 3.3303C15.6187 4.68478 16.7166 5.7828 18.0711 5.7828Z" fill="black"/>
<path d="M33.6348 5.7828C34.9893 5.7828 36.0873 4.68478 36.0873 3.3303C36.0873 1.97583 34.9893 0.877808 33.6348 0.877808C32.2804 0.877808 31.1824 1.97583 31.1824 3.3303C31.1824 4.68478 32.2804 5.7828 33.6348 5.7828Z" fill="black"/>
</svg>
