<svg width="32" height="128" viewBox="0 0 32 128" fill="none" xmlns="http://www.w3.org/2000/svg">
<path d="M2.12006 81.5419C3.29095 81.5419 4.24015 80.5927 4.24015 79.4218C4.24015 78.251 3.29095 77.3018 2.12006 77.3018C0.949173 77.3018 0 78.251 0 79.4218C0 80.5927 0.949173 81.5419 2.12006 81.5419Z" fill="black"/>
<path d="M15.5744 81.5419C16.7453 81.5419 17.6945 80.5927 17.6945 79.4218C17.6945 78.251 16.7453 77.3018 15.5744 77.3018C14.4035 77.3018 13.4543 78.251 13.4543 79.4218C13.4543 80.5927 14.4035 81.5419 15.5744 81.5419Z" fill="black"/>
<path d="M29.0288 81.5419C30.1996 81.5419 31.1488 80.5927 31.1488 79.4218C31.1488 78.251 30.1996 77.3018 29.0288 77.3018C27.8579 77.3018 26.9087 78.251 26.9087 79.4218C26.9087 80.5927 27.8579 81.5419 29.0288 81.5419Z" fill="black"/>
<path d="M2.12006 65.6816C3.29095 65.6816 4.24015 64.7324 4.24015 63.5615C4.24015 62.3906 3.29095 61.4414 2.12006 61.4414C0.949173 61.4414 0 62.3906 0 63.5615C0 64.7324 0.949173 65.6816 2.12006 65.6816Z" fill="black"/>
<path d="M15.5744 65.6816C16.7453 65.6816 17.6945 64.7324 17.6945 63.5615C17.6945 62.3906 16.7453 61.4414 15.5744 61.4414C14.4035 61.4414 13.4543 62.3906 13.4543 63.5615C13.4543 64.7324 14.4035 65.6816 15.5744 65.6816Z" fill="black"/>
<path d="M29.0288 65.6816C30.1996 65.6816 31.1488 64.7324 31.1488 63.5615C31.1488 62.3906 30.1996 61.4414 29.0288 61.4414C27.8579 61.4414 26.9087 62.3906 26.9087 63.5615C26.9087 64.7324 27.8579 65.6816 29.0288 65.6816Z" fill="black"/>
<path d="M2.12006 51.8197C3.29095 51.8197 4.24015 50.8706 4.24015 49.6997C4.24015 48.5288 3.29095 47.5796 2.12006 47.5796C0.949173 47.5796 0 48.5288 0 49.6997C0 50.8706 0.949173 51.8197 2.12006 51.8197Z" fill="black"/>
<path d="M15.5744 51.8197C16.7453 51.8197 17.6945 50.8706 17.6945 49.6997C17.6945 48.5288 16.7453 47.5796 15.5744 47.5796C14.4035 47.5796 13.4543 48.5288 13.4543 49.6997C13.4543 50.8706 14.4035 51.8197 15.5744 51.8197Z" fill="black"/>
<path d="M29.0288 51.8197C30.1996 51.8197 31.1488 50.8706 31.1488 49.6997C31.1488 48.5288 30.1996 47.5796 29.0288 47.5796C27.8579 47.5796 26.9087 48.5288 26.9087 49.6997C26.9087 50.8706 27.8579 51.8197 29.0288 51.8197Z" fill="black"/>
<path d="M2.12006 127.542C3.29095 127.542 4.24015 126.593 4.24015 125.422C4.24015 124.251 3.29095 123.302 2.12006 123.302C0.949173 123.302 0 124.251 0 125.422C0 126.593 0.949173 127.542 2.12006 127.542Z" fill="black"/>
<path d="M15.5744 127.542C16.7453 127.542 17.6945 126.593 17.6945 125.422C17.6945 124.251 16.7453 123.302 15.5744 123.302C14.4035 123.302 13.4543 124.251 13.4543 125.422C13.4543 126.593 14.4035 127.542 15.5744 127.542Z" fill="black"/>
<path d="M29.0288 127.542C30.1996 127.542 31.1488 126.593 31.1488 125.422C31.1488 124.251 30.1996 123.302 29.0288 123.302C27.8579 123.302 26.9087 124.251 26.9087 125.422C26.9087 126.593 27.8579 127.542 29.0288 127.542Z" fill="black"/>
<path d="M2.12006 111.682C3.29095 111.682 4.24015 110.732 4.24015 109.561C4.24015 108.391 3.29095 107.441 2.12006 107.441C0.949173 107.441 0 108.391 0 109.561C0 110.732 0.949173 111.682 2.12006 111.682Z" fill="black"/>
<path d="M15.5744 111.682C16.7453 111.682 17.6945 110.732 17.6945 109.561C17.6945 108.391 16.7453 107.441 15.5744 107.441C14.4035 107.441 13.4543 108.391 13.4543 109.561C13.4543 110.732 14.4035 111.682 15.5744 111.682Z" fill="black"/>
<path d="M29.0288 111.682C30.1996 111.682 31.1488 110.732 31.1488 109.561C31.1488 108.391 30.1996 107.441 29.0288 107.441C27.8579 107.441 26.9087 108.391 26.9087 109.561C26.9087 110.732 27.8579 111.682 29.0288 111.682Z" fill="black"/>
<path d="M2.12006 97.8197C3.29095 97.8197 4.24015 96.8706 4.24015 95.6997C4.24015 94.5288 3.29095 93.5796 2.12006 93.5796C0.949173 93.5796 0 94.5288 0 95.6997C0 96.8706 0.949173 97.8197 2.12006 97.8197Z" fill="black"/>
<path d="M15.5744 97.8197C16.7453 97.8197 17.6945 96.8706 17.6945 95.6997C17.6945 94.5288 16.7453 93.5796 15.5744 93.5796C14.4035 93.5796 13.4543 94.5288 13.4543 95.6997C13.4543 96.8706 14.4035 97.8197 15.5744 97.8197Z" fill="black"/>
<path d="M29.0288 97.8197C30.1996 97.8197 31.1488 96.8706 31.1488 95.6997C31.1488 94.5288 30.1996 93.5796 29.0288 93.5796C27.8579 93.5796 26.9087 94.5288 26.9087 95.6997C26.9087 96.8706 27.8579 97.8197 29.0288 97.8197Z" fill="black"/>
<path d="M2.12006 35.9599C3.29095 35.9599 4.24015 35.0107 4.24015 33.8398C4.24015 32.6689 3.29095 31.7197 2.12006 31.7197C0.949173 31.7197 0 32.6689 0 33.8398C0 35.0107 0.949173 35.9599 2.12006 35.9599Z" fill="black"/>
<path d="M15.5744 35.9599C16.7453 35.9599 17.6945 35.0107 17.6945 33.8398C17.6945 32.6689 16.7453 31.7197 15.5744 31.7197C14.4035 31.7197 13.4543 32.6689 13.4543 33.8398C13.4543 35.0107 14.4035 35.9599 15.5744 35.9599Z" fill="black"/>
<path d="M29.0288 35.9599C30.1996 35.9599 31.1488 35.0107 31.1488 33.8398C31.1488 32.6689 30.1996 31.7197 29.0288 31.7197C27.8579 31.7197 26.9087 32.6689 26.9087 33.8398C26.9087 35.0107 27.8579 35.9599 29.0288 35.9599Z" fill="black"/>
<path d="M2.12006 20.1C3.29095 20.1 4.24015 19.1508 4.24015 17.9799C4.24015 16.8091 3.29095 15.8599 2.12006 15.8599C0.949173 15.8599 0 16.8091 0 17.9799C0 19.1508 0.949173 20.1 2.12006 20.1Z" fill="black"/>
<path d="M15.5744 20.1C16.7453 20.1 17.6945 19.1508 17.6945 17.9799C17.6945 16.8091 16.7453 15.8599 15.5744 15.8599C14.4035 15.8599 13.4543 16.8091 13.4543 17.9799C13.4543 19.1508 14.4035 20.1 15.5744 20.1Z" fill="black"/>
<path d="M29.0288 20.1C30.1996 20.1 31.1488 19.1508 31.1488 17.9799C31.1488 16.8091 30.1996 15.8599 29.0288 15.8599C27.8579 15.8599 26.9087 16.8091 26.9087 17.9799C26.9087 19.1508 27.8579 20.1 29.0288 20.1Z" fill="black"/>
<path d="M2.12006 4.24016C3.29095 4.24016 4.24015 3.29097 4.24015 2.12008C4.24015 0.949191 3.29095 0 2.12006 0C0.949173 0 0 0.949191 0 2.12008C0 3.29097 0.949173 4.24016 2.12006 4.24016Z" fill="black"/>
<path d="M15.5744 4.24016C16.7453 4.24016 17.6945 3.29097 17.6945 2.12008C17.6945 0.949191 16.7453 0 15.5744 0C14.4035 0 13.4543 0.949191 13.4543 2.12008C13.4543 3.29097 14.4035 4.24016 15.5744 4.24016Z" fill="black"/>
<path d="M29.0288 4.24016C30.1996 4.24016 31.1488 3.29097 31.1488 2.12008C31.1488 0.949191 30.1996 0 29.0288 0C27.8579 0 26.9087 0.949191 26.9087 2.12008C26.9087 3.29097 27.8579 4.24016 29.0288 4.24016Z" fill="black"/>
</svg>
