<svg width="66" height="68" viewBox="0 0 66 68" fill="none" xmlns="http://www.w3.org/2000/svg">
<path d="M23.0418 18.9377L21.8918 19.3545C20.1169 19.9981 18.7927 21.5507 18.4358 23.4075L18.0456 25.4523C17.8509 26.4651 18.116 27.5024 18.7733 28.2978C19.4309 29.094 20.4004 29.5506 21.4329 29.5506H31.4014C32.4259 29.5506 33.3905 29.1 34.048 28.3143C34.7049 27.5292 34.9782 26.5014 34.7978 25.4943L34.4339 23.4603C34.0967 21.5742 32.7682 19.9964 30.9664 19.3425L29.7472 18.9007V17.1037C29.7472 17.0533 29.7423 17.0041 29.735 16.9556C30.6245 16.0501 31.1339 14.8154 31.1339 13.5521V10.8747C31.1339 8.2612 29.0076 6.13501 26.394 6.13501C23.7804 6.13501 21.6536 8.2612 21.6536 10.8747V13.6355C21.6536 14.9341 22.1891 16.1197 23.0502 16.9807C23.0451 17.0211 23.0418 17.0619 23.0418 17.1036V18.9377ZM32.4725 23.8109L32.8364 25.8452C32.9127 26.2703 32.7973 26.7042 32.5198 27.0357C32.242 27.3677 31.8342 27.5583 31.4011 27.5583H21.4326C20.9963 27.5583 20.5867 27.3655 20.3089 27.0291C20.0316 26.6933 19.9196 26.2557 20.002 25.8271L20.3922 23.7823C20.617 22.612 21.4519 21.633 22.5703 21.2276L23.3236 20.9546C23.3425 20.974 23.3615 20.9935 23.3819 21.0115C24.2403 21.762 25.317 22.1373 26.3944 22.1372C27.4704 22.1372 28.5469 21.7627 29.4054 21.0136C29.4363 20.9866 29.4647 20.9575 29.4918 20.9273L30.2864 21.2153C31.4225 21.6273 32.26 22.6218 32.4725 23.8109ZM23.6458 10.8747C23.6458 9.35983 24.8785 8.1272 26.3936 8.1272C27.6723 8.1272 28.7467 9.00642 29.0518 10.1911C28.9238 10.2537 28.7924 10.3128 28.6579 10.3665C27.4331 10.8569 26.4438 10.7918 26.161 10.5937C25.7105 10.2778 25.0895 10.3867 24.7735 10.8372C24.4577 11.2877 24.5667 11.9088 25.0171 12.2247C25.5036 12.5659 26.1639 12.7365 26.9175 12.7365C27.6022 12.7365 28.3639 12.5942 29.1415 12.3128V13.5518C29.1415 14.3132 28.8266 15.0588 28.2774 15.5974C28.0232 15.8468 27.7319 16.04 27.4192 16.1734C27.3972 16.1817 27.3757 16.1908 27.3546 16.2006C27.0333 16.3277 26.6901 16.3916 26.3394 16.3824C24.854 16.3539 23.6458 15.1215 23.6458 13.6353V10.8747ZM26.3011 18.3745C26.3316 18.375 26.3617 18.3753 26.3921 18.3753C26.8595 18.3753 27.3174 18.305 27.7549 18.1702V19.7638C26.9247 20.2757 25.8634 20.2754 25.0342 19.763V18.1731C25.4372 18.2952 25.8618 18.366 26.3011 18.3745Z" fill="#EA6628"/>
<path d="M10.7225 46.6045H41.7436C42.2938 46.6045 42.7396 46.1586 42.7396 45.6084C42.7396 45.0582 42.2938 44.6123 41.7436 44.6123H10.7225C10.1723 44.6123 9.72644 45.0582 9.72644 45.6084C9.72644 46.1586 10.1723 46.6045 10.7225 46.6045Z" fill="#EA6628"/>
<path d="M10.7225 51.9756H41.7436C42.2938 51.9756 42.7396 51.5297 42.7396 50.9795C42.7396 50.4292 42.2938 49.9834 41.7436 49.9834H10.7225C10.1723 49.9834 9.72644 50.4292 9.72644 50.9795C9.72644 51.5297 10.1723 51.9756 10.7225 51.9756Z" fill="#EA6628"/>
<path d="M10.7225 57.3464H41.7436C42.2938 57.3464 42.7396 56.9006 42.7396 56.3503C42.7396 55.8001 42.2938 55.3542 41.7436 55.3542H10.7225C10.1723 55.3542 9.72644 55.8001 9.72644 56.3503C9.72644 56.9006 10.1723 57.3464 10.7225 57.3464Z" fill="#EA6628"/>
<path d="M10.7225 62.7175H41.7436C42.2938 62.7175 42.7396 62.2717 42.7396 61.7214C42.7396 61.1712 42.2938 60.7253 41.7436 60.7253H10.7225C10.1723 60.7253 9.72644 61.1712 9.72644 61.7214C9.72644 62.2717 10.1723 62.7175 10.7225 62.7175Z" fill="#EA6628"/>
<path d="M9.72644 34.8665C9.72644 35.4167 10.1723 35.8625 10.7225 35.8625H41.7436C42.2938 35.8625 42.7396 35.4167 42.7396 34.8665C42.7396 34.3162 42.2938 33.8704 41.7436 33.8704H10.7225C10.1723 33.8704 9.72644 34.3163 9.72644 34.8665Z" fill="#EA6628"/>
<path d="M10.7225 41.2336H41.7436C42.2938 41.2336 42.7396 40.7878 42.7396 40.2375C42.7396 39.6873 42.2938 39.2415 41.7436 39.2415H10.7225C10.1723 39.2415 9.72644 39.6873 9.72644 40.2375C9.72644 40.7878 10.1723 41.2336 10.7225 41.2336Z" fill="#EA6628"/>
<path d="M7.04437 46.6083C7.5966 46.6083 8.04431 46.1607 8.04431 45.6085C8.04431 45.0564 7.5966 44.6086 7.04437 44.6086C6.49213 44.6086 6.04456 45.0562 6.04456 45.6085C6.04456 46.1607 6.49227 46.6083 7.04437 46.6083Z" fill="#EA6628"/>
<path d="M7.04437 35.8663C7.5966 35.8663 8.04431 35.4187 8.04431 34.8665C8.04431 34.3143 7.5966 33.8667 7.04437 33.8667C6.49213 33.8667 6.04456 34.3143 6.04456 34.8665C6.04456 35.4187 6.49227 35.8663 7.04437 35.8663Z" fill="#EA6628"/>
<path d="M7.04437 41.2374C7.5966 41.2374 8.04431 40.7898 8.04431 40.2376C8.04431 39.6854 7.5966 39.2378 7.04437 39.2378C6.49213 39.2378 6.04456 39.6854 6.04456 40.2376C6.04456 40.7898 6.49227 41.2374 7.04437 41.2374Z" fill="#EA6628"/>
<path d="M7.04437 51.9791C7.5966 51.9791 8.04431 51.5315 8.04431 50.9793C8.04431 50.4271 7.5966 49.9795 7.04437 49.9795C6.49213 49.9795 6.04456 50.4271 6.04456 50.9793C6.04456 51.5315 6.49227 51.9791 7.04437 51.9791Z" fill="#EA6628"/>
<path d="M7.04437 57.3502C7.5966 57.3502 8.04431 56.9026 8.04431 56.3504C8.04431 55.7982 7.5966 55.3506 7.04437 55.3506C6.49213 55.3506 6.04456 55.7982 6.04456 56.3504C6.04456 56.9025 6.49227 57.3502 7.04437 57.3502Z" fill="#EA6628"/>
<path d="M7.04437 62.7211C7.5966 62.7211 8.04431 62.2735 8.04431 61.7212C8.04431 61.1691 7.5966 60.7214 7.04437 60.7214C6.49213 60.7214 6.04456 61.169 6.04456 61.7212C6.04456 62.2733 6.49227 62.7211 7.04437 62.7211Z" fill="#EA6628"/>
<path d="M63.4977 15.6879C63.0958 15.1793 62.7159 14.6986 62.5322 14.2558C62.3341 13.7778 62.256 13.1463 62.1734 12.4775C62.0285 11.3058 61.8643 9.97781 60.9376 9.05117C60.0108 8.12454 58.6827 7.96038 57.511 7.81548C56.842 7.73287 56.2102 7.65478 55.7322 7.45662C55.2893 7.27295 54.8088 6.89337 54.3 6.49134C53.5999 5.93818 52.83 5.33083 51.9197 5.05524V4.75389C51.9199 2.1327 49.787 0 47.1654 0H5.66897C3.04739 0 0.914551 2.1327 0.914551 4.75402V8.59881C0.914551 9.14906 1.3604 9.59491 1.91064 9.59491C2.46089 9.59491 2.90674 9.14906 2.90674 8.59881V4.75402C2.90674 3.23106 4.14588 1.99219 5.66897 1.99219H47.1654C48.6885 1.99219 49.9277 3.23106 49.9277 4.75402V5.05551C49.0176 5.33123 48.248 5.93831 47.5479 6.49148C47.0391 6.89337 46.5586 7.27308 46.1158 7.45676C45.6378 7.65478 45.006 7.73287 44.3371 7.81562C43.1654 7.96038 41.8374 8.12454 40.9105 9.05117C39.9836 9.97794 39.8194 11.3059 39.6745 12.4776C39.5919 13.1463 39.5138 13.778 39.3157 14.256C39.132 14.6988 38.7523 15.1794 38.3503 15.6881C37.606 16.6299 36.7626 17.6973 36.7626 19.0638C36.7626 20.4303 37.6061 21.4977 38.3503 22.4395C38.7522 22.9481 39.132 23.4288 39.3157 23.8716C39.5138 24.3496 39.5919 24.9811 39.6745 25.6501C39.8194 26.8216 39.9836 28.1496 40.9104 29.0762C41.8371 30.003 43.1653 30.167 44.3369 30.3119C44.6862 30.3551 45.0248 30.3975 45.3373 30.4559V45.5125C45.3373 46.1025 45.6666 46.6295 46.197 46.8877C46.7272 47.1463 47.3451 47.0807 47.8101 46.7167L49.9275 45.0588V63.2461C49.9275 64.7691 48.6884 66.0079 47.1653 66.0079H5.66897C4.14588 66.0079 2.90674 64.7691 2.90674 63.2461V12.9852C2.90674 12.435 2.46089 11.9891 1.91064 11.9891C1.3604 11.9891 0.914551 12.435 0.914551 12.9852V63.246C0.914551 65.8673 3.04739 68 5.66897 68H47.1654C49.787 68 51.9199 65.8673 51.9199 63.246V45.0586L54.0373 46.7164C54.3137 46.9329 54.6444 47.0439 54.9788 47.0439C55.2067 47.0439 55.4362 46.9923 55.6514 46.8875C56.1818 46.6293 56.5115 46.1023 56.5115 45.5123V34.3963C56.5115 33.8461 56.0656 33.4002 55.5154 33.4002C54.9651 33.4002 54.5193 33.8461 54.5193 34.3963V44.5638L51.8714 42.4907C51.6038 42.2789 51.2672 42.1621 50.9236 42.1621C50.58 42.1621 50.2435 42.2789 49.9801 42.4872L47.3293 44.5627V31.4641C47.4016 31.5207 47.4742 31.5779 47.5478 31.6359C48.4897 32.3802 49.5573 33.2234 50.9239 33.2234C52.2904 33.2234 53.358 32.3801 54.2999 31.6361C54.8087 31.2342 55.2893 30.8543 55.7321 30.6707C56.2101 30.4726 56.8419 30.3945 57.5109 30.3118C58.6825 30.167 60.0105 30.0029 60.9376 29.0762C61.8642 28.1495 62.0284 26.8215 62.1732 25.6499C62.256 24.9811 62.3341 24.3494 62.5322 23.8715C62.7159 23.4287 63.0956 22.948 63.4977 22.4393C64.2419 21.4976 65.0853 20.4301 65.0853 19.0636C65.0853 17.6971 64.2418 16.6297 63.4977 15.6879ZM61.9346 21.2042C61.466 21.7972 60.9815 22.4102 60.6921 23.1083C60.3902 23.8361 60.2916 24.6339 60.1962 25.4054C60.0805 26.3412 59.9714 27.2251 59.5291 27.6674C59.0867 28.1096 58.2027 28.2188 57.2668 28.3345C56.4951 28.4298 55.6974 28.5284 54.9694 28.8303C54.2713 29.1197 53.6582 29.604 53.0652 30.0726C52.311 30.6683 51.5987 31.2311 50.9242 31.2311C50.2496 31.2311 49.5373 30.6684 48.7831 30.0726C48.1901 29.6042 47.577 29.1197 46.879 28.8303C46.8309 28.8104 46.6641 28.7469 46.6281 28.7357C45.9697 28.5067 45.2654 28.419 44.5814 28.3345C43.6455 28.2188 42.7615 28.1095 42.3191 27.6672C41.877 27.2251 41.7677 26.3412 41.652 25.4056C41.5566 24.6339 41.4581 23.8364 41.1562 23.1083C40.8667 22.4102 40.3823 21.7972 39.9137 21.2042C39.3181 20.4501 38.7552 19.7379 38.7552 19.0636C38.7552 18.3894 39.3179 17.6772 39.9137 16.9231C40.3823 16.3301 40.8668 15.717 41.1562 15.019C41.4581 14.2912 41.5568 13.4934 41.652 12.7218C41.7677 11.786 41.877 10.9022 42.3192 10.4599C42.7616 10.0176 43.6456 9.90848 44.5816 9.7928C45.3532 9.69744 46.1509 9.59889 46.879 9.29701C47.577 9.00761 48.1901 8.52324 48.7831 8.05468C49.5357 7.46008 50.2468 6.89855 50.9202 6.89642C50.9214 6.89642 50.9227 6.89655 50.9239 6.89655C50.9252 6.89655 50.9266 6.89642 50.9279 6.89642C51.6014 6.89841 52.3125 7.46008 53.0652 8.05468C53.6582 8.52311 54.2713 9.00761 54.9694 9.29701C55.6973 9.59889 56.4952 9.69757 57.2669 9.7928C58.2028 9.90848 59.0868 10.0178 59.5291 10.46C59.9714 10.9023 60.0807 11.786 60.1963 12.7218C60.2917 13.4934 60.3902 14.291 60.6921 15.019C60.9817 15.717 61.466 16.3301 61.9346 16.9231C62.5302 17.6772 63.0931 18.3894 63.0931 19.0636C63.0931 19.7379 62.5304 20.4502 61.9346 21.2042Z" fill="#EA6628"/>
<path d="M57.319 15.8982L53.9294 14.9391L51.9694 12.0119C51.7353 11.6624 51.3446 11.4539 50.9239 11.4539C50.5033 11.4539 50.1125 11.6625 49.8784 12.0119L47.9185 14.9391L44.5286 15.8983C44.1238 16.0129 43.8045 16.3204 43.6746 16.7204C43.5447 17.1204 43.6226 17.5567 43.8826 17.8869L46.0611 20.6551L45.9259 24.1742C45.9096 24.5947 46.103 24.9934 46.4434 25.2409C46.6619 25.3996 46.9207 25.4817 47.1825 25.4817C47.3288 25.4817 47.476 25.456 47.6173 25.404L50.9237 24.1877L54.2298 25.4038C54.6246 25.5494 55.0633 25.4883 55.4037 25.2411C55.7441 24.994 55.9377 24.5954 55.9215 24.1748L55.7863 20.655L57.965 17.8868C58.225 17.5562 58.3027 17.1202 58.1727 16.7201C58.0432 16.3201 57.7239 16.0128 57.319 15.8982ZM54.0535 19.6359C53.8695 19.8702 53.7742 20.1632 53.7855 20.4619L53.8888 23.1558L51.3584 22.225C51.078 22.1218 50.7692 22.1219 50.4894 22.2248L47.9586 23.1558L48.0621 20.4609C48.0733 20.1633 47.9779 19.8703 47.7934 19.6352L46.1261 17.5166L48.7211 16.7826C49.0081 16.7011 49.2577 16.5197 49.4236 16.2719L50.9237 14.0314L52.4237 16.2716C52.5897 16.5196 52.8392 16.701 53.1268 16.7827L55.7213 17.5166L54.0535 19.6359Z" fill="#EA6628"/>
</svg>
