<svg width="80" height="80" viewBox="0 0 80 80" fill="none" xmlns="http://www.w3.org/2000/svg">
<path d="M52.5 7.5H55V10H52.5V7.5Z" fill="#4C858B"/>
<path d="M39.6035 13.8787L41.3713 12.1109L43.139 13.8787L41.3713 15.6464L39.6035 13.8787Z" fill="#4C858B"/>
<path d="M69.9375 48.0426L58.0862 54.8864C57.4868 54.2961 56.7462 53.8692 55.935 53.6464L38.9075 49.0839C38.0152 48.8457 37.0813 48.8073 36.1725 48.9714L25 51.0001V48.7501C25 48.4186 24.8683 48.1007 24.6339 47.8663C24.3995 47.6318 24.0815 47.5001 23.75 47.5001H11.25C10.9185 47.5001 10.6005 47.6318 10.3661 47.8663C10.1317 48.1007 10 48.4186 10 48.7501V50.0001H3.75C3.41848 50.0001 3.10054 50.1318 2.86612 50.3663C2.6317 50.6007 2.5 50.9186 2.5 51.2501V73.7502C2.5 74.0817 2.6317 74.3996 2.86612 74.634C3.10054 74.8685 3.41848 75.0002 3.75 75.0002H10V76.2502C10 76.5817 10.1317 76.8996 10.3661 77.134C10.6005 77.3685 10.9185 77.5002 11.25 77.5002H23.75C24.0815 77.5002 24.3995 77.3685 24.6339 77.134C24.8683 76.8996 25 76.5817 25 76.2502V72.6464L44.3425 74.7964C45.7731 74.9536 47.2141 74.6137 48.4237 73.8339L74.9375 56.7089C75.7012 56.2736 76.3353 55.6429 76.7747 54.8815C77.214 54.1201 77.4428 53.2555 77.4375 52.3764C77.4379 51.4985 77.2072 50.636 76.7685 49.8756C76.3298 49.1151 75.6987 48.4836 74.9385 48.0445C74.1784 47.6054 73.316 47.3741 72.4381 47.374C71.5602 47.3739 70.6978 47.605 69.9375 48.0439V48.0426ZM5 72.5002V52.5001H10V72.5002H5ZM22.5 75.0002H12.5V50.0001H22.5V75.0002ZM73.6337 54.5752L47.0662 71.7339C46.34 72.2007 45.4758 72.4045 44.6175 72.3114L25 70.1314V53.5439L36.625 51.4314C37.1698 51.3314 37.73 51.354 38.265 51.4977L55.2925 56.0602C55.933 56.2319 56.479 56.651 56.8105 57.2253C57.142 57.7997 57.2317 58.4822 57.06 59.1227C56.8883 59.7632 56.4691 60.3092 55.8948 60.6407C55.3205 60.9721 54.638 61.0619 53.9975 60.8902L41.5737 57.5627C41.4137 57.515 41.2457 57.5 41.0797 57.5184C40.9137 57.5368 40.7531 57.5882 40.6074 57.6697C40.4616 57.7512 40.3337 57.8611 40.2311 57.9929C40.1285 58.1246 40.0534 58.2756 40.0101 58.4369C39.9668 58.5982 39.9563 58.7665 39.9792 58.932C40.002 59.0974 40.0578 59.2565 40.1432 59.4C40.2286 59.5435 40.3419 59.6685 40.4764 59.7675C40.6109 59.8665 40.7638 59.9375 40.9262 59.9764L53.3462 63.3052C53.9806 63.4753 54.6423 63.5187 55.2935 63.4331C55.9446 63.3474 56.5725 63.1343 57.1413 62.8059C57.7101 62.4775 58.2087 62.0403 58.6084 61.5192C59.0082 60.9981 59.3014 60.4033 59.4712 59.7689C59.7112 58.8622 59.6891 57.906 59.4075 57.0114L71.1825 50.2114C71.469 50.0504 71.7845 49.9473 72.1108 49.9082C72.4371 49.8691 72.768 49.8946 73.0845 49.9834C73.4009 50.0721 73.6968 50.2223 73.9553 50.4254C74.2137 50.6285 74.4296 50.8805 74.5906 51.167C74.7517 51.4535 74.8547 51.769 74.8938 52.0953C74.9329 52.4217 74.9074 52.7525 74.8186 53.069C74.7299 53.3855 74.5797 53.6814 74.3766 53.9398C74.1735 54.1982 73.9215 54.4141 73.635 54.5752H73.6337Z" fill="#4C858B"/>
<path d="M76.25 20H70.0987C69.9862 19.7062 69.865 19.4112 69.7313 19.1125L74.0837 14.7587C74.3181 14.5243 74.4497 14.2065 74.4497 13.875C74.4497 13.5435 74.3181 13.2257 74.0837 12.9912L67.0087 5.91625C66.7743 5.68191 66.4565 5.55027 66.125 5.55027C65.7935 5.55027 65.4757 5.68191 65.2412 5.91625L60.8887 10.2688C60.59 10.135 60.2938 10.0188 60 9.90125V3.75C60 3.41848 59.8683 3.10054 59.6339 2.86612C59.3995 2.6317 59.0815 2.5 58.75 2.5H48.75C48.4185 2.5 48.1005 2.6317 47.8661 2.86612C47.6317 3.10054 47.5 3.41848 47.5 3.75V9.90125C47.2062 10.0138 46.91 10.135 46.6113 10.2688L42.2587 5.91625C42.0243 5.68191 41.7065 5.55027 41.375 5.55027C41.0435 5.55027 40.7257 5.68191 40.4913 5.91625L33.4162 12.9912C33.1819 13.2257 33.0503 13.5435 33.0503 13.875C33.0503 14.2065 33.1819 14.5243 33.4162 14.7587L37.7688 19.1112C37.635 19.41 37.5187 19.7062 37.4012 20H31.25C30.9185 20 30.6005 20.1317 30.3661 20.3661C30.1317 20.6005 30 20.9185 30 21.25V31.25C30 31.5815 30.1317 31.8995 30.3661 32.1339C30.6005 32.3683 30.9185 32.5 31.25 32.5H37.4012C37.5137 32.7938 37.635 33.09 37.7688 33.3888L33.4162 37.7412C33.1819 37.9757 33.0503 38.2935 33.0503 38.625C33.0503 38.9565 33.1819 39.2743 33.4162 39.5088L40.4913 46.5837C40.7257 46.8181 41.0435 46.9497 41.375 46.9497C41.7065 46.9497 42.0243 46.8181 42.2587 46.5837L46.6113 42.2313C46.91 42.365 47.2062 42.4812 47.5 42.5987V48.75C47.5 49.0815 47.6317 49.3995 47.8661 49.6339C48.1005 49.8683 48.4185 50 48.75 50H58.75C59.0815 50 59.3995 49.8683 59.6339 49.6339C59.8683 49.3995 60 49.0815 60 48.75V42.5987C60.2938 42.4862 60.59 42.365 60.8887 42.2313L65.2412 46.5837C65.4801 46.8096 65.7963 46.9354 66.125 46.9354C66.4537 46.9354 66.7699 46.8096 67.0087 46.5837L74.0837 39.5088C74.3181 39.2743 74.4497 38.9565 74.4497 38.625C74.4497 38.2935 74.3181 37.9757 74.0837 37.7412L69.7313 33.3875C69.865 33.0887 69.9812 32.7938 70.0987 32.5H76.25C76.5815 32.5 76.8995 32.3683 77.1339 32.1339C77.3683 31.8995 77.5 31.5815 77.5 31.25V21.25C77.5 20.9185 77.3683 20.6005 77.1339 20.3661C76.8995 20.1317 76.5815 20 76.25 20ZM75 30H69.2125C68.9467 30.0002 68.6879 30.0852 68.4737 30.2426C68.2595 30.3999 68.101 30.6214 68.0212 30.875C67.7749 31.6376 67.4693 32.3799 67.1075 33.095C66.9902 33.3296 66.9497 33.5951 66.9916 33.854C67.0336 34.1128 67.1559 34.352 67.3413 34.5375L71.4325 38.625L66.125 43.9325L62.0337 39.8412C61.8482 39.6559 61.6091 39.5336 61.3502 39.4916C61.0913 39.4497 60.8258 39.4902 60.5912 39.6075C59.8761 39.9694 59.1339 40.2749 58.3712 40.5212C58.1177 40.601 57.8962 40.7595 57.7388 40.9737C57.5815 41.1879 57.4965 41.4467 57.4963 41.7125V47.5H50V41.7125C49.9998 41.4467 49.9148 41.1879 49.7574 40.9737C49.6001 40.7595 49.3786 40.601 49.125 40.5212C48.3624 40.2749 47.6201 39.9694 46.905 39.6075C46.6704 39.4902 46.4049 39.4497 46.146 39.4916C45.8872 39.5336 45.648 39.6559 45.4625 39.8412L41.375 43.9325L36.0675 38.625L40.1587 34.5338C40.3441 34.3482 40.4664 34.1091 40.5084 33.8502C40.5503 33.5913 40.5098 33.3258 40.3925 33.0912C40.0306 32.3761 39.7251 31.6339 39.4788 30.8713C39.399 30.6177 39.2405 30.3962 39.0263 30.2388C38.8121 30.0815 38.5533 29.9965 38.2875 29.9963H32.5V22.5H38.2875C38.5533 22.4998 38.8121 22.4148 39.0263 22.2574C39.2405 22.1001 39.399 21.8786 39.4788 21.625C39.7251 20.8624 40.0306 20.1201 40.3925 19.405C40.5098 19.1704 40.5503 18.9049 40.5084 18.646C40.4664 18.3872 40.3441 18.148 40.1587 17.9625L36.0675 13.875L41.375 8.5675L45.4663 12.6587C45.6518 12.8441 45.8909 12.9664 46.1498 13.0084C46.4087 13.0503 46.6742 13.0098 46.9088 12.8925C47.6226 12.5308 48.3636 12.2253 49.125 11.9788C49.3786 11.899 49.6001 11.7405 49.7574 11.5263C49.9148 11.3121 49.9998 11.0533 50 10.7875V5H57.5V10.7875C57.5002 11.0533 57.5852 11.3121 57.7426 11.5263C57.8999 11.7405 58.1214 11.899 58.375 11.9788C59.1376 12.2251 59.8799 12.5306 60.595 12.8925C60.8296 13.0098 61.0951 13.0503 61.354 13.0084C61.6128 12.9664 61.852 12.8441 62.0375 12.6587L66.125 8.5675L71.4325 13.875L67.3413 17.9663C67.1559 18.1518 67.0336 18.3909 66.9916 18.6498C66.9497 18.9087 66.9902 19.1742 67.1075 19.4088C67.4693 20.1239 67.7749 20.8661 68.0212 21.6287C68.101 21.8823 68.2595 22.1038 68.4737 22.2612C68.6879 22.4185 68.9467 22.5035 69.2125 22.5037H75V30Z" fill="#4C858B"/>
<path d="M53.75 16.25C51.7722 16.25 49.8388 16.8365 48.1943 17.9353C46.5498 19.0341 45.2681 20.5959 44.5112 22.4232C43.7543 24.2504 43.5563 26.2611 43.9422 28.2009C44.328 30.1407 45.2804 31.9225 46.6789 33.3211C48.0775 34.7196 49.8593 35.672 51.7991 36.0579C53.7389 36.4437 55.7496 36.2457 57.5768 35.4888C59.4041 34.7319 60.9659 33.4502 62.0647 31.8057C63.1635 30.1612 63.75 28.2278 63.75 26.25C63.747 23.5987 62.6925 21.0569 60.8178 19.1822C58.9431 17.3075 56.4013 16.253 53.75 16.25ZM53.75 33.75C52.2666 33.75 50.8166 33.3101 49.5832 32.486C48.3499 31.6619 47.3886 30.4906 46.8209 29.1201C46.2533 27.7497 46.1047 26.2417 46.3941 24.7868C46.6835 23.332 47.3978 21.9956 48.4467 20.9467C49.4956 19.8978 50.832 19.1835 52.2868 18.8941C53.7417 18.6047 55.2497 18.7532 56.6201 19.3209C57.9906 19.8886 59.1619 20.8499 59.986 22.0832C60.8101 23.3166 61.25 24.7666 61.25 26.25C61.248 28.2385 60.4572 30.145 59.0511 31.5511C57.645 32.9572 55.7385 33.748 53.75 33.75Z" fill="#4C858B"/>
<path d="M17.5 73.75C18.2417 73.75 18.9667 73.5301 19.5834 73.118C20.2001 72.706 20.6807 72.1203 20.9645 71.4351C21.2484 70.7498 21.3226 69.9958 21.1779 69.2684C21.0333 68.541 20.6761 67.8728 20.1517 67.3484C19.6272 66.8239 18.959 66.4668 18.2316 66.3221C17.5042 66.1774 16.7502 66.2516 16.0649 66.5355C15.3797 66.8193 14.794 67.2999 14.382 67.9166C13.9699 68.5333 13.75 69.2583 13.75 70C13.75 70.9946 14.1451 71.9484 14.8483 72.6516C15.5516 73.3549 16.5054 73.75 17.5 73.75ZM17.5 68.75C17.7472 68.75 17.9889 68.8233 18.1945 68.9607C18.4 69.098 18.5602 69.2932 18.6548 69.5216C18.7495 69.7501 18.7742 70.0014 18.726 70.2439C18.6778 70.4863 18.5587 70.7091 18.3839 70.8839C18.2091 71.0587 17.9863 71.1778 17.7439 71.226C17.5014 71.2742 17.2501 71.2495 17.0216 71.1548C16.7932 71.0602 16.598 70.9 16.4607 70.6945C16.3233 70.4889 16.25 70.2472 16.25 70C16.25 69.6685 16.3817 69.3505 16.6161 69.1161C16.8505 68.8817 17.1685 68.75 17.5 68.75Z" fill="#4C858B"/>
<path d="M35 25H37.5V27.5H35V25Z" fill="#4C858B"/>
<path d="M39.6008 38.6248L41.3686 36.857L43.1364 38.6248L41.3686 40.3925L39.6008 38.6248Z" fill="#4C858B"/>
<path d="M52.5 42.5H55V45H52.5V42.5Z" fill="#4C858B"/>
<path d="M64.3469 38.6274L66.1147 36.8597L67.8825 38.6274L66.1147 40.3952L64.3469 38.6274Z" fill="#4C858B"/>
<path d="M70 25H72.5V27.5H70V25Z" fill="#4C858B"/>
<path d="M64.3496 13.8813L66.1174 12.1136L67.8851 13.8813L66.1174 15.6491L64.3496 13.8813Z" fill="#4C858B"/>
</svg>
