<svg width="23" height="21" viewBox="0 0 23 21" fill="none" xmlns="http://www.w3.org/2000/svg">
<path d="M11.5 20.7204C11.1725 20.7204 10.8569 20.6018 10.6108 20.3863C9.6817 19.5739 8.78589 18.8104 7.99555 18.1369L7.99152 18.1334C5.67436 16.1588 3.67341 14.4535 2.28118 12.7736C0.72489 10.8957 0 9.11514 0 7.16999C0 5.28011 0.648032 3.53658 1.8246 2.26035C3.0152 0.969017 4.64888 0.257812 6.42522 0.257812C7.75287 0.257812 8.96874 0.677551 10.039 1.50527C10.5791 1.92308 11.0687 2.43442 11.5 3.03086C11.9315 2.43442 12.4209 1.92308 12.9612 1.50527C14.0314 0.677551 15.2473 0.257812 16.5749 0.257812C18.3511 0.257812 19.9849 0.969017 21.1755 2.26035C22.3521 3.53658 23 5.28011 23 7.16999C23 9.11514 22.2752 10.8957 20.7189 12.7735C19.3267 14.4535 17.3259 16.1586 15.0091 18.133C14.2174 18.8076 13.3202 19.5723 12.3889 20.3867C12.1431 20.6018 11.8272 20.7204 11.5 20.7204ZM6.42522 1.60512C5.02966 1.60512 3.74764 2.16208 2.81498 3.17352C1.86847 4.20023 1.34713 5.61948 1.34713 7.16999C1.34713 8.80595 1.95515 10.2691 3.31842 11.914C4.63607 13.504 6.59596 15.1742 8.86521 17.1081L8.86942 17.1116C9.66275 17.7877 10.5621 18.5542 11.498 19.3726C12.4397 18.5526 13.3404 17.7849 14.1353 17.1077C16.4044 15.1738 18.3641 13.504 19.6817 11.914C21.0448 10.2691 21.6528 8.80595 21.6528 7.16999C21.6528 5.61948 21.1315 4.20023 20.185 3.17352C19.2525 2.16208 17.9703 1.60512 16.5749 1.60512C15.5526 1.60512 14.614 1.9301 13.7852 2.57094C13.0466 3.14229 12.5321 3.86455 12.2305 4.36992C12.0754 4.6298 11.8023 4.78492 11.5 4.78492C11.1976 4.78492 10.9246 4.6298 10.7695 4.36992C10.468 3.86455 9.95351 3.14229 9.21476 2.57094C8.38599 1.9301 7.44737 1.60512 6.42522 1.60512Z" fill="#E33E54"/>
</svg>
