<svg width="15" height="16" viewBox="0 0 15 16" xmlns="http://www.w3.org/2000/svg">
<path d="M10.9396 0H4.06036C1.82144 0 0 1.94287 0 4.33105V11.669C0 14.0571 1.82144 16 4.06036 16H10.9397C13.1785 16 15 14.0571 15 11.669V4.33105C15 1.94287 13.1785 0 10.9396 0V0ZM7.49999 12.3749C5.23841 12.3749 3.39855 10.4123 3.39855 7.99998C3.39855 5.58764 5.23841 3.62512 7.49999 3.62512C9.76156 3.62512 11.6014 5.58764 11.6014 7.99998C11.6014 10.4123 9.76156 12.3749 7.49999 12.3749ZM11.6995 4.65685C11.0312 4.65685 10.4876 4.07702 10.4876 3.36413C10.4876 2.65124 11.0312 2.07129 11.6995 2.07129C12.3678 2.07129 12.9115 2.65124 12.9115 3.36413C12.9115 4.07702 12.3678 4.65685 11.6995 4.65685Z" />
<path d="M7.49991 4.56311C5.72333 4.56311 4.27783 6.10486 4.27783 7.99999C4.27783 9.89501 5.72333 11.4369 7.49991 11.4369C9.2766 11.4369 10.722 9.89501 10.722 7.99999C10.722 6.10486 9.2766 4.56311 7.49991 4.56311Z" />
<path d="M11.6995 3.0094C11.5162 3.0094 11.3669 3.16858 11.3669 3.36413C11.3669 3.55969 11.5162 3.71887 11.6995 3.71887C11.883 3.71887 12.0322 3.55981 12.0322 3.36413C12.0322 3.16846 11.883 3.0094 11.6995 3.0094Z" />
</svg>
