<svg width="22" height="22" viewBox="0 0 22 22" fill="none" xmlns="http://www.w3.org/2000/svg">
<g clip-path="url(#clip0_128_1405)">
<path d="M21.7312 20.4352L15.475 14.179C16.6868 12.6821 17.4165 10.78 17.4165 8.70838C17.4165 3.90693 13.5097 0.00012207 8.70822 0.00012207C3.90677 0.00012207 0 3.90689 0 8.70834C0 13.5098 3.90681 17.4166 8.70826 17.4166C10.7799 17.4166 12.682 16.687 14.1789 15.4751L20.4351 21.7313C20.6138 21.9101 20.8484 21.9999 21.0831 21.9999C21.3178 21.9999 21.5525 21.9101 21.7312 21.7313C22.0896 21.3729 22.0896 20.7936 21.7312 20.4352ZM8.70826 15.5833C4.91695 15.5833 1.83333 12.4997 1.83333 8.70834C1.83333 4.91703 4.91695 1.83341 8.70826 1.83341C12.4996 1.83341 15.5832 4.91703 15.5832 8.70834C15.5832 12.4997 12.4995 15.5833 8.70826 15.5833Z" fill="#4C858B"/>
</g>
<defs>
<clipPath id="clip0_128_1405">
<rect width="22" height="22" fill="white"/>
</clipPath>
</defs>
</svg>
