<svg width="12" height="17" viewBox="0 0 12 17" fill="none" xmlns="http://www.w3.org/2000/svg">
<path d="M6.35573 0.523438C3.3011 0.523438 0.815918 3.00861 0.815918 6.06324C0.815918 9.90257 6.36118 16.4609 6.36118 16.4609C6.36118 16.4609 11.8955 9.71376 11.8955 6.06324C11.8955 3.00861 9.41046 0.523438 6.35573 0.523438ZM8.02721 7.68529C7.56632 8.14608 6.96107 8.37653 6.35573 8.37653C5.75049 8.37653 5.14505 8.14608 4.68435 7.68529C3.76267 6.76371 3.76267 5.26412 4.68435 4.34244C5.13065 3.89595 5.72432 3.65004 6.35573 3.65004C6.98714 3.65004 7.58072 3.89605 8.02721 4.34244C8.94889 5.26412 8.94889 6.76371 8.02721 7.68529Z" fill="#4C858B"/>
</svg>
