<svg width="12" height="12" viewBox="0 0 12 12"  xmlns="http://www.w3.org/2000/svg">
<path d="M9.33333 5.53176L3.99318 0.191706C3.86967 0.068097 3.70479 0 3.52899 0C3.35319 0 3.18831 0.068097 3.0648 0.191706L2.67153 0.584873C2.41563 0.841066 2.41563 1.25745 2.67153 1.51326L7.15579 5.99751L2.66656 10.4867C2.54305 10.6104 2.47485 10.7751 2.47485 10.9508C2.47485 11.1267 2.54305 11.2915 2.66656 11.4152L3.05982 11.8083C3.18343 11.9319 3.34821 12 3.52402 12C3.69982 12 3.8647 11.9319 3.98821 11.8083L9.33333 6.46336C9.45714 6.33936 9.52514 6.1738 9.52475 5.99781C9.52514 5.82112 9.45714 5.65566 9.33333 5.53176Z"/>
</svg>
