<svg width="75" height="75" viewBox="0 0 75 75" fill="none" xmlns="http://www.w3.org/2000/svg">
<path d="M54.4198 53.1854L52.6741 51.4396L66.6137 37.5L32.0512 2.9375H11.5782V7.875H14.2593C14.5505 7.05141 15.1234 6.35727 15.8769 5.91527C16.6304 5.47327 17.5158 5.31186 18.3768 5.45958C19.2378 5.6073 20.0188 6.05463 20.5819 6.72251C21.1449 7.3904 21.4537 8.23582 21.4537 9.10938C21.4537 9.98293 21.1449 10.8284 20.5819 11.4962C20.0188 12.1641 19.2378 12.6115 18.3768 12.7592C17.5158 12.9069 16.6304 12.7455 15.8769 12.3035C15.1234 11.8615 14.5505 11.1673 14.2593 10.3438H11.5782V23.4105L35.9042 47.7365L34.1585 49.4822L9.47097 24.7947C9.35635 24.6801 9.26543 24.544 9.2034 24.3943C9.14137 24.2445 9.10944 24.084 9.10945 23.9219V17.75H5.40633C4.09682 17.75 2.84095 17.2298 1.91499 16.3038C0.989029 15.3779 0.468826 14.122 0.468826 12.8125C0.468826 11.503 0.989029 10.2471 1.91499 9.32116C2.84095 8.3952 4.09682 7.875 5.40633 7.875H9.10945V1.70312C9.10945 1.37575 9.2395 1.06178 9.47099 0.83029C9.70248 0.5988 10.0164 0.46875 10.3438 0.46875H32.5626C32.7247 0.468744 32.8852 0.500667 33.035 0.562696C33.1847 0.624726 33.3208 0.715647 33.4354 0.830268L69.2323 36.6271C69.3469 36.7418 69.4379 36.8778 69.4999 37.0276C69.5619 37.1774 69.5939 37.3379 69.5939 37.5C69.5939 37.6621 69.5619 37.8226 69.4999 37.9724C69.4379 38.1222 69.3469 38.2582 69.2323 38.3729L54.4198 53.1854ZM18.9845 9.10938C18.9841 8.78211 18.8539 8.46836 18.6225 8.23695C18.3911 8.00554 18.0773 7.87537 17.7501 7.875V10.3438C18.0773 10.3434 18.3911 10.2132 18.6225 9.9818C18.8539 9.75039 18.9841 9.43664 18.9845 9.10938ZM5.40633 10.3438C4.75157 10.3438 4.12363 10.6039 3.66065 11.0668C3.19767 11.5298 2.93758 12.1577 2.93758 12.8125C2.93758 13.4673 3.19767 14.0952 3.66065 14.5582C4.12363 15.0211 4.75157 15.2812 5.40633 15.2812H9.10945V10.3438H5.40633Z" fill="#4C858B"/>
<path d="M41.0202 24.8251C40.8337 25.421 40.5081 25.9639 40.0702 26.4091C39.6323 26.8542 39.0948 27.1887 38.5021 27.385C38.4855 27.9714 38.3345 28.5461 38.0606 29.0649C37.7867 29.5836 37.3973 30.0325 36.9224 30.3768C36.4124 30.7626 35.8186 31.0226 35.1893 31.1357C34.5599 31.2489 33.9128 31.2119 33.3004 31.028C32.9145 31.507 32.4261 31.8935 31.8712 32.159C31.3163 32.4246 30.709 32.5624 30.0938 32.5624C29.4786 32.5624 28.8713 32.4246 28.3164 32.159C27.7615 31.8935 27.2731 31.507 26.8872 31.028C26.2748 31.2119 25.6277 31.2488 24.9983 31.1357C24.369 31.0226 23.7752 30.7626 23.2652 30.3768C22.7903 30.0325 22.4009 29.5836 22.127 29.0649C21.8531 28.5461 21.7021 27.9714 21.6855 27.385C21.0928 27.1887 20.5553 26.8542 20.1174 26.4091C19.6796 25.9639 19.3539 25.421 19.1674 24.8251C18.9823 24.2622 18.9323 23.6636 19.0214 23.0778C19.1106 22.492 19.3363 21.9355 19.6805 21.4531C19.3363 20.9707 19.1106 20.4141 19.0214 19.8283C18.9323 19.2425 18.9823 18.644 19.1674 18.0811C19.3539 17.4852 19.6796 16.9422 20.1174 16.4971C20.5553 16.052 21.0928 15.7174 21.6855 15.5211C21.7021 14.9348 21.8531 14.36 22.127 13.8413C22.4009 13.3225 22.7903 12.8737 23.2652 12.5293C23.7752 12.1435 24.369 11.8835 24.9983 11.7704C25.6277 11.6572 26.2748 11.6942 26.8872 11.8782C27.2731 11.3991 27.7615 11.0127 28.3164 10.7471C28.8713 10.4816 29.4786 10.3438 30.0938 10.3438C30.709 10.3438 31.3163 10.4816 31.8712 10.7471C32.4261 11.0127 32.9145 11.3991 33.3004 11.8782C33.9128 11.6942 34.5599 11.6573 35.1893 11.7704C35.8186 11.8836 36.4124 12.1436 36.9224 12.5293C37.3973 12.8737 37.7867 13.3226 38.0606 13.8413C38.3345 14.36 38.4855 14.9348 38.5021 15.5211C39.0948 15.7174 39.6323 16.052 40.0702 16.4971C40.5081 16.9422 40.8337 17.4852 41.0202 18.0811C41.2053 18.644 41.2553 19.2425 41.1662 19.8283C41.077 20.4141 40.8513 20.9707 40.5071 21.4531C40.8513 21.9355 41.077 22.492 41.1662 23.0778C41.2553 23.6636 41.2053 24.2622 41.0202 24.8251ZM38.0696 20.4235C38.3364 20.2647 38.541 20.0195 38.6494 19.7285C38.7578 19.4375 38.7636 19.1182 38.6658 18.8236C38.5653 18.5015 38.3589 18.2229 38.0801 18.0329C37.8013 17.8429 37.4665 17.7528 37.13 17.7771C36.9284 17.7825 36.7286 17.7384 36.548 17.6487C36.3673 17.559 36.2115 17.4264 36.0939 17.2625C35.9764 17.0986 35.9008 16.9085 35.8738 16.7086C35.8467 16.5088 35.8691 16.3053 35.9389 16.1161C36.0477 15.8308 36.058 15.5173 35.9681 15.2254C35.8782 14.9336 35.6933 14.6802 35.4428 14.5056C35.1667 14.2887 34.826 14.1703 34.4749 14.1692C34.1237 14.1681 33.7823 14.2844 33.5048 14.4995C33.3461 14.6174 33.1613 14.6955 32.9661 14.7271C32.7709 14.7587 32.571 14.7429 32.3832 14.6811C32.1953 14.6193 32.0251 14.5133 31.8867 14.372C31.7484 14.2307 31.6461 14.0582 31.5883 13.8691C31.3504 13.0902 30.6602 12.8125 30.0938 12.8125C29.5274 12.8125 28.8372 13.0902 28.5993 13.8691C28.5415 14.0582 28.4392 14.2307 28.3009 14.372C28.1625 14.5133 27.9923 14.6193 27.8045 14.6811C27.6166 14.7429 27.4167 14.7587 27.2215 14.7271C27.0263 14.6955 26.8415 14.6174 26.6828 14.4995C26.4054 14.2842 26.0639 14.1678 25.7127 14.1689C25.3616 14.17 25.0208 14.2885 24.7448 14.5056C24.4943 14.6802 24.3094 14.9336 24.2195 15.2254C24.1296 15.5173 24.1399 15.8308 24.2487 16.1161C24.3185 16.3053 24.3409 16.5088 24.3138 16.7086C24.2868 16.9085 24.2112 17.0986 24.0937 17.2625C23.9762 17.4264 23.8203 17.559 23.6396 17.6487C23.459 17.7384 23.2592 17.7825 23.0576 17.7771C22.7212 17.7534 22.3866 17.8438 22.108 18.0336C21.8293 18.2235 21.6228 18.5018 21.5218 18.8236C21.424 19.1182 21.4298 19.4375 21.5382 19.7285C21.6466 20.0195 21.8512 20.2647 22.118 20.4235C22.2882 20.536 22.4278 20.6889 22.5244 20.8686C22.621 21.0483 22.6716 21.2491 22.6716 21.4531C22.6716 21.6571 22.621 21.8579 22.5244 22.0376C22.4278 22.2172 22.2882 22.3702 22.118 22.4827C21.8512 22.6415 21.6466 22.8867 21.5382 23.1777C21.4298 23.4686 21.424 23.7879 21.5218 24.0826C21.6224 24.4046 21.8289 24.6831 22.1076 24.873C22.3864 25.063 22.7211 25.1532 23.0576 25.129C23.2592 25.1237 23.459 25.1677 23.6396 25.2574C23.8203 25.3471 23.9762 25.4797 24.0937 25.6436C24.2112 25.8075 24.2868 25.9977 24.3138 26.1975C24.3409 26.3974 24.3185 26.6008 24.2487 26.7901C24.1399 27.0754 24.1296 27.3889 24.2195 27.6807C24.3094 27.9726 24.4943 28.226 24.7448 28.4006C25.0209 28.6175 25.3616 28.7359 25.7127 28.737C26.0639 28.7381 26.4053 28.6218 26.6828 28.4066C26.8415 28.2887 27.0263 28.2107 27.2215 28.1791C27.4167 28.1475 27.6166 28.1632 27.8045 28.225C27.9923 28.2868 28.1625 28.3928 28.3009 28.5342C28.4392 28.6755 28.5415 28.848 28.5993 29.0371C28.8372 29.816 29.5274 30.0937 30.0938 30.0937C30.6602 30.0937 31.3504 29.816 31.5883 29.0371C31.6461 28.848 31.7484 28.6755 31.8867 28.5342C32.0251 28.3928 32.1953 28.2868 32.3832 28.225C32.571 28.1632 32.7709 28.1475 32.9661 28.1791C33.1613 28.2107 33.3461 28.2887 33.5048 28.4066C33.7823 28.6217 34.1237 28.738 34.4749 28.7369C34.826 28.7358 35.1667 28.6174 35.4428 28.4006C35.6933 28.226 35.8782 27.9726 35.9681 27.6807C36.058 27.3889 36.0477 27.0754 35.9389 26.7901C35.8691 26.6008 35.8467 26.3974 35.8738 26.1975C35.9008 25.9977 35.9764 25.8075 36.0939 25.6436C36.2115 25.4797 36.3673 25.3471 36.548 25.2574C36.7286 25.1677 36.9284 25.1237 37.13 25.129C37.4666 25.1536 37.8015 25.0636 38.0804 24.8736C38.3592 24.6836 38.5655 24.4048 38.6658 24.0826C38.7636 23.7879 38.7578 23.4686 38.6494 23.1777C38.541 22.8867 38.3364 22.6415 38.0696 22.4827C37.8994 22.3702 37.7598 22.2172 37.6632 22.0376C37.5666 21.8579 37.516 21.6571 37.516 21.4531C37.516 21.2491 37.5666 21.0483 37.6632 20.8686C37.7598 20.6889 37.8994 20.536 38.0696 20.4235Z" fill="#4C858B"/>
<path d="M55.6541 30.4553L63.0603 37.8616L61.3146 39.6072L53.9084 32.201L55.6541 30.4553Z" fill="#4C858B"/>
<path d="M51.9511 34.1585L59.3573 41.5647L57.6116 43.3104L50.2054 35.9041L51.9511 34.1585Z" fill="#4C858B"/>
<path d="M48.2478 37.8616L55.6541 45.2678L53.9084 47.0135L46.5022 39.6073L48.2478 37.8616Z" fill="#4C858B"/>
<path d="M44.5447 41.5647L51.9509 48.9709L50.2053 50.7166L42.799 43.3104L44.5447 41.5647Z" fill="#4C858B"/>
<path d="M40.8417 45.2678L44.5448 48.9709L42.7991 50.7166L39.096 47.0135L40.8417 45.2678Z" fill="#4C858B"/>
<path d="M46.5021 24.2834L48.2478 26.0291L45.239 29.0378L43.4934 27.2922L46.5021 24.2834Z" fill="#4C858B"/>
<path d="M41.8732 28.9125L43.6189 30.6582L35.904 38.3731L34.1584 36.6274L41.8732 28.9125Z" fill="#4C858B"/>
<path d="M61.2525 9.07261C59.9774 9.38993 58.8128 10.0485 57.8837 10.9776C56.9546 11.9067 56.2961 13.0713 55.9788 14.3463C55.912 14.6134 55.7578 14.8504 55.5409 15.0198C55.3239 15.1892 55.0565 15.2812 54.7813 15.2812C54.506 15.2812 54.2386 15.1892 54.0216 15.0198C53.8047 14.8504 53.6505 14.6134 53.5838 14.3463C53.2664 13.0713 52.6079 11.9067 51.6788 10.9776C50.7497 10.0485 49.5851 9.38993 48.31 9.07261C48.043 9.00583 47.8059 8.8517 47.6365 8.63473C47.4672 8.41775 47.3751 8.15038 47.3751 7.87511C47.3751 7.59984 47.4672 7.33247 47.6365 7.1155C47.8059 6.89852 48.043 6.7444 48.31 6.67761C49.5851 6.3603 50.7497 5.70175 51.6788 4.77264C52.6079 3.84354 53.2664 2.67896 53.5838 1.4039C53.6505 1.13686 53.8047 0.899797 54.0216 0.730401C54.2386 0.561005 54.506 0.468994 54.7813 0.468994C55.0565 0.468994 55.3239 0.561005 55.5409 0.730401C55.7578 0.899797 55.912 1.13686 55.9788 1.4039C56.2961 2.67896 56.9546 3.84354 57.8837 4.77264C58.8128 5.70175 59.9774 6.3603 61.2525 6.67761C61.5195 6.7444 61.7566 6.89852 61.926 7.1155C62.0954 7.33247 62.1874 7.59984 62.1874 7.87511C62.1874 8.15038 62.0954 8.41775 61.926 8.63473C61.7566 8.8517 61.5195 9.00583 61.2525 9.07261ZM54.7813 4.81695C54.0053 6.05376 52.9599 7.09919 51.7231 7.87511C52.9599 8.65103 54.0053 9.69647 54.7813 10.9333C55.5572 9.69647 56.6026 8.65103 57.8394 7.87511C56.6026 7.09919 55.5572 6.05376 54.7813 4.81695Z" fill="#4C858B"/>
<path d="M15.4853 34.7242L24.7946 44.0334L23.0489 45.7791L13.7397 36.4699L15.4853 34.7242Z" fill="#4C858B"/>
<path d="M11.2166 30.4554L13.6853 32.9241L11.9396 34.6697L9.47093 32.201L11.2166 30.4554Z" fill="#4C858B"/>
<path d="M1.70312 49.8438H12.8125C13.1399 49.8438 13.4538 49.9738 13.6853 50.2053C13.9168 50.4368 14.0469 50.7508 14.0469 51.0781V52.248C17.0427 50.0952 20.5912 48.843 24.2746 48.639C27.9581 48.435 31.6231 49.2876 34.8384 51.0964L37.0004 52.3125H47.375C48.4982 52.312 49.6002 52.6182 50.5622 53.198C51.5242 53.7779 52.3097 54.6093 52.8339 55.6027C53.358 56.5961 53.6011 57.7137 53.5367 58.8351C53.4724 59.9565 53.1032 61.039 52.4688 61.966L65.6346 55.425C66.4222 55.0351 67.2877 54.8285 68.1664 54.8205L68.697 54.8165C70.0051 54.8064 71.278 55.2396 72.3084 56.0456C73.3388 56.8515 74.066 57.9825 74.3714 59.2545C74.6768 60.5265 74.5424 61.8644 73.9902 63.0503C73.4381 64.2362 72.5006 65.2001 71.3305 65.7851L56.184 73.3586C54.6406 74.128 52.9401 74.5294 51.2156 74.5313H1.70312C1.37575 74.5313 1.06178 74.4012 0.830292 74.1697C0.598801 73.9382 0.46875 73.6243 0.46875 73.2969V51.0781C0.46875 50.7508 0.598801 50.4368 0.830292 50.2053C1.06178 49.9738 1.37575 49.8438 1.70312 49.8438ZM55.08 71.1503L70.2264 63.577C70.8955 63.2424 71.4322 62.6917 71.7493 62.0141C72.0664 61.3365 72.1455 60.5717 71.9737 59.8436C71.8019 59.1154 71.3892 58.4666 70.8026 58.0022C70.2161 57.5379 69.4899 57.2852 68.7417 57.285H68.7156L68.1853 57.2891C67.6813 57.2937 67.1848 57.4122 66.7331 57.6358L52.8618 64.5273C52.6911 64.612 52.5031 64.6562 52.3125 64.6563H36.2656C35.9382 64.6563 35.6243 64.5262 35.3928 64.2947C35.1613 64.0632 35.0312 63.7493 35.0312 63.4219C35.0312 63.0945 35.1613 62.7806 35.3928 62.5491C35.6243 62.3176 35.9382 62.1875 36.2656 62.1875H47.375C48.3571 62.1875 49.299 61.7974 49.9935 61.1029C50.688 60.4084 51.0781 59.4665 51.0781 58.4844C51.0781 57.5023 50.688 56.5604 49.9935 55.8659C49.299 55.1714 48.3571 54.7813 47.375 54.7813H36.6771C36.4652 54.7813 36.2567 54.7267 36.072 54.6228L33.6281 53.248C30.6927 51.597 27.3309 50.8608 23.9742 51.134C20.6175 51.4072 17.419 52.6773 14.7892 54.7813L14.0469 55.3745V72.0625H51.2158C52.557 72.0609 53.8796 71.7487 55.08 71.1503ZM2.9375 72.0625H11.5781V52.3125H2.9375V72.0625Z" fill="#4C858B"/>
<path d="M7.25781 68.3594C6.89161 68.3594 6.53363 68.2508 6.22914 68.0473C5.92465 67.8439 5.68733 67.5547 5.54719 67.2164C5.40705 66.878 5.37039 66.5058 5.44183 66.1466C5.51327 65.7874 5.68961 65.4575 5.94856 65.1986C6.2075 64.9396 6.53742 64.7633 6.89659 64.6918C7.25576 64.6204 7.62804 64.6571 7.96637 64.7972C8.3047 64.9373 8.59388 65.1747 8.79733 65.4791C9.00078 65.7836 9.10938 66.1416 9.10938 66.5078C9.10884 66.9987 8.9136 67.4694 8.56648 67.8165C8.21936 68.1636 7.74871 68.3588 7.25781 68.3594Z" fill="#4C858B"/>
<path d="M48.971 29.2209L50.7167 30.9666L40.8416 40.8416L39.096 39.0959L48.971 29.2209Z" fill="#4C858B"/>
</svg>
