<svg width="25" height="25" viewBox="0 0 25 25" xmlns="http://www.w3.org/2000/svg">
<g clip-path="url(#clip0_141_58)">
<path d="M24.9591 15.244L24.9629 15.2428L20.8583 6.287L21.8537 5.79159L21.4812 5.04576L20.5108 5.52909L20.3796 5.24284C20.2836 5.03368 20.0363 4.94186 19.8272 5.03774C19.7364 5.07936 19.6637 5.15212 19.6221 5.24284L19.505 5.49867C18.7987 5.17066 18.0295 5.00045 17.2508 4.99993H13.7509V4.1666H14.5842V3.33328H13.868L14.1675 2.13454C14.3975 1.21408 13.8378 0.281427 12.9174 0.0513764C11.9969 -0.178622 11.0643 0.381061 10.8342 1.30152C10.7659 1.57496 10.7659 1.86105 10.8342 2.13448L11.1338 3.33322H10.4176V4.16655H11.2509V4.99988H7.753C6.97353 5.0005 6.20354 5.17113 5.49677 5.49987L5.37969 5.24404C5.2838 5.03488 5.03646 4.94305 4.8273 5.03894C4.73657 5.08055 4.66381 5.15331 4.62219 5.24404L4.49094 5.53029L3.52054 5.04488L3.14804 5.79154L4.14345 6.28903L0.0388984 15.2428C0.0135862 15.2972 0.000669603 15.3565 0.0009821 15.4165C0.002805 17.0265 1.30759 18.3313 2.91762 18.3332H7.08426C8.69429 18.3313 9.99908 17.0265 10.0009 15.4165C9.99986 15.3567 9.98564 15.2978 9.95923 15.244L5.84343 6.2545C6.44171 5.9768 7.09342 5.83305 7.753 5.83326H11.2509V21.0773L9.8284 22.4998H8.33425C7.18426 22.5011 6.25228 23.4331 6.25093 24.5831C6.25093 24.8132 6.43749 24.9998 6.66759 24.9998H18.3342C18.5643 24.9998 18.7508 24.8132 18.7508 24.5831C18.7495 23.4331 17.8175 22.5011 16.6675 22.4998H15.1734L13.7509 21.0773V5.83326H17.2508C17.9104 5.83305 18.5621 5.9768 19.1604 6.2545L15.0388 15.2428C15.0135 15.2972 15.0005 15.3565 15.0009 15.4165C15.0027 17.0265 16.3075 18.3313 17.9175 18.3332H22.0841C23.6942 18.3313 24.999 17.0265 25.0008 15.4165C24.9998 15.3567 24.9856 15.2978 24.9591 15.244ZM7.08426 17.4998H2.91762C1.92795 17.4987 1.07519 16.8026 0.875975 15.8332H9.12591C8.92674 16.8026 8.07394 17.4987 7.08426 17.4998ZM8.93507 14.9998H1.06681L4.89427 6.6495C4.96417 6.66825 5.03771 6.66825 5.10761 6.6495L8.93507 14.9998ZM11.8038 1.17329C12.1283 0.788297 12.7034 0.739287 13.0884 1.06376C13.128 1.0971 13.1646 1.13376 13.198 1.17329C13.3665 1.38767 13.426 1.66808 13.3592 1.93245L13.0088 3.33328H11.993L11.6426 1.93245C11.5757 1.66808 11.6353 1.38767 11.8038 1.17329ZM12.0842 4.99993V4.1666H12.9175V4.99993H12.0842ZM12.9175 5.83326V20.8331H12.0842V5.83326H12.9175ZM16.6675 23.3331C17.1971 23.3337 17.669 23.6674 17.8463 24.1664H7.15551C7.33274 23.6674 7.80467 23.3337 8.33425 23.3331H16.6675ZM13.995 22.4998H11.0067L11.84 21.6665H13.1617L13.995 22.4998ZM19.8933 6.65075C19.9621 6.67497 20.0376 6.67184 20.1041 6.642L23.9349 14.9998H16.0667L19.8933 6.65075ZM22.0841 17.4998H17.9175C16.9278 17.4987 16.0751 16.8026 15.8758 15.8332H24.1258C23.9266 16.8026 23.0738 17.4987 22.0841 17.4998Z"/>
</g>
<defs>
<clipPath id="clip0_141_58">
<rect width="25" height="25" fill="white"/>
</clipPath>
</defs>
</svg>
