<svg width="26" height="26" viewBox="0 0 26 26" xmlns="http://www.w3.org/2000/svg">
<path d="M1.77369 21.8633H5.91013V25.4092C5.91013 25.5817 5.96532 25.7229 6.07638 25.8333C6.18713 25.9444 6.32872 26 6.5012 26H9.58484C9.74488 26 9.88336 25.9444 10.0003 25.8333C10.1173 25.7229 10.1756 25.5817 10.1756 25.4092V21.8633H19.5009C19.673 21.8633 19.8146 21.8084 19.9256 21.6973C20.0367 21.5863 20.0919 21.445 20.0919 21.2724V18.9087C20.0919 18.7372 20.0367 18.595 19.9256 18.4846C19.8149 18.3734 19.673 18.3179 19.5009 18.3179H10.1753V16.1388H16.4537C18.9157 16.1388 20.9251 15.3886 22.4828 13.8861C24.0399 12.3852 24.8189 10.4463 24.8189 8.06941C24.8189 5.69411 24.0399 3.7552 22.4828 2.25272C20.9254 0.751723 18.9157 0 16.4537 0H6.50089C6.32837 0 6.18708 0.0555038 6.07608 0.165951C5.96532 0.277009 5.90982 0.419209 5.90982 0.590767V12.2061H1.77369C1.60121 12.2061 1.45988 12.2645 1.34887 12.3814C1.23817 12.4983 1.18262 12.6368 1.18262 12.7968V15.548C1.18262 15.7205 1.23782 15.8618 1.34887 15.9728C1.45993 16.0839 1.60091 16.1388 1.77369 16.1388H5.91013V18.3178H1.77369C1.60121 18.3178 1.45988 18.3734 1.34887 18.4845C1.23817 18.5949 1.18262 18.7368 1.18262 18.9087V21.2724C1.18262 21.4449 1.23782 21.5862 1.34887 21.6973C1.45988 21.8084 1.60116 21.8633 1.77369 21.8633ZM10.1753 3.93364H16.0844C17.3892 3.93364 18.4416 4.31513 19.242 5.07837C20.042 5.84166 20.4422 6.83915 20.4422 8.06972C20.4422 9.30089 20.042 10.2987 19.242 11.0611C18.4416 11.825 17.3891 12.2065 16.0844 12.2065H10.1753V3.93364Z"/>
</svg>
