<svg width="24" height="24" viewBox="0 0 24 24" xmlns="http://www.w3.org/2000/svg">
<g clip-path="url(#clip0_52_10)">
<path d="M23.6437 8.67485C23.3268 8.27726 22.8513 8.04917 22.3392 8.04917H17.7171L15.2108 2.31012C15.0554 1.95429 14.6409 1.79168 14.285 1.94717C13.9291 2.10256 13.7666 2.51707 13.9221 2.87295L16.1826 8.04921H7.81739L10.0779 2.87295C10.2333 2.51707 10.0709 2.1026 9.71499 1.94717C9.35916 1.79168 8.94464 1.9542 8.78925 2.31012L6.28289 8.04921H1.66083C1.14867 8.04921 0.673222 8.27726 0.3563 8.6749C0.0451904 9.06528 -0.0696064 9.56712 0.0413467 10.0519L2.50964 20.8332C2.682 21.586 3.34796 22.1117 4.12913 22.1117H19.8709C20.6521 22.1117 21.318 21.586 21.4904 20.8332L23.9587 10.0519C24.0696 9.56707 23.9548 9.06523 23.6437 8.67485ZM19.8709 20.7054H4.12913C4.00974 20.7054 3.90516 20.6271 3.88046 20.5192L1.41216 9.73807C1.3928 9.65346 1.42528 9.58981 1.45603 9.55132C1.48453 9.51551 1.54908 9.45546 1.66083 9.45546H5.66878L5.48461 9.8772C5.32922 10.2331 5.49169 10.6475 5.84757 10.803C5.93916 10.843 6.0346 10.8619 6.12858 10.8619C6.39961 10.8619 6.65789 10.7043 6.7733 10.4401L7.20328 9.45556H16.7968L17.2268 10.4401C17.3422 10.7044 17.6005 10.8619 17.8715 10.8619C17.9655 10.8619 18.0609 10.843 18.1525 10.803C18.5084 10.6476 18.6709 10.2331 18.5155 9.8772L18.3313 9.45546H22.3393C22.451 9.45546 22.5156 9.51551 22.5441 9.55132C22.5748 9.58985 22.6073 9.65351 22.5879 9.73803L20.1196 20.5193C20.0949 20.6271 19.9903 20.7054 19.8709 20.7054Z"/>
<path d="M7.78125 12.5023C7.39294 12.5023 7.07812 12.8171 7.07812 13.2054V18.3617C7.07812 18.75 7.39294 19.0648 7.78125 19.0648C8.16956 19.0648 8.48438 18.75 8.48438 18.3617V13.2054C8.48438 12.8171 8.16961 12.5023 7.78125 12.5023Z"/>
<path d="M12 12.5023C11.6117 12.5023 11.2969 12.8171 11.2969 13.2054V18.3617C11.2969 18.75 11.6117 19.0648 12 19.0648C12.3883 19.0648 12.7031 18.75 12.7031 18.3617V13.2054C12.7031 12.8171 12.3883 12.5023 12 12.5023Z"/>
<path d="M16.2188 12.5023C15.8304 12.5023 15.5156 12.8171 15.5156 13.2054V18.3617C15.5156 18.75 15.8304 19.0648 16.2188 19.0648C16.6071 19.0648 16.9219 18.75 16.9219 18.3617V13.2054C16.9218 12.8171 16.6071 12.5023 16.2188 12.5023Z"/>
</g>
<defs>
<clipPath id="clip0_52_10">
<rect width="24" height="24"/>
</clipPath>
</defs>
</svg>
