<svg width="18" height="22" viewBox="0 0 18 22" fill="none" xmlns="http://www.w3.org/2000/svg">
<path d="M16.2188 2.75H12.4375V2.0625C12.4375 0.925246 11.5123 0 10.375 0H7.625C6.48775 0 5.5625 0.925246 5.5625 2.0625V2.75H1.78125C0.833531 2.75 0.0625 3.52103 0.0625 4.46875V6.875C0.0625 7.25467 0.370328 7.5625 0.75 7.5625H1.12572L1.71968 20.0356C1.77214 21.1371 2.67706 22 3.77981 22H14.2202C15.323 22 16.2279 21.1371 16.2803 20.0356L16.8743 7.5625H17.25C17.6297 7.5625 17.9375 7.25467 17.9375 6.875V4.46875C17.9375 3.52103 17.1665 2.75 16.2188 2.75ZM6.9375 2.0625C6.9375 1.68343 7.24593 1.375 7.625 1.375H10.375C10.7541 1.375 11.0625 1.68343 11.0625 2.0625V2.75H6.9375V2.0625ZM1.4375 4.46875C1.4375 4.27921 1.59171 4.125 1.78125 4.125H16.2188C16.4083 4.125 16.5625 4.27921 16.5625 4.46875V6.1875C16.3506 6.1875 2.31548 6.1875 1.4375 6.1875V4.46875ZM14.9069 19.9702C14.8894 20.3374 14.5877 20.625 14.2202 20.625H3.77981C3.41221 20.625 3.11057 20.3374 3.09313 19.9702L2.50227 7.5625H15.4977L14.9069 19.9702Z" fill="#E33E54"/>
<path d="M9 19.25C9.37967 19.25 9.6875 18.9422 9.6875 18.5625V9.625C9.6875 9.24533 9.37967 8.9375 9 8.9375C8.62033 8.9375 8.3125 9.24533 8.3125 9.625V18.5625C8.3125 18.9422 8.62029 19.25 9 19.25Z" fill="#E33E54"/>
<path d="M12.4375 19.25C12.8172 19.25 13.125 18.9422 13.125 18.5625V9.625C13.125 9.24533 12.8172 8.9375 12.4375 8.9375C12.0578 8.9375 11.75 9.24533 11.75 9.625V18.5625C11.75 18.9422 12.0578 19.25 12.4375 19.25Z" fill="#E33E54"/>
<path d="M5.5625 19.25C5.94217 19.25 6.25 18.9422 6.25 18.5625V9.625C6.25 9.24533 5.94217 8.9375 5.5625 8.9375C5.18283 8.9375 4.875 9.24533 4.875 9.625V18.5625C4.875 18.9422 5.18279 19.25 5.5625 19.25Z" fill="#E33E54"/>
</svg>
