<svg width="20" height="12" viewBox="0 0 20 12" xmlns="http://www.w3.org/2000/svg">
<path d="M16.5958 6.85663C16.2725 6.44829 16.365 6.26663 16.5958 5.90163C16.6 5.89746 19.2692 2.20913 19.5442 0.958293L19.5458 0.957459C19.6825 0.501626 19.5458 0.166626 18.885 0.166626H16.6983C16.1417 0.166626 15.885 0.454126 15.7475 0.775793C15.7475 0.775793 14.6342 3.44079 13.0592 5.16829C12.5508 5.66746 12.3158 5.82746 12.0383 5.82746C11.9017 5.82746 11.6892 5.66746 11.6892 5.21163V0.957459C11.6892 0.410793 11.5333 0.166626 11.0725 0.166626H7.63417C7.285 0.166626 7.0775 0.421626 7.0775 0.659126C7.0775 1.17746 7.865 1.29663 7.94667 2.75496V5.91913C7.94667 6.61246 7.82083 6.73996 7.54167 6.73996C6.79833 6.73996 4.99417 4.06413 3.925 1.00163C3.70917 0.407459 3.49833 0.167459 2.9375 0.167459H0.75C0.125833 0.167459 0 0.454959 0 0.776626C0 1.34496 0.743333 4.17079 3.45667 7.90413C5.265 10.4525 7.81167 11.8333 10.1283 11.8333C11.5208 11.8333 11.6908 11.5266 11.6908 10.9991C11.6908 8.56413 11.565 8.33413 12.2625 8.33413C12.5858 8.33413 13.1425 8.49413 14.4425 9.72329C15.9283 11.1808 16.1725 11.8333 17.0042 11.8333H19.1908C19.8142 11.8333 20.13 11.5266 19.9483 10.9216C19.5325 9.64913 16.7225 7.03163 16.5958 6.85663V6.85663Z"/>
</svg>
