<svg width="25" height="25" viewBox="0 0 25 25" fill="none" xmlns="http://www.w3.org/2000/svg">
<path d="M24.1699 22.7588L18.8232 17.417C20.3467 15.5713 21.1768 13.2812 21.1768 10.8594C21.1768 8.10059 20.1025 5.5127 18.1543 3.55957C16.2061 1.61133 13.6133 0.537109 10.8545 0.537109C8.0957 0.537109 5.50781 1.61133 3.55469 3.55957C-0.46875 7.58301 -0.46875 14.1309 3.55469 18.1543C5.50293 20.1025 8.0957 21.1768 10.8545 21.1768C13.2764 21.1768 15.5713 20.3467 17.4121 18.8232L22.7588 24.1699C23.3203 24.6826 23.9209 24.4189 24.1699 24.1699C24.5557 23.7793 24.5557 23.1494 24.1699 22.7588ZM16.7432 16.748C15.1709 18.3203 13.0811 19.1895 10.8545 19.1895C8.62793 19.1895 6.53809 18.3252 4.96582 16.748C1.71875 13.501 1.71875 8.21777 4.96582 4.9707C6.53809 3.39844 8.62793 2.53418 10.8545 2.53418C13.0811 2.53418 15.1709 3.39844 16.7432 4.9707C18.3154 6.54297 19.1846 8.63281 19.1846 10.8594C19.1846 13.0811 18.3154 15.1758 16.7432 16.748Z" fill="#C4C4C4"/>
<path d="M15.6055 9.86328H11.8506V6.10352C11.8506 5.55176 11.4062 5.10742 10.8545 5.10742C10.3027 5.10742 9.85839 5.55176 9.85839 6.10352V9.86328H6.10351C5.55176 9.86328 5.10742 10.3076 5.10742 10.8594C5.10742 11.4111 5.55176 11.8555 6.10351 11.8555H9.85839V15.6104C9.85839 16.1621 10.3027 16.6064 10.8545 16.6064C11.4062 16.6064 11.8506 16.1621 11.8506 15.6104V11.8555H15.6055C16.1572 11.8555 16.6016 11.4111 16.6016 10.8594C16.6064 10.3076 16.1572 9.86328 15.6055 9.86328Z" fill="#C4C4C4"/>
</svg>
