<svg  class="hidden" width="0" height="0" xmlns="http://www.w3.org/2000/svg">
  <symbol class="header__social-vk" fill="none"  viewBox="0 0 20 12" id="vk">
    <path d="M16.5958 6.85663C16.2725 6.44829 16.365 6.26663 16.5958 5.90163C16.6 5.89746 19.2692 2.20913 19.5442 0.958293L19.5458 0.957459C19.6825 0.501626 19.5458 0.166626 18.885 0.166626H16.6983C16.1417 0.166626 15.885 0.454126 15.7475 0.775793C15.7475 0.775793 14.6342 3.44079 13.0592 5.16829C12.5508 5.66746 12.3158 5.82746 12.0383 5.82746C11.9017 5.82746 11.6892 5.66746 11.6892 5.21163V0.957459C11.6892 0.410793 11.5333 0.166626 11.0725 0.166626H7.63417C7.285 0.166626 7.0775 0.421626 7.0775 0.659126C7.0775 1.17746 7.865 1.29663 7.94667 2.75496V5.91913C7.94667 6.61246 7.82083 6.73996 7.54167 6.73996C6.79833 6.73996 4.99417 4.06413 3.925 1.00163C3.70917 0.407459 3.49833 0.167459 2.9375 0.167459H0.75C0.125833 0.167459 0 0.454959 0 0.776626C0 1.34496 0.743333 4.17079 3.45667 7.90413C5.265 10.4525 7.81167 11.8333 10.1283 11.8333C11.5208 11.8333 11.6908 11.5266 11.6908 10.9991C11.6908 8.56413 11.565 8.33413 12.2625 8.33413C12.5858 8.33413 13.1425 8.49413 14.4425 9.7233C15.9283 11.1808 16.1725 11.8333 17.0042 11.8333H19.1908C19.8142 11.8333 20.13 11.5266 19.9483 10.9216C19.5325 9.64913 16.7225 7.03163 16.5958 6.85663Z" fill="#4C858B"></path>
  </symbol>
  <symbol fill="none" viewBox="0 0 15 15" id="wall-clock">
    <path d="M7.5 0C3.3646 0 0 3.36442 0 7.5C0 11.6356 3.3646 15 7.5 15C11.6356 15 15 11.6356 15 7.5C15 3.36442 11.6354 0 7.5 0ZM7.5 13.9051C3.96826 13.9051 1.09488 11.0317 1.09488 7.5C1.09488 3.96826 3.96826 1.09488 7.5 1.09488C11.0317 1.09488 13.9051 3.96823 13.9051 7.49982C13.9051 11.0317 11.0317 13.9051 7.5 13.9051Z" fill="#4C858B"></path>
    <path d="M10.0548 7.50009H7.68253V4.21541C7.68253 3.91304 7.43746 3.66797 7.13509 3.66797C6.83271 3.66797 6.58765 3.91304 6.58765 4.21541V8.04753C6.58765 8.3499 6.83271 8.59497 7.13509 8.59497H10.0548C10.3572 8.59497 10.6022 8.3499 10.6022 8.04753C10.6022 7.74516 10.3572 7.50009 10.0548 7.50009Z" fill="#4C858B"></path>
  </symbol>
  <symbol fill="none" viewBox="0 0 15 16" id="whatsapp">
    <path d="M7.50187 0H7.49813C3.36281 0 0 3.588 0 8C0 9.75 0.52875 11.372 1.42781 12.689L0.493125 15.661L3.37594 14.678C4.56187 15.516 5.97656 16 7.50187 16C11.6372 16 15 12.411 15 8C15 3.589 11.6372 0 7.50187 0ZM11.8659 11.297C11.685 11.842 10.9669 12.294 10.3941 12.426C10.0022 12.515 9.49031 12.586 7.76719 11.824C5.56312 10.85 4.14375 8.461 4.03312 8.306C3.92719 8.151 3.1425 7.041 3.1425 5.893C3.1425 4.745 3.68906 4.186 3.90938 3.946C4.09031 3.749 4.38937 3.659 4.67625 3.659C4.76906 3.659 4.8525 3.664 4.9275 3.668C5.14781 3.678 5.25844 3.692 5.40375 4.063C5.58469 4.528 6.02531 5.676 6.07781 5.794C6.13125 5.912 6.18469 6.072 6.10969 6.227C6.03938 6.387 5.9775 6.458 5.86687 6.594C5.75625 6.73 5.65125 6.834 5.54062 6.98C5.43937 7.107 5.325 7.243 5.4525 7.478C5.58 7.708 6.02063 8.475 6.66937 9.091C7.50656 9.886 8.18531 10.14 8.42812 10.248C8.60906 10.328 8.82469 10.309 8.95687 10.159C9.12469 9.966 9.33187 9.646 9.54281 9.331C9.69281 9.105 9.88219 9.077 10.0809 9.157C10.2834 9.232 11.355 9.797 11.5753 9.914C11.7956 10.032 11.9409 10.088 11.9944 10.187C12.0469 10.286 12.0469 10.751 11.8659 11.297Z" fill="#4C858B"></path>
  </symbol>
  <symbol fill="none" viewBox="0 0 78 78" id="architect">
    <g clip-path="url(#clip0_51:272)">
      <path d="M34.225 44.5933H4.82442C3.4801 44.5933 3.4801 42.561 4.82442 42.561H31.3763C32.8872 42.561 32.889 40.2765 31.3763 40.2765H7.07684V6.60196H69.1087V40.2765H61.7551C60.2448 40.2765 60.2418 42.561 61.7551 42.561H71.7747C73.1184 42.561 73.1184 44.5933 71.7747 44.5933H59.1106C57.6002 44.5933 57.5978 46.8784 59.1106 46.8784H71.7747C73.5945 46.8784 75.0751 45.3972 75.0751 43.5775C75.0751 41.7571 73.5945 40.2765 71.7747 40.2765H71.3939V6.60196H71.7747C73.5945 6.60196 75.0751 5.12077 75.0751 3.30098C75.0751 1.48059 73.5945 0 71.7747 0H4.82442C3.00403 0 1.52344 1.48059 1.52344 3.30098C1.52344 5.11006 2.98677 6.58411 4.79169 6.60196V40.2765C2.98677 40.2943 1.52344 41.7678 1.52344 43.5775C1.52344 45.3972 3.00403 46.8784 4.82442 46.8784H34.225C35.7353 46.8784 35.7377 44.5933 34.225 44.5933ZM4.82442 2.28516H71.7747C73.1184 2.28516 73.1184 4.3168 71.7747 4.3168H4.82442C3.47951 4.3168 3.48129 2.28516 4.82442 2.28516Z" fill="#4C858B"></path>
      <path d="M21.1879 10.735C21.1879 9.73164 20.3714 8.91577 19.3681 8.91577H12.1954C11.1921 8.91577 10.3762 9.73164 10.3762 10.735V15.166C10.3762 16.1694 11.1921 16.9852 12.1954 16.9852H19.3681C20.3714 16.9852 21.1879 16.1694 21.1879 15.166V10.735ZM18.9027 14.7001H12.6608V11.2003H18.9027V14.7001Z" fill="#4C858B"></path>
      <path d="M21.1879 21.3233C21.1879 20.32 20.3714 19.5042 19.3681 19.5042H12.1954C11.1921 19.5042 10.3762 20.32 10.3762 21.3233V25.7544C10.3762 26.7577 11.1921 27.5736 12.1954 27.5736H19.3681C20.3714 27.5736 21.1879 26.7577 21.1879 25.7544V21.3233ZM18.9027 25.2885H12.6608V21.7887H18.9027V25.2885Z" fill="#4C858B"></path>
      <path d="M19.3681 30.0925H12.1954C11.1921 30.0925 10.3762 30.9084 10.3762 31.9117V36.3428C10.3762 37.3461 11.1921 38.162 12.1954 38.162H19.3681C20.3714 38.162 21.1879 37.3461 21.1879 36.3428V31.9117C21.1879 30.9084 20.3714 30.0925 19.3681 30.0925ZM18.9027 35.8774H12.6608V32.3771H18.9027V35.8774Z" fill="#4C858B"></path>
      <path d="M69.5225 51.916C68.2781 51.381 66.9731 50.9989 65.6437 50.7401L54.0673 48.4894V45.6288C57.3183 43.4115 59.078 40.2706 59.4612 36.7435C61.1483 36.6096 62.4807 35.1939 62.4807 33.4729V31.1246C65.2319 29.9285 64.8599 25.914 61.9493 25.2368V24.3298C61.9493 16.1824 55.3444 9.5769 47.1964 9.5769H45.9598C37.8118 9.5769 31.2068 16.1824 31.2068 24.3298V25.2362C28.2974 25.9134 27.9243 29.9285 30.676 31.1246V33.4723C30.676 35.1939 32.0078 36.6096 33.6955 36.7429C34.077 40.2539 35.8152 43.3954 39.0894 45.6288V48.4888L27.5131 50.7401C26.1837 50.9989 24.8786 51.3804 23.6343 51.916C18.9372 53.9375 16.6455 57.1647 16.6455 61.7231V64.0701C16.6455 65.5805 18.9301 65.5829 18.9301 64.0701V61.7237C18.9301 58.3001 20.4856 55.9328 23.8979 54.2975C24.0354 54.9057 26.1289 60.5883 26.1289 68.528V75.7155H21.3009C19.9917 75.7155 18.9301 74.6539 18.9301 73.3447V68.6161C18.9301 67.1057 16.6455 67.1033 16.6455 68.6161V73.3447C16.6455 75.9161 18.7295 78.0001 21.3009 78.0001H71.8558C74.4272 78.0001 76.5113 75.9161 76.5113 73.3447V61.7237C76.5113 57.1647 74.219 53.9375 69.5225 51.916ZM67.1284 53.4483C66.9695 54.1458 64.7427 60.1407 64.7427 68.528V75.7155H47.7207V69.9592C47.7207 68.2477 48.2414 66.6029 49.2262 65.2032C50.7015 63.1055 56.778 54.338 58.5799 51.6946C66.7815 53.346 65.7924 53.0038 67.1284 53.4483ZM45.7991 63.888C44.9225 62.6419 43.7841 61.0066 42.5957 59.2927C42.9486 59.2148 43.2932 59.0791 43.6163 58.8857L46.5781 57.1093L49.5399 58.8857C49.863 59.0791 50.2076 59.2148 50.5604 59.2927C49.3732 61.006 48.2348 62.6407 47.3577 63.888C47.0655 64.3034 46.8054 64.7355 46.5781 65.1812C46.3514 64.7355 46.0913 64.3034 45.7991 63.888ZM44.2459 55.8436C42.4368 56.8124 42.5654 57.1022 41.7435 57.0046C41.2324 56.9439 40.7735 56.6595 40.4808 56.2357C39.115 54.2577 37.8505 52.4224 37.0227 51.2185L39.3108 50.774C40.0499 53.0187 42.4856 54.804 44.2459 55.8436ZM56.1341 51.2191C55.3039 52.4254 54.0364 54.266 52.6671 56.2488C52.1083 57.057 51.1067 57.1605 50.7152 56.9255L48.9103 55.8436C50.6711 54.804 53.1063 53.0187 53.8454 50.774L56.1341 51.2191ZM39.9238 13.423V14.856C39.9238 16.3663 42.2083 16.3687 42.2083 14.856V12.4387C43.2337 12.1144 44.3161 11.9198 45.4361 11.8734V17.5226C45.4361 19.0329 47.7207 19.0353 47.7207 17.5226V11.8734C48.8406 11.9198 49.9231 12.115 50.9478 12.4387V14.856C50.9478 16.3663 53.233 16.3687 53.233 14.856V13.4236C60.3753 17.3917 59.616 24.9755 59.6648 25.1564H33.492C33.5313 25.0094 32.8183 17.3714 39.9238 13.423ZM31.9126 27.441H61.2441C62.3397 27.441 62.3379 29.0959 61.2441 29.0959H31.9126C30.817 29.0959 30.8188 27.441 31.9126 27.441ZM35.9081 35.5866C35.8944 34.9653 35.3874 34.469 34.7655 34.469C34.5751 34.4214 32.9612 34.7654 32.9612 33.4729V31.3811H60.1962V33.4729C60.1962 34.7636 58.5383 34.4321 58.3913 34.469C57.7694 34.469 57.2618 34.9653 57.2487 35.5866C57.1874 38.4431 55.974 41.096 53.9186 42.8652C49.5553 46.622 43.602 46.6226 39.2382 42.8652C37.1828 41.096 35.9688 38.4425 35.9081 35.5866ZM51.7822 46.8904V49.4309C51.7822 51.4738 48.3152 53.637 46.5781 54.5112C44.8428 53.6376 41.3835 51.4798 41.374 49.4392C41.374 49.4368 41.374 49.4338 41.374 49.4309V46.8904C44.6994 48.3246 48.4532 48.3264 51.7822 46.8904ZM26.0283 53.4483C27.3625 53.005 26.3711 53.3466 34.5763 51.6946L35.2291 52.6432C35.895 53.6114 36.8168 54.9498 37.8385 56.4303C39.7024 59.1321 42.2732 62.8472 43.9305 65.2026C44.9154 66.6029 45.4361 68.2471 45.4361 69.9592V75.7149H28.4141V68.5274C28.4141 59.9247 26.2414 54.3862 26.0283 53.4483ZM74.2261 73.3447C74.2261 74.6515 73.1633 75.7149 71.8558 75.7149H67.0279V68.528C67.0279 60.8061 69.1744 54.6712 69.2594 54.2975C72.6711 55.9328 74.2267 58.3001 74.2267 61.7237V73.3447H74.2261Z" fill="#4C858B"></path>
      <path d="M52.8062 66.0842C51.7291 66.0842 50.8525 66.9608 50.8525 68.0379V70.3272C50.8525 71.405 51.7291 72.2809 52.8062 72.2809H59.5254C60.6025 72.2809 61.4791 71.405 61.4791 70.3272V68.0379C61.4791 66.9608 60.6025 66.0842 59.5254 66.0842H52.8062ZM59.194 69.9958H53.1377V68.3694H59.194V69.9958Z" fill="#4C858B"></path>
    </g>
    <defs>
      <clipPath id="clip0_51:272">
        <rect width="78" height="78" fill="white"></rect>
      </clipPath>
    </defs>
  </symbol>
  <symbol fill="none" viewBox="0 0 20 20" id="arrow">
    <path d="M4.4442 9.2196L13.3445 0.31951C13.5503 0.113495 13.8251 0 14.1181 0C14.4111 0 14.6859 0.113495 14.8918 0.31951L15.5472 0.974789C15.9737 1.40178 15.9737 2.09576 15.5472 2.52209L8.07344 9.99585L15.5555 17.4779C15.7613 17.6839 15.875 17.9586 15.875 18.2514C15.875 18.5446 15.7613 18.8192 15.5555 19.0254L14.9 19.6805C14.694 19.8865 14.4194 20 14.1264 20C13.8334 20 13.5586 19.8865 13.3527 19.6805L4.4442 10.7723C4.23786 10.5656 4.12453 10.2897 4.12518 9.99634C4.12453 9.70187 4.23786 9.4261 4.4442 9.2196Z" fill="#B1B1B1"></path>
  </symbol>
  <symbol fill="none" viewBox="0 0 747 632" id="blob">
    <path fill-rule="evenodd" clip-rule="evenodd" d="M650.087 347.213C697.597 335.716 769.765 251.914 739.021 145.094C705.361 28.1409 567.428 -30.8332 430.537 18.4001C342.515 50.0588 273.846 77.2091 172.225 73.6415C117.7 71.7248 -40.6852 235.685 10.548 422.544C61.7812 609.403 321.226 699.855 416.665 572.041C544.144 401.325 568.631 366.923 650.087 347.213Z" fill="#4C858B"></path>
  </symbol>
  <symbol fill="none" viewBox="0 0 989 699" id="blob-primary">
    <path fill-rule="evenodd" clip-rule="evenodd" d="M0.63299 315.725C4.69754 243.458 57.907 117.827 322.681 105.931C641.94 91.5881 677.735 -106.537 798.812 78.5702C919.885 263.677 1093.47 458.531 907.213 608.88C734.366 748.405 508.323 712.779 217.916 591.609C6.05949 503.203 -3.43372 387.991 0.630466 315.726L0.63299 315.725Z" fill="#E33E54"></path>
  </symbol>
  <symbol fill="none" viewBox="0 0 21 21" id="check">
    <g clip-path="url(#clip0_159:1010)">
      <path d="M8.04128 18.3448C7.84082 18.5465 7.56733 18.659 7.28323 18.659C6.99914 18.659 6.72564 18.5465 6.52518 18.3448L0.471203 12.2899C-0.157068 11.6616 -0.157068 10.6428 0.471203 10.0157L1.22925 9.25748C1.85772 8.62921 2.87532 8.62921 3.50359 9.25748L7.28323 13.0373L17.4964 2.82399C18.1248 2.19572 19.1434 2.19572 19.7707 2.82399L20.5288 3.58223C21.157 4.2105 21.157 5.22909 20.5288 5.85638L8.04128 18.3448Z" fill="white"></path>
    </g>
    <defs>
      <clipPath id="clip0_159:1010">
        <rect width="21" height="21" fill="white"></rect>
      </clipPath>
    </defs>
  </symbol>
  <symbol fill="none" viewBox="0 0 68 68" id="broom">
    <g clip-path="url(#clip0_51:195)">
      <path d="M47.1646 51.775C46.9518 51.8195 46.7418 51.8731 46.5352 51.9359C45.253 50.2333 43.4235 49.0782 41.399 48.6297L42.7721 45.974L45.5652 43.1829C47.7019 41.045 47.7019 37.5664 45.5652 35.4285L42.5811 32.4428L57.7611 17.2543C57.7742 17.2422 57.7878 17.2314 57.8006 17.2187C57.8135 17.2059 57.8246 17.1918 57.837 17.1785L63.7376 11.2746C63.7377 11.2745 63.7378 11.2743 63.738 11.2743C63.7381 11.2742 63.7381 11.2741 63.7382 11.2739L66.5063 8.50425C68.4488 6.56598 68.4499 3.40491 66.5076 1.45655C65.5688 0.517172 64.3177 0 62.984 0C62.9829 0 62.9816 0 62.9805 0C61.6475 0.000929688 60.3979 0.518633 59.463 1.45655L56.6943 4.22676C56.6943 4.22676 56.6943 4.22676 56.6941 4.22676L56.694 4.22689L50.7921 10.132C50.7792 10.144 50.7655 10.1548 50.7529 10.1673C50.74 10.1802 50.729 10.194 50.7168 10.2073L47.3699 13.556C46.8514 14.0749 46.8515 14.9158 47.3703 15.4344C47.8891 15.9528 48.73 15.9526 49.2485 15.4339L51.6936 12.9875L54.9819 16.2775L40.7032 30.564L37.4149 27.274L40.8205 23.8665C41.339 23.3476 41.3387 22.5068 40.82 21.9882C40.3009 21.4697 39.4601 21.4698 38.9416 21.9887L35.5371 25.3951L32.554 22.4104C31.5224 21.3783 30.1458 20.8099 28.6779 20.8099C27.2099 20.8099 25.8334 21.3783 24.8012 22.411L22.0121 25.2053L16.6339 27.9924C16.6282 27.9953 16.6225 27.9982 16.6169 28.0011L11.4365 30.6857C11.4137 30.6967 11.3913 30.7082 11.3689 30.7206L3.01039 35.0523C1.21582 35.9813 0.243237 37.0793 0.0367134 38.4091C-0.163037 39.6959 0.421737 41.0348 1.77456 42.3883L5.45307 46.07C5.46675 46.0849 5.48136 46.0984 5.49557 46.1126L13.6833 54.3074L21.8493 62.4753C21.8696 62.4969 21.8906 62.518 21.9125 62.5385L25.5955 66.2224C26.7764 67.4038 27.9458 67.9999 29.0794 67.9999C29.2448 67.9999 29.4095 67.9871 29.5733 67.9618C30.9031 67.7554 32.001 66.7821 32.9295 64.9865L33.5327 63.8204C33.868 64.1236 34.2281 64.4041 34.6127 64.6575C36.0738 65.6203 37.7468 66.1184 39.4555 66.1184C40.0544 66.1184 40.6582 66.0571 41.2583 65.9332C42.3918 65.7 43.4635 65.2493 44.4104 64.6129C46.0268 65.7836 48.0642 66.2343 50.0592 65.8239C51.9352 65.4372 53.5481 64.3431 54.6007 62.7429C55.653 61.1433 56.0198 59.2296 55.6334 57.3547C54.8375 53.4845 51.0408 50.9809 47.1646 51.775ZM62.9823 2.65625H62.9839C63.6077 2.65625 64.1919 2.89704 64.6277 3.33306C65.5352 4.24349 65.5364 5.71984 64.6289 6.62535L62.799 8.45617L59.5107 5.16614L61.3428 3.33293C61.7775 2.89704 62.3596 2.65665 62.9823 2.65625ZM53.5716 11.1086L57.633 7.04491L60.9213 10.3349L56.8597 14.3986L53.5716 11.1086ZM33.1238 51.121L14.2386 32.2256L16.9897 30.8L35.5317 49.3521C34.6223 49.8056 33.8115 50.4075 33.1238 51.121ZM22.5544 27.916L40.0615 45.4328L38.4866 48.4792C38.4651 48.4816 38.4436 48.484 38.4221 48.4865L19.4637 29.5177L22.5544 27.916ZM26.6808 24.2882C27.2105 23.7582 27.9199 23.4662 28.6781 23.4662C29.4362 23.4662 30.1456 23.7582 30.6755 24.2882L43.6865 37.3062C44.7884 38.4087 44.7884 40.2027 43.6871 41.3046L41.6879 43.3023L24.6838 26.2889L26.6808 24.2882ZM30.5704 63.7663C30.0871 64.7011 29.5753 65.2736 29.1663 65.337C28.7808 65.3974 28.1645 65.0351 27.4744 64.3446L24.445 61.3144L27.3458 55.715C27.6832 55.0637 27.4288 54.2621 26.7774 53.9248C26.126 53.5875 25.3246 53.8418 24.9873 54.4931L22.4746 59.3434L16.5033 53.3707L20.7073 49.1522C21.225 48.6326 21.2235 47.7916 20.7039 47.2739C20.1844 46.7562 19.3434 46.7576 18.8257 47.2773L14.6256 51.4919L8.6512 45.5123L13.5 42.9975C14.1512 42.6599 14.4053 41.8583 14.0676 41.2071C13.7299 40.556 12.928 40.3017 12.2771 40.6396L6.68199 43.5414L3.65399 40.5107C2.96364 39.8201 2.60212 39.2025 2.66202 38.8166C2.72564 38.4071 3.29779 37.8949 4.23253 37.411L11.7647 33.5077L31.5693 53.3232C30.7131 55.036 30.4004 57.0362 30.8147 59.0543C30.9964 59.9347 31.3049 60.7677 31.7252 61.5342L30.5704 63.7663ZM52.3822 61.2831C51.7196 62.2904 50.7044 62.9792 49.5241 63.2223C48.0204 63.5322 46.4775 63.0639 45.3972 61.9708C44.9008 61.4685 44.0979 61.4425 43.57 61.9121C42.7721 62.6218 41.7877 63.1128 40.7224 63.3319C39.1052 63.6659 37.4546 63.349 36.0746 62.4398C34.6943 61.5303 33.7501 60.1374 33.4161 58.5191C32.7293 55.1732 34.8886 51.8928 38.2295 51.2063C38.2296 51.2063 38.2297 51.2063 38.23 51.2061C38.6505 51.1195 39.0712 51.0776 39.4876 51.0776C41.6837 51.0776 43.7454 52.2475 44.8621 54.2191C45.2097 54.8327 45.9763 55.0676 46.6079 54.7543C46.9529 54.5833 47.323 54.4556 47.703 54.3762C50.14 53.8774 52.5307 55.4535 53.0324 57.891C53.2757 59.0713 53.0448 60.2762 52.3822 61.2831Z" fill="#EA6628"></path>
      <path d="M63.3834 56.0383C60.8356 56.0383 58.7629 58.1102 58.7629 60.6567C58.7629 63.2054 60.8356 65.2789 63.3834 65.2789C65.929 65.2789 67.9999 63.2054 67.9999 60.6567C67.9999 58.1102 65.929 56.0383 63.3834 56.0383ZM63.3834 62.6226C62.3003 62.6226 61.4192 61.7408 61.4192 60.6567C61.4192 59.5749 62.3003 58.6946 63.3834 58.6946C64.4643 58.6946 65.3437 59.5747 65.3437 60.6567C65.3437 61.7408 64.4642 62.6226 63.3834 62.6226Z" fill="#EA6628"></path>
      <path d="M63.0558 41.9127C63.0558 38.7164 60.4565 36.116 57.2614 36.116C54.0685 36.116 51.4709 38.7164 51.4709 41.9127C51.4709 45.109 54.0686 47.7094 57.2614 47.7094C60.4565 47.7094 63.0558 45.109 63.0558 41.9127ZM57.2614 45.0532C55.5332 45.0532 54.1272 43.6445 54.1272 41.9127C54.1272 40.181 55.5332 38.7722 57.2614 38.7722C58.9917 38.7722 60.3995 40.181 60.3995 41.9127C60.3995 43.6445 58.9919 45.0532 57.2614 45.0532Z" fill="#EA6628"></path>
      <path d="M44.0936 20.0403C44.4345 20.0403 44.7757 19.9102 45.0355 19.6504C45.5541 19.1318 45.5541 18.2908 45.0355 17.772C44.5169 17.2534 43.6759 17.2534 43.1571 17.772L43.1534 17.7757C42.6348 18.2944 42.6367 19.1335 43.1553 19.6521C43.4143 19.9111 43.7537 20.0403 44.0936 20.0403Z" fill="#EA6628"></path>
    </g>
    <defs>
      <clipPath id="clip0_51:195">
        <rect width="68" height="68" fill="white"></rect>
      </clipPath>
    </defs>
  </symbol>
  <symbol fill="none"  viewBox="0 0 70 70" id="consult">
    <path d="M19.6875 27.3438H17.5V29.5312H19.6875V27.3438Z" fill="#EA6628"></path>
    <path d="M30.625 27.3438H28.4375V29.5312H30.625V27.3438Z" fill="#EA6628"></path>
    <path d="M66.8741 39.3858L62.6008 38.7755C62.3976 38.1779 62.1576 37.5935 61.8822 37.0255L64.4679 33.578C64.6258 33.3674 64.7024 33.1068 64.6838 32.8442C64.6651 32.5817 64.5523 32.3346 64.3662 32.1485L59.7254 27.5077C59.5471 27.3307 59.3127 27.2212 59.0626 27.1982V16.6697C60.0859 15.8504 60.9121 14.8116 61.48 13.6301C62.048 12.4486 62.3432 11.1545 62.3438 9.84362C62.3538 8.18602 61.8879 6.56037 61.0012 5.15977C60.1146 3.75918 58.8446 2.6425 57.3421 1.94237C57.1754 1.86366 56.9915 1.82836 56.8076 1.83973C56.6236 1.85111 56.4455 1.9088 56.2897 2.00744C56.134 2.10609 56.0058 2.24249 55.9169 2.40397C55.828 2.56546 55.7814 2.74679 55.7813 2.93112V9.05612L53.5938 9.78565L51.4063 9.05612V2.93112C51.4055 2.74716 51.3584 2.56637 51.2692 2.40547C51.18 2.24458 51.0516 2.10878 50.896 2.01064C50.7404 1.91251 50.5626 1.8552 50.379 1.84403C50.1954 1.83287 50.0119 1.86819 49.8455 1.94675C48.3437 2.64656 47.0741 3.76256 46.1876 5.1623C45.301 6.56205 44.8346 8.18676 44.8438 9.84362C44.8445 11.1545 45.1397 12.4486 45.7076 13.6301C46.2756 14.8116 47.1017 15.8504 48.1251 16.6697V24.0624H44.8438C44.5806 24.0623 44.3262 24.1572 44.1273 24.3296C43.9284 24.502 43.7984 24.7403 43.761 25.0008L43.0533 29.9544L45.219 30.2639L45.7921 26.2499H50.458L51.0312 30.2639C51.061 30.4719 51.1501 30.6669 51.2878 30.8255C51.4255 30.9842 51.606 31.0998 51.8077 31.1586C52.7193 31.422 53.5995 31.784 54.4327 32.2381C54.617 32.3392 54.8266 32.385 55.0363 32.3701C55.246 32.3552 55.4469 32.2801 55.6151 32.1539L58.8537 29.7258L62.1524 33.0246L59.7188 36.2631C59.5926 36.4313 59.5176 36.6322 59.5027 36.8419C59.4877 37.0516 59.5335 37.2612 59.6346 37.4455C60.0887 38.2787 60.4507 39.1589 60.7141 40.0705C60.7729 40.2722 60.8886 40.4527 61.0472 40.5904C61.2059 40.7281 61.4009 40.8172 61.6088 40.8471L65.6229 41.4202V46.0861L61.6088 46.6592C61.4009 46.6891 61.2059 46.7782 61.0472 46.9159C60.8886 47.0536 60.7729 47.2341 60.7141 47.4358C60.4507 48.3474 60.0887 49.2276 59.6346 50.0608C59.5335 50.2451 59.4877 50.4547 59.5027 50.6644C59.5176 50.8741 59.5926 51.075 59.7188 51.2431L62.1469 54.4817L58.8482 57.7805L55.6118 55.3436C55.4436 55.2174 55.2427 55.1424 55.033 55.1275C54.8233 55.1125 54.6138 55.1583 54.4294 55.2594C53.5963 55.7135 52.7161 56.0755 51.8044 56.3389C51.6027 56.3977 51.4222 56.5134 51.2845 56.672C51.1468 56.8307 51.0577 57.0257 51.0279 57.2336L50.458 61.2499H45.9376V56.6244C45.9368 55.4689 45.771 54.3195 45.4454 53.2108C47.5287 53.8207 49.7542 53.7336 51.7834 52.9627C53.8127 52.1918 55.5347 50.7793 56.6875 48.94C57.8404 47.1007 58.3611 44.9353 58.1704 42.7729C57.9798 40.6105 57.0882 38.5696 55.6312 36.9604C54.1743 35.3513 52.2317 34.2619 50.0988 33.858C47.966 33.4541 45.7596 33.7578 43.8152 34.7228C41.8708 35.6879 40.2947 37.2615 39.3266 39.2044C38.3585 41.1474 38.0514 43.3533 38.4519 45.4867C38.4257 45.4758 38.4005 45.4627 38.3743 45.4528L29.5313 41.9156V40.2346C30.9929 39.4868 32.2874 38.4502 33.3365 37.1874H36.0938C36.9641 37.1874 37.7987 36.8417 38.414 36.2263C39.0294 35.611 39.3751 34.7764 39.3751 33.9061V31.5174C40.0126 31.292 40.565 30.8751 40.9565 30.3238C41.3481 29.7724 41.5598 29.1136 41.5626 28.4374V25.1561C41.5598 24.4799 41.3481 23.8211 40.9565 23.2697C40.565 22.7184 40.0126 22.3015 39.3751 22.0761V20.7811C39.3751 16.72 37.7618 12.8252 34.8901 9.95355C32.0185 7.0819 28.1237 5.46862 24.0626 5.46862C20.0014 5.46862 16.1066 7.0819 13.235 9.95355C10.3633 12.8252 8.75006 16.72 8.75006 20.7811V22.0761C8.11251 22.3015 7.56016 22.7184 7.1686 23.2697C6.77703 23.8211 6.56537 24.4799 6.56256 25.1561V28.4374C6.56256 29.3076 6.90826 30.1422 7.52362 30.7576C8.13897 31.3729 8.97357 31.7186 9.84381 31.7186H12.0313C12.1013 31.7186 12.1691 31.7077 12.238 31.7033C12.5743 33.5167 13.3222 35.2289 14.4241 36.7079C15.5259 38.1869 16.9524 39.3934 18.5938 40.2346V41.9156L9.75084 45.4528C7.51366 46.3394 5.59548 47.8795 4.24638 49.8722C2.89727 51.865 2.17982 54.2179 2.18756 56.6244V66.7186C2.18756 67.0087 2.3028 67.2869 2.50791 67.492C2.71303 67.6971 2.99123 67.8124 3.28131 67.8124H44.8438C45.1339 67.8124 45.4121 67.6971 45.6172 67.492C45.8223 67.2869 45.9376 67.0087 45.9376 66.7186V63.4374H51.4063C51.6695 63.4374 51.9239 63.3425 52.1228 63.1701C52.3217 62.9978 52.4518 62.7595 52.4891 62.4989L53.0994 58.2256C53.697 58.0224 54.2815 57.7824 54.8494 57.507L58.2969 60.0927C58.5076 60.2506 58.7681 60.3273 59.0307 60.3086C59.2933 60.2899 59.5403 60.1771 59.7265 59.991L64.3672 55.3502C64.5534 55.164 64.6662 54.917 64.6849 54.6544C64.7035 54.3918 64.6269 54.1313 64.469 53.9206L61.8833 50.4731C62.1587 49.9052 62.3987 49.3207 62.6019 48.7231L66.8752 48.1128C67.1354 48.0752 67.3733 47.9452 67.5454 47.7466C67.7175 47.5479 67.8124 47.294 67.8126 47.0311V40.4686C67.8126 40.2054 67.7177 39.951 67.5453 39.7521C67.373 39.5532 67.1347 39.4232 66.8741 39.3858ZM54.8429 29.9927C54.7915 29.9675 54.7335 29.9511 54.6821 29.9271V16.4061H52.5001V25.0796L52.4891 25.0008C52.4518 24.7403 52.3217 24.502 52.1228 24.3296C51.9239 24.1572 51.6695 24.0623 51.4063 24.0624H50.3126V16.1217C50.3126 15.9453 50.2699 15.7715 50.1882 15.6152C50.1065 15.4588 49.9882 15.3245 49.8433 15.2238C49.0303 14.6577 48.3559 13.9149 47.8709 13.0511C47.3858 12.1873 47.1026 11.2249 47.0425 10.236C46.9824 9.24714 47.147 8.2575 47.5239 7.34131C47.9008 6.42511 48.4803 5.60614 49.2188 4.94581V9.84362C49.2188 10.0733 49.291 10.2971 49.4253 10.4834C49.5595 10.6697 49.7491 10.809 49.9669 10.8816L53.2482 11.9753C53.4725 12.0501 53.7151 12.0501 53.9394 11.9753L57.2207 10.8816C57.4386 10.809 57.6281 10.6697 57.7624 10.4834C57.8966 10.2971 57.9689 10.0733 57.9688 9.84362V4.94581C58.708 5.60612 59.2879 6.42529 59.6652 7.34181C60.0425 8.25834 60.2073 9.24841 60.1472 10.2377C60.0871 11.227 59.8037 12.1899 59.3182 13.054C58.8328 13.9181 58.1579 14.6611 57.3443 15.2271C57.1999 15.3275 57.0819 15.4612 57.0002 15.617C56.9185 15.7727 56.8756 15.9459 56.8751 16.1217V28.4735L54.8429 29.9927ZM40.4688 43.7499C40.4568 42.0397 41.0136 40.374 42.0518 39.0149C43.0899 37.6558 44.5504 36.6804 46.2036 36.2421C47.8567 35.8039 49.6086 35.9276 51.1837 36.5939C52.7588 37.2602 54.0677 38.4312 54.9045 39.9228C55.7413 41.4143 56.0584 43.1417 55.8061 44.8333C55.5538 46.5248 54.7463 48.0844 53.5106 49.2668C52.2749 50.4492 50.6813 51.1872 48.9803 51.3648C47.2793 51.5424 45.5675 51.1495 44.1143 50.2478C43.3582 49.0366 42.3909 47.9708 41.2585 47.1011C40.7382 46.0607 40.4678 44.9132 40.4688 43.7499ZM36.0938 34.9999H34.766C35.299 33.9618 35.6767 32.8511 35.8871 31.7033C35.956 31.7033 36.0238 31.7186 36.0938 31.7186H37.1876V33.9061C37.1876 34.1962 37.0723 34.4744 36.8672 34.6795C36.6621 34.8846 36.3839 34.9999 36.0938 34.9999ZM33.9063 22.9686C33.3971 22.9674 32.8952 22.8482 32.4398 22.6205C31.9843 22.3928 31.5878 22.0627 31.2813 21.6561L29.3126 19.0311C29.2247 18.9139 29.1141 18.8156 28.9875 18.7419C28.8608 18.6683 28.7207 18.6208 28.5754 18.6024C28.43 18.5845 28.2825 18.5957 28.1415 18.6353C28.0005 18.675 27.8688 18.7422 27.754 18.8332L24.0833 21.7655C23.1148 22.5405 21.9124 22.9646 20.6719 22.9686H14.2188V21.8749C14.2188 19.2641 15.2559 16.7603 17.102 14.9143C18.948 13.0682 21.4518 12.0311 24.0626 12.0311C26.6733 12.0311 29.1771 13.0682 31.0231 14.9143C32.8692 16.7603 33.9063 19.2641 33.9063 21.8749V22.9686ZM39.3751 28.4374C39.3751 28.7274 39.2598 29.0056 39.0547 29.2108C38.8496 29.4159 38.5714 29.5311 38.2813 29.5311H36.0938V24.0624H38.2813C38.5714 24.0624 38.8496 24.1776 39.0547 24.3827C39.2598 24.5878 39.3751 24.866 39.3751 25.1561V28.4374ZM24.0626 7.65612C27.5424 7.65988 30.8786 9.0439 33.3392 11.5045C35.7998 13.9651 37.1838 17.3013 37.1876 20.7811V21.8749H36.0938C36.0938 18.684 34.8262 15.6238 32.5699 13.3675C30.3136 11.1112 27.2534 9.84362 24.0626 9.84362C20.8717 9.84362 17.8115 11.1112 15.5552 13.3675C13.2989 15.6238 12.0313 18.684 12.0313 21.8749H10.9376V20.7811C10.9413 17.3013 12.3253 13.9651 14.7859 11.5045C17.2465 9.0439 20.5828 7.65988 24.0626 7.65612ZM9.84381 29.5311C9.55373 29.5311 9.27553 29.4159 9.07041 29.2108C8.8653 29.0056 8.75006 28.7274 8.75006 28.4374V25.1561C8.75006 24.866 8.8653 24.5878 9.07041 24.3827C9.27553 24.1776 9.55373 24.0624 9.84381 24.0624H12.0313V29.5311H9.84381ZM14.2188 29.5311V25.1561H20.6719C22.4098 25.1538 24.0955 24.5623 25.4538 23.4783L28.244 21.246L29.5313 22.9686C30.0422 23.6463 30.703 24.1964 31.462 24.5759C32.2211 24.9554 33.0577 25.154 33.9063 25.1561V29.5311C33.9081 31.4791 33.3285 33.3833 32.2416 34.9999H24.0626V37.1874H30.2357C28.7913 38.3553 27.0456 39.0902 25.2008 39.307C23.356 39.5239 21.4875 39.2138 19.8116 38.4127C18.1357 37.6116 16.721 36.3523 15.7312 34.7805C14.7414 33.2086 14.2171 31.3886 14.2188 29.5311ZM24.0626 41.5624C25.1726 41.5596 26.2769 41.4028 27.3438 41.0964V42.6561C27.3438 43.5264 26.9981 44.361 26.3828 44.9763C25.7674 45.5917 24.9328 45.9374 24.0626 45.9374C23.1923 45.9374 22.3577 45.5917 21.7424 44.9763C21.127 44.361 20.7813 43.5264 20.7813 42.6561V41.0964C21.8482 41.4028 22.9525 41.5596 24.0626 41.5624ZM43.7501 65.6249H37.1876V53.5936H35.0001V65.6249H13.1251V53.5936H10.9376V65.6249H4.37506V56.6244C4.36869 54.6554 4.95572 52.7302 6.05959 51.0998C7.16347 49.4693 8.73298 48.2093 10.5635 47.4839L18.8355 44.1753C19.1585 45.3126 19.8437 46.3136 20.787 47.0263C21.7303 47.739 22.8803 48.1246 24.0626 48.1246C25.2448 48.1246 26.3949 47.739 27.3382 47.0263C28.2815 46.3136 28.9666 45.3126 29.2896 44.1753L37.5616 47.4839C39.3921 48.2093 40.9617 49.4693 42.0655 51.0998C43.1694 52.7302 43.7564 54.6554 43.7501 56.6244V65.6249Z" fill="#EA6628"></path>
    <path d="M49.2188 28.4375H47.0312V30.625H49.2188V28.4375Z" fill="#EA6628"></path>
    <path d="M49.2188 56.875H47.0312V59.0625H49.2188V56.875Z" fill="#EA6628"></path>
    <path d="M58.1783 52.2577L56.6315 53.8044L58.1783 55.3512L59.7251 53.8044L58.1783 52.2577Z" fill="#EA6628"></path>
    <path d="M63.4375 42.6562H61.25V44.8438H63.4375V42.6562Z" fill="#EA6628"></path>
    <path d="M58.1788 32.1495L56.632 33.6963L58.1788 35.2431L59.7255 33.6963L58.1788 32.1495Z" fill="#EA6628"></path>
  </symbol>
  <symbol fill="none"  viewBox="0 0 70 70" id="contract">
    <g clip-path="url(#clip0_51:158)">
      <path d="M69.8715 16.5991C69.6306 15.7031 69.0428 14.9394 68.2385 14.4763C67.4337 14.011 66.4769 13.8851 65.5792 14.126C64.6827 14.3675 63.919 14.9547 63.4559 15.759L62.8727 16.7739C62.3185 16.4555 61.6105 16.6429 61.2864 17.1943L58.3236 22.2446L57.3086 21.6614C57.0398 21.5059 56.7197 21.4637 56.4201 21.5446C56.1199 21.626 55.8648 21.8231 55.7104 22.0931C55.3943 22.6507 55.5868 23.3592 56.1421 23.6793L57.1571 24.2626L47.2421 41.4446L44.7924 47.9889L43.626 50.1698C42.943 51.3579 43.016 52.8348 43.8128 53.9494L41.1882 57.1686L40.4535 55.326C40.122 54.5047 39.3548 53.942 38.4725 53.8731C37.5897 53.8036 36.7439 54.2399 36.2888 54.9991L35.8691 55.7105L35.4726 51.0446C35.3815 49.9408 34.5266 49.0534 33.4273 48.9201C32.3275 48.7874 31.2863 49.4464 30.9349 50.4967L28.0655 59.1051C27.865 59.714 28.193 60.3701 28.8002 60.5751C28.9141 60.6281 29.0366 60.66 29.1619 60.668C29.6631 60.6697 30.1096 60.3502 30.2702 59.8751L33.1277 51.2668L33.5361 56.0021C33.6204 57.0125 34.3466 57.8526 35.3342 58.0816C36.3219 58.3106 37.3437 57.8754 37.8637 57.0057L38.2954 56.2937L39.0187 58.1254C39.3257 58.8972 40.02 59.448 40.8419 59.5704C41.6638 59.6929 42.4885 59.3688 43.008 58.7201L45.7259 55.2793C46.0267 55.3579 46.3365 55.3972 46.6475 55.3961C47.8977 55.4058 49.0585 54.7474 49.6918 53.6692L50.8583 51.7213L55.3026 46.3207L65.3224 28.9284L66.3373 29.5117C66.6079 29.6666 66.8049 29.9223 66.8853 30.2236C66.9661 30.5226 66.924 30.8416 66.7691 31.1099L62.1032 39.1937C61.9272 39.4591 61.8674 39.7849 61.938 40.0959C62.0086 40.4063 62.2029 40.6746 62.4763 40.838C62.7451 40.9941 63.0652 41.0362 63.3648 40.9554C63.6649 40.8739 63.9201 40.6768 64.0745 40.4069L68.7403 32.323C69.2057 31.5182 69.3315 30.5614 69.09 29.6637C68.8485 28.7672 68.2613 28.0035 67.4571 27.5404L66.4421 26.9572L69.3583 21.9063C69.6767 21.3521 69.4893 20.6447 68.9385 20.32L69.5218 19.3051C69.9996 18.4877 70.1261 17.5115 69.8715 16.5991ZM65.4739 16.9254C65.6282 16.6555 65.8845 16.4578 66.1858 16.3775C66.4854 16.3035 66.8021 16.345 67.0721 16.4943C67.3426 16.6486 67.5397 16.9049 67.6206 17.2057C67.6946 17.5052 67.653 17.8219 67.5038 18.0919L66.9206 19.1069L64.8906 17.9404L65.4739 16.9254ZM49.5751 49.4937L48.9918 49.1554L47.2655 48.1518L48.9218 43.7195L52.596 45.8422L49.5751 49.4937ZM46.0756 52.8644C45.583 52.5209 45.4315 51.8602 45.7259 51.3362L46.3092 50.3218L48.3385 51.4883L47.7553 52.4913C47.5918 52.775 47.3173 52.9766 46.9978 53.0478C46.6782 53.1184 46.3439 53.0523 46.0756 52.8644ZM53.926 43.9296L49.89 41.5967L59.2218 25.429L63.2577 27.762L53.926 43.9296ZM64.4242 25.744L60.3882 23.4111L62.7212 19.3751L66.7571 21.7081L64.4242 25.744Z" fill="#EA6628"></path>
      <path d="M18.4066 52.2812L14.2778 56.3991L11.8048 53.9261C11.3497 53.4739 10.6149 53.4739 10.1599 53.9261C9.93886 54.1454 9.8147 54.4433 9.8147 54.7542C9.8147 55.0652 9.93886 55.3637 10.1599 55.5824L12.6329 58.0554C13.0703 58.4894 13.6615 58.7326 14.2778 58.7321C14.8975 58.7355 15.4938 58.4923 15.9341 58.0554L20.0515 53.9261C20.4479 53.463 20.4211 52.7733 19.9905 52.3427C19.5594 51.9116 18.8696 51.8848 18.4066 52.2812Z" fill="#EA6628"></path>
      <path d="M4.66577 55.4188C4.66577 60.8952 9.10496 65.3338 14.5808 65.3338C20.0565 65.3338 24.4957 60.8952 24.4957 55.4188C24.4957 54.7746 23.9734 54.2523 23.3293 54.2523C22.6851 54.2523 22.1628 54.7746 22.1628 55.4188C22.1628 59.6062 18.7682 63.0008 14.5808 63.0008C10.3933 63.0008 6.99871 59.6062 6.99871 55.4188C6.99871 51.2314 10.3933 47.8368 14.5808 47.8368C16.2222 47.8322 17.8199 48.3648 19.1299 49.3535C19.6453 49.7402 20.3766 49.6354 20.7628 49.12C21.1495 48.6045 21.0453 47.8738 20.5299 47.4871C17.5254 45.2339 13.5054 44.8716 10.1467 46.5507C6.7874 48.2303 4.66577 51.6637 4.66577 55.4188Z" fill="#EA6628"></path>
      <path d="M41.9927 9.34343C42.6369 9.34343 43.1592 8.82171 43.1592 8.17697C43.1592 7.53279 42.6369 7.0105 41.9927 7.0105H11.6645C11.0203 7.0105 10.498 7.53279 10.498 8.17697V12.8428C10.498 13.4876 11.0203 14.0093 11.6645 14.0093H41.9927C42.6369 14.0093 43.1592 13.4876 43.1592 12.8428C43.1592 12.1987 42.6369 11.6764 41.9927 11.6764H12.831V9.34343H41.9927Z" fill="#EA6628"></path>
      <path d="M15.164 16.3423C14.5198 16.3423 13.9976 16.8646 13.9976 17.5088C13.9976 18.1535 14.5198 18.6752 15.164 18.6752H38.4934C39.1376 18.6752 39.6599 18.1535 39.6599 17.5088C39.6599 16.8646 39.1376 16.3423 38.4934 16.3423H15.164Z" fill="#EA6628"></path>
      <path d="M45.4921 24.5076H19.8298C19.1856 24.5076 18.6633 25.0299 18.6633 25.674C18.6633 26.3188 19.1856 26.8405 19.8298 26.8405H45.4921C46.1363 26.8405 46.6586 26.3188 46.6586 25.674C46.6586 25.0299 46.1363 24.5076 45.4921 24.5076Z" fill="#EA6628"></path>
      <path d="M33.8276 32.6728C33.8276 32.0286 33.3053 31.5063 32.6611 31.5063H9.33175C8.68757 31.5063 8.16528 32.0286 8.16528 32.6728C8.16528 33.3176 8.68757 33.8393 9.33175 33.8393H32.6611C33.3053 33.8393 33.8276 33.3176 33.8276 32.6728Z" fill="#EA6628"></path>
      <path d="M45.4921 31.5063H37.3269C36.6827 31.5063 36.1604 32.0286 36.1604 32.6728C36.1604 33.3176 36.6827 33.8393 37.3269 33.8393H45.4921C46.1363 33.8393 46.6586 33.3176 46.6586 32.6728C46.6586 32.0286 46.1363 31.5063 45.4921 31.5063Z" fill="#EA6628"></path>
      <path d="M20.9964 39.6716C21.6406 39.6716 22.1629 39.1499 22.1629 38.5051C22.1629 37.8609 21.6406 37.3386 20.9964 37.3386H9.33175C8.68757 37.3386 8.16528 37.8609 8.16528 38.5051C8.16528 39.1499 8.68757 39.6716 9.33175 39.6716H20.9964Z" fill="#EA6628"></path>
      <path d="M25.6623 39.6716H33.8276C34.4718 39.6716 34.9941 39.1499 34.9941 38.5051C34.9941 37.8609 34.4718 37.3386 33.8276 37.3386H25.6623C25.0181 37.3386 24.4958 37.8609 24.4958 38.5051C24.4958 39.1499 25.0181 39.6716 25.6623 39.6716Z" fill="#EA6628"></path>
      <path d="M52.4911 53.6692C51.8469 53.6692 51.3246 54.1915 51.3246 54.8357V66.5004C51.3246 67.1451 50.8023 67.6669 50.1581 67.6669H3.4994C2.85523 67.6669 2.33294 67.1451 2.33294 66.5004V3.51112C2.33294 2.86695 2.85523 2.34465 3.4994 2.34465H50.1581C50.8023 2.34465 51.3246 2.86695 51.3246 3.51112V25.4177C51.3246 26.0619 51.8469 26.5842 52.4911 26.5842C53.1352 26.5842 53.6575 26.0619 53.6575 25.4177V3.51112C53.6575 1.57859 52.0907 0.0117188 50.1581 0.0117188H3.4994C1.56687 0.0117188 0 1.57859 0 3.51112V66.5004C0 68.4335 1.56687 69.9998 3.4994 69.9998H50.1581C52.0907 69.9998 53.6575 68.4335 53.6575 66.5004V54.8357C53.6575 54.1915 53.1352 53.6692 52.4911 53.6692Z" fill="#EA6628"></path>
    </g>
    <defs>
      <clipPath id="clip0_51:158">
        <rect width="70" height="70" fill="white"></rect>
      </clipPath>
    </defs>
  </symbol>
  <symbol fill="none"  viewBox="0 0 37 148" id="d-1-img">
    <path d="M2.45247 94.3268C3.80695 94.3268 4.90497 93.2288 4.90497 91.8743C4.90497 90.5198 3.80695 89.4218 2.45247 89.4218C1.098 89.4218 0 90.5198 0 91.8743C0 93.2288 1.098 94.3268 2.45247 94.3268Z" fill="black"></path>
    <path d="M18.0164 94.3268C19.3709 94.3268 20.4689 93.2288 20.4689 91.8743C20.4689 90.5198 19.3709 89.4218 18.0164 89.4218C16.662 89.4218 15.564 90.5198 15.564 91.8743C15.564 93.2288 16.662 94.3268 18.0164 94.3268Z" fill="black"></path>
    <path d="M33.5802 94.3268C34.9346 94.3268 36.0327 93.2288 36.0327 91.8743C36.0327 90.5198 34.9346 89.4218 33.5802 89.4218C32.2257 89.4218 31.1277 90.5198 31.1277 91.8743C31.1277 93.2288 32.2257 94.3268 33.5802 94.3268Z" fill="black"></path>
    <path d="M2.45247 75.9802C3.80695 75.9802 4.90497 74.8822 4.90497 73.5277C4.90497 72.1732 3.80695 71.0752 2.45247 71.0752C1.098 71.0752 0 72.1732 0 73.5277C0 74.8822 1.098 75.9802 2.45247 75.9802Z" fill="black"></path>
    <path d="M18.0164 75.9802C19.3709 75.9802 20.4689 74.8822 20.4689 73.5277C20.4689 72.1732 19.3709 71.0752 18.0164 71.0752C16.662 71.0752 15.564 72.1732 15.564 73.5277C15.564 74.8822 16.662 75.9802 18.0164 75.9802Z" fill="black"></path>
    <path d="M33.5802 75.9802C34.9346 75.9802 36.0327 74.8822 36.0327 73.5277C36.0327 72.1732 34.9346 71.0752 33.5802 71.0752C32.2257 71.0752 31.1277 72.1732 31.1277 73.5277C31.1277 74.8822 32.2257 75.9802 33.5802 75.9802Z" fill="black"></path>
    <path d="M2.45247 59.9447C3.80695 59.9447 4.90497 58.8466 4.90497 57.4922C4.90497 56.1377 3.80695 55.0397 2.45247 55.0397C1.098 55.0397 0 56.1377 0 57.4922C0 58.8466 1.098 59.9447 2.45247 59.9447Z" fill="black"></path>
    <path d="M18.0164 59.9447C19.3709 59.9447 20.4689 58.8466 20.4689 57.4922C20.4689 56.1377 19.3709 55.0397 18.0164 55.0397C16.662 55.0397 15.564 56.1377 15.564 57.4922C15.564 58.8466 16.662 59.9447 18.0164 59.9447Z" fill="black"></path>
    <path d="M33.5802 59.9447C34.9346 59.9447 36.0327 58.8466 36.0327 57.4922C36.0327 56.1377 34.9346 55.0397 33.5802 55.0397C32.2257 55.0397 31.1277 56.1377 31.1277 57.4922C31.1277 58.8466 32.2257 59.9447 33.5802 59.9447Z" fill="black"></path>
    <path d="M2.45247 147.539C3.80695 147.539 4.90497 146.441 4.90497 145.087C4.90497 143.732 3.80695 142.634 2.45247 142.634C1.098 142.634 0 143.732 0 145.087C0 146.441 1.098 147.539 2.45247 147.539Z" fill="black"></path>
    <path d="M18.0164 147.539C19.3709 147.539 20.4689 146.441 20.4689 145.087C20.4689 143.732 19.3709 142.634 18.0164 142.634C16.662 142.634 15.564 143.732 15.564 145.087C15.564 146.441 16.662 147.539 18.0164 147.539Z" fill="black"></path>
    <path d="M33.5802 147.539C34.9346 147.539 36.0327 146.441 36.0327 145.087C36.0327 143.732 34.9346 142.634 33.5802 142.634C32.2257 142.634 31.1277 143.732 31.1277 145.087C31.1277 146.441 32.2257 147.539 33.5802 147.539Z" fill="black"></path>
    <path d="M2.45247 129.193C3.80695 129.193 4.90497 128.095 4.90497 126.74C4.90497 125.386 3.80695 124.288 2.45247 124.288C1.098 124.288 0 125.386 0 126.74C0 128.095 1.098 129.193 2.45247 129.193Z" fill="black"></path>
    <path d="M18.0164 129.193C19.3709 129.193 20.4689 128.095 20.4689 126.74C20.4689 125.386 19.3709 124.288 18.0164 124.288C16.662 124.288 15.564 125.386 15.564 126.74C15.564 128.095 16.662 129.193 18.0164 129.193Z" fill="black"></path>
    <path d="M33.5802 129.193C34.9346 129.193 36.0327 128.095 36.0327 126.74C36.0327 125.386 34.9346 124.288 33.5802 124.288C32.2257 124.288 31.1277 125.386 31.1277 126.74C31.1277 128.095 32.2257 129.193 33.5802 129.193Z" fill="black"></path>
    <path d="M2.45247 113.157C3.80695 113.157 4.90497 112.059 4.90497 110.705C4.90497 109.35 3.80695 108.252 2.45247 108.252C1.098 108.252 0 109.35 0 110.705C0 112.059 1.098 113.157 2.45247 113.157Z" fill="black"></path>
    <path d="M18.0164 113.157C19.3709 113.157 20.4689 112.059 20.4689 110.705C20.4689 109.35 19.3709 108.252 18.0164 108.252C16.662 108.252 15.564 109.35 15.564 110.705C15.564 112.059 16.662 113.157 18.0164 113.157Z" fill="black"></path>
    <path d="M33.5802 113.157C34.9346 113.157 36.0327 112.059 36.0327 110.705C36.0327 109.35 34.9346 108.252 33.5802 108.252C32.2257 108.252 31.1277 109.35 31.1277 110.705C31.1277 112.059 32.2257 113.157 33.5802 113.157Z" fill="black"></path>
    <path d="M2.45247 41.5982C3.80695 41.5982 4.90497 40.5001 4.90497 39.1457C4.90497 37.7912 3.80695 36.6932 2.45247 36.6932C1.098 36.6932 0 37.7912 0 39.1457C0 40.5001 1.098 41.5982 2.45247 41.5982Z" fill="black"></path>
    <path d="M18.0164 41.5982C19.3709 41.5982 20.4689 40.5001 20.4689 39.1457C20.4689 37.7912 19.3709 36.6932 18.0164 36.6932C16.662 36.6932 15.564 37.7912 15.564 39.1457C15.564 40.5001 16.662 41.5982 18.0164 41.5982Z" fill="black"></path>
    <path d="M33.5802 41.5982C34.9346 41.5982 36.0327 40.5001 36.0327 39.1457C36.0327 37.7912 34.9346 36.6932 33.5802 36.6932C32.2257 36.6932 31.1277 37.7912 31.1277 39.1457C31.1277 40.5001 32.2257 41.5982 33.5802 41.5982Z" fill="black"></path>
    <path d="M2.45247 23.2515C3.80695 23.2515 4.90497 22.1535 4.90497 20.799C4.90497 19.4445 3.80695 18.3465 2.45247 18.3465C1.098 18.3465 0 19.4445 0 20.799C0 22.1535 1.098 23.2515 2.45247 23.2515Z" fill="black"></path>
    <path d="M18.0164 23.2515C19.3709 23.2515 20.4689 22.1535 20.4689 20.799C20.4689 19.4445 19.3709 18.3465 18.0164 18.3465C16.662 18.3465 15.564 19.4445 15.564 20.799C15.564 22.1535 16.662 23.2515 18.0164 23.2515Z" fill="black"></path>
    <path d="M33.5802 23.2515C34.9346 23.2515 36.0327 22.1535 36.0327 20.799C36.0327 19.4445 34.9346 18.3465 33.5802 18.3465C32.2257 18.3465 31.1277 19.4445 31.1277 20.799C31.1277 22.1535 32.2257 23.2515 33.5802 23.2515Z" fill="black"></path>
    <path d="M2.45247 4.90505C3.80695 4.90505 4.90497 3.80703 4.90497 2.45255C4.90497 1.09808 3.80695 6.10352e-05 2.45247 6.10352e-05C1.098 6.10352e-05 0 1.09808 0 2.45255C0 3.80703 1.098 4.90505 2.45247 4.90505Z" fill="black"></path>
    <path d="M18.0164 4.90499C19.3709 4.90499 20.4689 3.80697 20.4689 2.45249C20.4689 1.09802 19.3709 0 18.0164 0C16.662 0 15.564 1.09802 15.564 2.45249C15.564 3.80697 16.662 4.90499 18.0164 4.90499Z" fill="black"></path>
    <path d="M33.5802 4.90499C34.9346 4.90499 36.0327 3.80697 36.0327 2.45249C36.0327 1.09802 34.9346 0 33.5802 0C32.2257 0 31.1277 1.09802 31.1277 2.45249C31.1277 3.80697 32.2257 4.90499 33.5802 4.90499Z" fill="black"></path>
  </symbol>
  <symbol fill="none"  viewBox="0 0 68 68" id="experience">
    <g clip-path="url(#clip0_51:174)">
      <path d="M24.0418 18.9377L22.8918 19.3545C21.1169 19.9981 19.7927 21.5507 19.4358 23.4075L19.0456 25.4523C18.8509 26.4651 19.116 27.5024 19.7733 28.2978C20.4309 29.094 21.4004 29.5506 22.4329 29.5506H32.4014C33.4259 29.5506 34.3905 29.1 35.048 28.3143C35.7049 27.5292 35.9782 26.5014 35.7978 25.4943L35.4339 23.4603C35.0967 21.5742 33.7682 19.9964 31.9664 19.3425L30.7472 18.9007V17.1037C30.7472 17.0533 30.7423 17.0041 30.735 16.9556C31.6245 16.0501 32.1339 14.8154 32.1339 13.5521V10.8747C32.1339 8.2612 30.0076 6.13501 27.394 6.13501C24.7804 6.13501 22.6536 8.2612 22.6536 10.8747V13.6355C22.6536 14.9341 23.1891 16.1197 24.0502 16.9807C24.0451 17.0211 24.0418 17.0619 24.0418 17.1036V18.9377ZM33.4725 23.8109L33.8364 25.8452C33.9127 26.2703 33.7973 26.7042 33.5198 27.0357C33.242 27.3677 32.8342 27.5583 32.4011 27.5583H22.4326C21.9963 27.5583 21.5867 27.3655 21.3089 27.0291C21.0316 26.6933 20.9196 26.2557 21.002 25.8271L21.3922 23.7823C21.617 22.612 22.4519 21.633 23.5703 21.2276L24.3236 20.9546C24.3425 20.974 24.3615 20.9935 24.3819 21.0115C25.2403 21.762 26.317 22.1373 27.3944 22.1372C28.4704 22.1372 29.5469 21.7627 30.4054 21.0136C30.4363 20.9866 30.4647 20.9575 30.4918 20.9273L31.2864 21.2153C32.4225 21.6273 33.26 22.6218 33.4725 23.8109ZM24.6458 10.8747C24.6458 9.35983 25.8785 8.1272 27.3936 8.1272C28.6723 8.1272 29.7467 9.00642 30.0518 10.1911C29.9238 10.2537 29.7924 10.3128 29.6579 10.3665C28.4331 10.8569 27.4438 10.7918 27.161 10.5937C26.7105 10.2778 26.0895 10.3867 25.7735 10.8372C25.4577 11.2877 25.5667 11.9088 26.0171 12.2247C26.5036 12.5659 27.1639 12.7365 27.9175 12.7365C28.6022 12.7365 29.3639 12.5942 30.1415 12.3128V13.5518C30.1415 14.3132 29.8266 15.0588 29.2774 15.5974C29.0232 15.8468 28.7319 16.04 28.4192 16.1734C28.3972 16.1817 28.3757 16.1908 28.3546 16.2006C28.0333 16.3277 27.6901 16.3916 27.3394 16.3824C25.854 16.3539 24.6458 15.1215 24.6458 13.6353V10.8747ZM27.3011 18.3745C27.3316 18.375 27.3617 18.3753 27.3921 18.3753C27.8595 18.3753 28.3174 18.305 28.7549 18.1702V19.7638C27.9247 20.2757 26.8634 20.2754 26.0342 19.763V18.1731C26.4372 18.2952 26.8618 18.366 27.3011 18.3745Z" fill="#EA6628"></path>
      <path d="M11.7225 46.6045H42.7436C43.2938 46.6045 43.7396 46.1586 43.7396 45.6084C43.7396 45.0582 43.2938 44.6123 42.7436 44.6123H11.7225C11.1723 44.6123 10.7264 45.0582 10.7264 45.6084C10.7264 46.1586 11.1723 46.6045 11.7225 46.6045Z" fill="#EA6628"></path>
      <path d="M11.7225 51.9756H42.7436C43.2938 51.9756 43.7396 51.5297 43.7396 50.9795C43.7396 50.4292 43.2938 49.9834 42.7436 49.9834H11.7225C11.1723 49.9834 10.7264 50.4292 10.7264 50.9795C10.7264 51.5297 11.1723 51.9756 11.7225 51.9756Z" fill="#EA6628"></path>
      <path d="M11.7225 57.3464H42.7436C43.2938 57.3464 43.7396 56.9006 43.7396 56.3503C43.7396 55.8001 43.2938 55.3542 42.7436 55.3542H11.7225C11.1723 55.3542 10.7264 55.8001 10.7264 56.3503C10.7264 56.9006 11.1723 57.3464 11.7225 57.3464Z" fill="#EA6628"></path>
      <path d="M11.7225 62.7175H42.7436C43.2938 62.7175 43.7396 62.2717 43.7396 61.7214C43.7396 61.1712 43.2938 60.7253 42.7436 60.7253H11.7225C11.1723 60.7253 10.7264 61.1712 10.7264 61.7214C10.7264 62.2717 11.1723 62.7175 11.7225 62.7175Z" fill="#EA6628"></path>
      <path d="M10.7264 34.8665C10.7264 35.4167 11.1723 35.8625 11.7225 35.8625H42.7436C43.2938 35.8625 43.7396 35.4167 43.7396 34.8665C43.7396 34.3162 43.2938 33.8704 42.7436 33.8704H11.7225C11.1723 33.8704 10.7264 34.3163 10.7264 34.8665Z" fill="#EA6628"></path>
      <path d="M11.7225 41.2336H42.7436C43.2938 41.2336 43.7396 40.7878 43.7396 40.2375C43.7396 39.6873 43.2938 39.2415 42.7436 39.2415H11.7225C11.1723 39.2415 10.7264 39.6873 10.7264 40.2375C10.7264 40.7878 11.1723 41.2336 11.7225 41.2336Z" fill="#EA6628"></path>
      <path d="M8.04437 46.6083C8.5966 46.6083 9.04431 46.1607 9.04431 45.6085C9.04431 45.0564 8.5966 44.6086 8.04437 44.6086C7.49213 44.6086 7.04456 45.0562 7.04456 45.6085C7.04456 46.1607 7.49227 46.6083 8.04437 46.6083Z" fill="#EA6628"></path>
      <path d="M8.04437 35.8663C8.5966 35.8663 9.04431 35.4187 9.04431 34.8665C9.04431 34.3143 8.5966 33.8667 8.04437 33.8667C7.49213 33.8667 7.04456 34.3143 7.04456 34.8665C7.04456 35.4187 7.49227 35.8663 8.04437 35.8663Z" fill="#EA6628"></path>
      <path d="M8.04437 41.2374C8.5966 41.2374 9.04431 40.7898 9.04431 40.2376C9.04431 39.6854 8.5966 39.2378 8.04437 39.2378C7.49213 39.2378 7.04456 39.6854 7.04456 40.2376C7.04456 40.7898 7.49227 41.2374 8.04437 41.2374Z" fill="#EA6628"></path>
      <path d="M8.04437 51.9791C8.5966 51.9791 9.04431 51.5315 9.04431 50.9793C9.04431 50.4271 8.5966 49.9795 8.04437 49.9795C7.49213 49.9795 7.04456 50.4271 7.04456 50.9793C7.04456 51.5315 7.49227 51.9791 8.04437 51.9791Z" fill="#EA6628"></path>
      <path d="M8.04437 57.3502C8.5966 57.3502 9.04431 56.9026 9.04431 56.3504C9.04431 55.7982 8.5966 55.3506 8.04437 55.3506C7.49213 55.3506 7.04456 55.7982 7.04456 56.3504C7.04456 56.9025 7.49227 57.3502 8.04437 57.3502Z" fill="#EA6628"></path>
      <path d="M8.04437 62.7211C8.5966 62.7211 9.04431 62.2735 9.04431 61.7212C9.04431 61.1691 8.5966 60.7214 8.04437 60.7214C7.49213 60.7214 7.04456 61.169 7.04456 61.7212C7.04456 62.2733 7.49227 62.7211 8.04437 62.7211Z" fill="#EA6628"></path>
      <path d="M64.4977 15.6879C64.0958 15.1793 63.7159 14.6986 63.5322 14.2558C63.3341 13.7778 63.256 13.1463 63.1734 12.4775C63.0285 11.3058 62.8643 9.97781 61.9376 9.05117C61.0108 8.12454 59.6827 7.96038 58.511 7.81548C57.842 7.73287 57.2102 7.65478 56.7322 7.45662C56.2893 7.27295 55.8088 6.89337 55.3 6.49134C54.5999 5.93818 53.83 5.33083 52.9197 5.05524V4.75389C52.9199 2.1327 50.787 0 48.1654 0H6.66897C4.04739 0 1.91455 2.1327 1.91455 4.75402V8.59881C1.91455 9.14906 2.3604 9.59491 2.91064 9.59491C3.46089 9.59491 3.90674 9.14906 3.90674 8.59881V4.75402C3.90674 3.23106 5.14588 1.99219 6.66897 1.99219H48.1654C49.6885 1.99219 50.9277 3.23106 50.9277 4.75402V5.05551C50.0176 5.33123 49.248 5.93831 48.5479 6.49148C48.0391 6.89337 47.5586 7.27308 47.1158 7.45676C46.6378 7.65478 46.006 7.73287 45.3371 7.81562C44.1654 7.96038 42.8374 8.12454 41.9105 9.05117C40.9836 9.97794 40.8194 11.3059 40.6745 12.4776C40.5919 13.1463 40.5138 13.778 40.3157 14.256C40.132 14.6988 39.7523 15.1794 39.3503 15.6881C38.606 16.6299 37.7626 17.6973 37.7626 19.0638C37.7626 20.4303 38.6061 21.4977 39.3503 22.4395C39.7522 22.9481 40.132 23.4288 40.3157 23.8716C40.5138 24.3496 40.5919 24.9811 40.6745 25.6501C40.8194 26.8216 40.9836 28.1496 41.9104 29.0762C42.8371 30.003 44.1653 30.167 45.3369 30.3119C45.6862 30.3551 46.0248 30.3975 46.3373 30.4559V45.5125C46.3373 46.1025 46.6666 46.6295 47.197 46.8877C47.7272 47.1463 48.3451 47.0807 48.8101 46.7167L50.9275 45.0588V63.2461C50.9275 64.7691 49.6884 66.0079 48.1653 66.0079H6.66897C5.14588 66.0079 3.90674 64.7691 3.90674 63.2461V12.9852C3.90674 12.435 3.46089 11.9891 2.91064 11.9891C2.3604 11.9891 1.91455 12.435 1.91455 12.9852V63.246C1.91455 65.8673 4.04739 68 6.66897 68H48.1654C50.787 68 52.9199 65.8673 52.9199 63.246V45.0586L55.0373 46.7164C55.3137 46.9329 55.6444 47.0439 55.9788 47.0439C56.2067 47.0439 56.4362 46.9923 56.6514 46.8875C57.1818 46.6293 57.5115 46.1023 57.5115 45.5123V34.3963C57.5115 33.8461 57.0656 33.4002 56.5154 33.4002C55.9651 33.4002 55.5193 33.8461 55.5193 34.3963V44.5638L52.8714 42.4907C52.6038 42.2789 52.2672 42.1621 51.9236 42.1621C51.58 42.1621 51.2435 42.2789 50.9801 42.4872L48.3293 44.5627V31.4641C48.4016 31.5207 48.4742 31.5779 48.5478 31.6359C49.4897 32.3802 50.5573 33.2234 51.9239 33.2234C53.2904 33.2234 54.358 32.3801 55.2999 31.6361C55.8087 31.2342 56.2893 30.8543 56.7321 30.6707C57.2101 30.4726 57.8419 30.3945 58.5109 30.3118C59.6825 30.167 61.0105 30.0029 61.9376 29.0762C62.8642 28.1495 63.0284 26.8215 63.1732 25.6499C63.256 24.9811 63.3341 24.3494 63.5322 23.8715C63.7159 23.4287 64.0956 22.948 64.4977 22.4393C65.2419 21.4976 66.0853 20.4301 66.0853 19.0636C66.0853 17.6971 65.2418 16.6297 64.4977 15.6879ZM62.9346 21.2042C62.466 21.7972 61.9815 22.4102 61.6921 23.1083C61.3902 23.8361 61.2916 24.6339 61.1962 25.4054C61.0805 26.3412 60.9714 27.2251 60.5291 27.6674C60.0867 28.1096 59.2027 28.2188 58.2668 28.3345C57.4951 28.4298 56.6974 28.5284 55.9694 28.8303C55.2713 29.1197 54.6582 29.604 54.0652 30.0726C53.311 30.6683 52.5987 31.2311 51.9242 31.2311C51.2496 31.2311 50.5373 30.6684 49.7831 30.0726C49.1901 29.6042 48.577 29.1197 47.879 28.8303C47.8309 28.8104 47.6641 28.7469 47.6281 28.7357C46.9697 28.5067 46.2654 28.419 45.5814 28.3345C44.6455 28.2188 43.7615 28.1095 43.3191 27.6672C42.877 27.2251 42.7677 26.3412 42.652 25.4056C42.5566 24.6339 42.4581 23.8364 42.1562 23.1083C41.8667 22.4102 41.3823 21.7972 40.9137 21.2042C40.3181 20.4501 39.7552 19.7379 39.7552 19.0636C39.7552 18.3894 40.3179 17.6772 40.9137 16.9231C41.3823 16.3301 41.8668 15.717 42.1562 15.019C42.4581 14.2912 42.5568 13.4934 42.652 12.7218C42.7677 11.786 42.877 10.9022 43.3192 10.4599C43.7616 10.0176 44.6456 9.90848 45.5816 9.7928C46.3532 9.69744 47.1509 9.59889 47.879 9.29701C48.577 9.00761 49.1901 8.52324 49.7831 8.05468C50.5357 7.46008 51.2468 6.89855 51.9202 6.89642C51.9214 6.89642 51.9227 6.89655 51.9239 6.89655C51.9252 6.89655 51.9266 6.89642 51.9279 6.89642C52.6014 6.89841 53.3125 7.46008 54.0652 8.05468C54.6582 8.52311 55.2713 9.00761 55.9694 9.29701C56.6973 9.59889 57.4952 9.69757 58.2669 9.7928C59.2028 9.90848 60.0868 10.0178 60.5291 10.46C60.9714 10.9023 61.0807 11.786 61.1963 12.7218C61.2917 13.4934 61.3902 14.291 61.6921 15.019C61.9817 15.717 62.466 16.3301 62.9346 16.9231C63.5302 17.6772 64.0931 18.3894 64.0931 19.0636C64.0931 19.7379 63.5304 20.4502 62.9346 21.2042Z" fill="#EA6628"></path>
      <path d="M58.319 15.8982L54.9294 14.9391L52.9694 12.0119C52.7353 11.6624 52.3446 11.4539 51.9239 11.4539C51.5033 11.4539 51.1125 11.6625 50.8784 12.0119L48.9185 14.9391L45.5286 15.8983C45.1238 16.0129 44.8045 16.3204 44.6746 16.7204C44.5447 17.1204 44.6226 17.5567 44.8826 17.8869L47.0611 20.6551L46.9259 24.1742C46.9096 24.5947 47.103 24.9934 47.4434 25.2409C47.6619 25.3996 47.9207 25.4817 48.1825 25.4817C48.3288 25.4817 48.476 25.456 48.6173 25.404L51.9237 24.1877L55.2298 25.4038C55.6246 25.5494 56.0633 25.4883 56.4037 25.2411C56.7441 24.994 56.9377 24.5954 56.9215 24.1748L56.7863 20.655L58.965 17.8868C59.225 17.5562 59.3027 17.1202 59.1727 16.7201C59.0432 16.3201 58.7239 16.0128 58.319 15.8982ZM55.0535 19.6359C54.8695 19.8702 54.7742 20.1632 54.7855 20.4619L54.8888 23.1558L52.3584 22.225C52.078 22.1218 51.7692 22.1219 51.4894 22.2248L48.9586 23.1558L49.0621 20.4609C49.0733 20.1633 48.9779 19.8703 48.7934 19.6352L47.1261 17.5166L49.7211 16.7826C50.0081 16.7011 50.2577 16.5197 50.4236 16.2719L51.9237 14.0314L53.4237 16.2716C53.5897 16.5196 53.8392 16.701 54.1268 16.7827L56.7213 17.5166L55.0535 19.6359Z" fill="#EA6628"></path>
    </g>
    <defs>
      <clipPath id="clip0_51:174">
        <rect width="68" height="68" fill="white"></rect>
      </clipPath>
    </defs>
  </symbol>
  <symbol fill="none" viewBox="0 0 80 80" id="gear">
    <path d="M52.5 7.5H55V10H52.5V7.5Z" fill="#4C858B"></path>
    <path d="M39.6035 13.8787L41.3713 12.1109L43.139 13.8787L41.3713 15.6464L39.6035 13.8787Z" fill="#4C858B"></path>
    <path d="M69.9375 48.0426L58.0862 54.8864C57.4868 54.2961 56.7462 53.8692 55.935 53.6464L38.9075 49.0839C38.0152 48.8457 37.0813 48.8073 36.1725 48.9714L25 51.0001V48.7501C25 48.4186 24.8683 48.1007 24.6339 47.8663C24.3995 47.6318 24.0815 47.5001 23.75 47.5001H11.25C10.9185 47.5001 10.6005 47.6318 10.3661 47.8663C10.1317 48.1007 10 48.4186 10 48.7501V50.0001H3.75C3.41848 50.0001 3.10054 50.1318 2.86612 50.3663C2.6317 50.6007 2.5 50.9186 2.5 51.2501V73.7502C2.5 74.0817 2.6317 74.3996 2.86612 74.634C3.10054 74.8685 3.41848 75.0002 3.75 75.0002H10V76.2502C10 76.5817 10.1317 76.8996 10.3661 77.134C10.6005 77.3685 10.9185 77.5002 11.25 77.5002H23.75C24.0815 77.5002 24.3995 77.3685 24.6339 77.134C24.8683 76.8996 25 76.5817 25 76.2502V72.6464L44.3425 74.7964C45.7731 74.9536 47.2141 74.6137 48.4237 73.8339L74.9375 56.7089C75.7012 56.2736 76.3353 55.6429 76.7747 54.8815C77.214 54.1201 77.4428 53.2555 77.4375 52.3764C77.4379 51.4985 77.2072 50.636 76.7685 49.8756C76.3298 49.1151 75.6987 48.4836 74.9385 48.0445C74.1784 47.6054 73.316 47.3741 72.4381 47.374C71.5602 47.3739 70.6978 47.605 69.9375 48.0439V48.0426ZM5 72.5002V52.5001H10V72.5002H5ZM22.5 75.0002H12.5V50.0001H22.5V75.0002ZM73.6337 54.5752L47.0662 71.7339C46.34 72.2007 45.4758 72.4045 44.6175 72.3114L25 70.1314V53.5439L36.625 51.4314C37.1698 51.3314 37.73 51.354 38.265 51.4977L55.2925 56.0602C55.933 56.2319 56.479 56.651 56.8105 57.2253C57.142 57.7997 57.2317 58.4822 57.06 59.1227C56.8883 59.7632 56.4691 60.3092 55.8948 60.6407C55.3205 60.9721 54.638 61.0619 53.9975 60.8902L41.5737 57.5627C41.4137 57.515 41.2457 57.5 41.0797 57.5184C40.9137 57.5368 40.7531 57.5882 40.6074 57.6697C40.4616 57.7512 40.3337 57.8611 40.2311 57.9929C40.1285 58.1246 40.0534 58.2756 40.0101 58.4369C39.9668 58.5982 39.9563 58.7665 39.9792 58.932C40.002 59.0974 40.0578 59.2565 40.1432 59.4C40.2286 59.5435 40.3419 59.6685 40.4764 59.7675C40.6109 59.8665 40.7638 59.9375 40.9262 59.9764L53.3462 63.3052C53.9806 63.4753 54.6423 63.5187 55.2935 63.4331C55.9446 63.3474 56.5725 63.1343 57.1413 62.8059C57.7101 62.4775 58.2087 62.0403 58.6084 61.5192C59.0082 60.9981 59.3014 60.4033 59.4712 59.7689C59.7112 58.8622 59.6891 57.906 59.4075 57.0114L71.1825 50.2114C71.469 50.0504 71.7845 49.9473 72.1108 49.9082C72.4371 49.8691 72.768 49.8946 73.0845 49.9834C73.4009 50.0721 73.6968 50.2223 73.9553 50.4254C74.2137 50.6285 74.4296 50.8805 74.5906 51.167C74.7517 51.4535 74.8547 51.769 74.8938 52.0953C74.9329 52.4217 74.9074 52.7525 74.8186 53.069C74.7299 53.3855 74.5797 53.6814 74.3766 53.9398C74.1735 54.1982 73.9215 54.4141 73.635 54.5752H73.6337Z" fill="#4C858B"></path>
    <path d="M76.25 20H70.0987C69.9862 19.7062 69.865 19.4112 69.7313 19.1125L74.0837 14.7587C74.3181 14.5243 74.4497 14.2065 74.4497 13.875C74.4497 13.5435 74.3181 13.2257 74.0837 12.9912L67.0087 5.91625C66.7743 5.68191 66.4565 5.55027 66.125 5.55027C65.7935 5.55027 65.4757 5.68191 65.2412 5.91625L60.8887 10.2688C60.59 10.135 60.2938 10.0188 60 9.90125V3.75C60 3.41848 59.8683 3.10054 59.6339 2.86612C59.3995 2.6317 59.0815 2.5 58.75 2.5H48.75C48.4185 2.5 48.1005 2.6317 47.8661 2.86612C47.6317 3.10054 47.5 3.41848 47.5 3.75V9.90125C47.2062 10.0138 46.91 10.135 46.6113 10.2688L42.2587 5.91625C42.0243 5.68191 41.7065 5.55027 41.375 5.55027C41.0435 5.55027 40.7257 5.68191 40.4913 5.91625L33.4162 12.9912C33.1819 13.2257 33.0503 13.5435 33.0503 13.875C33.0503 14.2065 33.1819 14.5243 33.4162 14.7587L37.7688 19.1112C37.635 19.41 37.5187 19.7062 37.4012 20H31.25C30.9185 20 30.6005 20.1317 30.3661 20.3661C30.1317 20.6005 30 20.9185 30 21.25V31.25C30 31.5815 30.1317 31.8995 30.3661 32.1339C30.6005 32.3683 30.9185 32.5 31.25 32.5H37.4012C37.5137 32.7938 37.635 33.09 37.7688 33.3888L33.4162 37.7412C33.1819 37.9757 33.0503 38.2935 33.0503 38.625C33.0503 38.9565 33.1819 39.2743 33.4162 39.5088L40.4913 46.5837C40.7257 46.8181 41.0435 46.9497 41.375 46.9497C41.7065 46.9497 42.0243 46.8181 42.2587 46.5837L46.6113 42.2313C46.91 42.365 47.2062 42.4812 47.5 42.5987V48.75C47.5 49.0815 47.6317 49.3995 47.8661 49.6339C48.1005 49.8683 48.4185 50 48.75 50H58.75C59.0815 50 59.3995 49.8683 59.6339 49.6339C59.8683 49.3995 60 49.0815 60 48.75V42.5987C60.2938 42.4862 60.59 42.365 60.8887 42.2313L65.2412 46.5837C65.4801 46.8096 65.7963 46.9354 66.125 46.9354C66.4537 46.9354 66.7699 46.8096 67.0087 46.5837L74.0837 39.5088C74.3181 39.2743 74.4497 38.9565 74.4497 38.625C74.4497 38.2935 74.3181 37.9757 74.0837 37.7412L69.7313 33.3875C69.865 33.0887 69.9812 32.7938 70.0987 32.5H76.25C76.5815 32.5 76.8995 32.3683 77.1339 32.1339C77.3683 31.8995 77.5 31.5815 77.5 31.25V21.25C77.5 20.9185 77.3683 20.6005 77.1339 20.3661C76.8995 20.1317 76.5815 20 76.25 20ZM75 30H69.2125C68.9467 30.0002 68.6879 30.0852 68.4737 30.2426C68.2595 30.3999 68.101 30.6214 68.0212 30.875C67.7749 31.6376 67.4693 32.3799 67.1075 33.095C66.9902 33.3296 66.9497 33.5951 66.9916 33.854C67.0336 34.1128 67.1559 34.352 67.3413 34.5375L71.4325 38.625L66.125 43.9325L62.0337 39.8412C61.8482 39.6559 61.6091 39.5336 61.3502 39.4916C61.0913 39.4497 60.8258 39.4902 60.5912 39.6075C59.8761 39.9694 59.1339 40.2749 58.3712 40.5212C58.1177 40.601 57.8962 40.7595 57.7388 40.9737C57.5815 41.1879 57.4965 41.4467 57.4963 41.7125V47.5H50V41.7125C49.9998 41.4467 49.9148 41.1879 49.7574 40.9737C49.6001 40.7595 49.3786 40.601 49.125 40.5212C48.3624 40.2749 47.6201 39.9694 46.905 39.6075C46.6704 39.4902 46.4049 39.4497 46.146 39.4916C45.8872 39.5336 45.648 39.6559 45.4625 39.8412L41.375 43.9325L36.0675 38.625L40.1587 34.5338C40.3441 34.3482 40.4664 34.1091 40.5084 33.8502C40.5503 33.5913 40.5098 33.3258 40.3925 33.0912C40.0306 32.3761 39.7251 31.6339 39.4788 30.8713C39.399 30.6177 39.2405 30.3962 39.0263 30.2388C38.8121 30.0815 38.5533 29.9965 38.2875 29.9963H32.5V22.5H38.2875C38.5533 22.4998 38.8121 22.4148 39.0263 22.2574C39.2405 22.1001 39.399 21.8786 39.4788 21.625C39.7251 20.8624 40.0306 20.1201 40.3925 19.405C40.5098 19.1704 40.5503 18.9049 40.5084 18.646C40.4664 18.3872 40.3441 18.148 40.1587 17.9625L36.0675 13.875L41.375 8.5675L45.4663 12.6587C45.6518 12.8441 45.8909 12.9664 46.1498 13.0084C46.4087 13.0503 46.6742 13.0098 46.9088 12.8925C47.6226 12.5308 48.3636 12.2253 49.125 11.9788C49.3786 11.899 49.6001 11.7405 49.7574 11.5263C49.9148 11.3121 49.9998 11.0533 50 10.7875V5H57.5V10.7875C57.5002 11.0533 57.5852 11.3121 57.7426 11.5263C57.8999 11.7405 58.1214 11.899 58.375 11.9788C59.1376 12.2251 59.8799 12.5306 60.595 12.8925C60.8296 13.0098 61.0951 13.0503 61.354 13.0084C61.6128 12.9664 61.852 12.8441 62.0375 12.6587L66.125 8.5675L71.4325 13.875L67.3413 17.9663C67.1559 18.1518 67.0336 18.3909 66.9916 18.6498C66.9497 18.9087 66.9902 19.1742 67.1075 19.4088C67.4693 20.1239 67.7749 20.8661 68.0212 21.6287C68.101 21.8823 68.2595 22.1038 68.4737 22.2612C68.6879 22.4185 68.9467 22.5035 69.2125 22.5037H75V30Z" fill="#4C858B"></path>
    <path d="M53.75 16.25C51.7722 16.25 49.8388 16.8365 48.1943 17.9353C46.5498 19.0341 45.2681 20.5959 44.5112 22.4232C43.7543 24.2504 43.5563 26.2611 43.9422 28.2009C44.328 30.1407 45.2804 31.9225 46.6789 33.3211C48.0775 34.7196 49.8593 35.672 51.7991 36.0579C53.7389 36.4437 55.7496 36.2457 57.5768 35.4888C59.4041 34.7319 60.9659 33.4502 62.0647 31.8057C63.1635 30.1612 63.75 28.2278 63.75 26.25C63.747 23.5987 62.6925 21.0569 60.8178 19.1822C58.9431 17.3075 56.4013 16.253 53.75 16.25ZM53.75 33.75C52.2666 33.75 50.8166 33.3101 49.5832 32.486C48.3499 31.6619 47.3886 30.4906 46.8209 29.1201C46.2533 27.7497 46.1047 26.2417 46.3941 24.7868C46.6835 23.332 47.3978 21.9956 48.4467 20.9467C49.4956 19.8978 50.832 19.1835 52.2868 18.8941C53.7417 18.6047 55.2497 18.7532 56.6201 19.3209C57.9906 19.8886 59.1619 20.8499 59.986 22.0832C60.8101 23.3166 61.25 24.7666 61.25 26.25C61.248 28.2385 60.4572 30.145 59.0511 31.5511C57.645 32.9572 55.7385 33.748 53.75 33.75Z" fill="#4C858B"></path>
    <path d="M17.5 73.75C18.2417 73.75 18.9667 73.5301 19.5834 73.118C20.2001 72.706 20.6807 72.1203 20.9645 71.4351C21.2484 70.7498 21.3226 69.9958 21.1779 69.2684C21.0333 68.541 20.6761 67.8728 20.1517 67.3484C19.6272 66.8239 18.959 66.4668 18.2316 66.3221C17.5042 66.1774 16.7502 66.2516 16.0649 66.5355C15.3797 66.8193 14.794 67.2999 14.382 67.9166C13.9699 68.5333 13.75 69.2583 13.75 70C13.75 70.9946 14.1451 71.9484 14.8483 72.6516C15.5516 73.3549 16.5054 73.75 17.5 73.75ZM17.5 68.75C17.7472 68.75 17.9889 68.8233 18.1945 68.9607C18.4 69.098 18.5602 69.2932 18.6548 69.5216C18.7495 69.7501 18.7742 70.0014 18.726 70.2439C18.6778 70.4863 18.5587 70.7091 18.3839 70.8839C18.2091 71.0587 17.9863 71.1778 17.7439 71.226C17.5014 71.2742 17.2501 71.2495 17.0216 71.1548C16.7932 71.0602 16.598 70.9 16.4607 70.6945C16.3233 70.4889 16.25 70.2472 16.25 70C16.25 69.6685 16.3817 69.3505 16.6161 69.1161C16.8505 68.8817 17.1685 68.75 17.5 68.75Z" fill="#4C858B"></path>
    <path d="M35 25H37.5V27.5H35V25Z" fill="#4C858B"></path>
    <path d="M39.6008 38.6248L41.3686 36.857L43.1364 38.6248L41.3686 40.3925L39.6008 38.6248Z" fill="#4C858B"></path>
    <path d="M52.5 42.5H55V45H52.5V42.5Z" fill="#4C858B"></path>
    <path d="M64.3469 38.6274L66.1147 36.8597L67.8825 38.6274L66.1147 40.3952L64.3469 38.6274Z" fill="#4C858B"></path>
    <path d="M70 25H72.5V27.5H70V25Z" fill="#4C858B"></path>
    <path d="M64.3496 13.8813L66.1174 12.1136L67.8851 13.8813L66.1174 15.6491L64.3496 13.8813Z" fill="#4C858B"></path>
  </symbol>
  <symbol fill="none" viewBox="0 0 79 79" id="guarantee">
    <g clip-path="url(#clip0_51:282)">
      <path d="M77.7256 0H6.37095C5.6679 0 5.09676 0.571145 5.09676 1.27419V5.09676H1.27419C0.571146 5.09676 0 5.6679 0 6.37095V57.3385C0 58.0434 0.571146 58.6127 1.27419 58.6127H26.1476C27.3609 60.0791 28.8721 61.2861 30.5806 62.1628V77.7255C30.5806 78.2401 30.8916 78.7067 31.367 78.9027C31.8423 79.1005 32.3898 78.991 32.7556 78.6264L36.9515 74.4306L41.1474 78.6264C41.3906 78.8697 41.7173 78.9997 42.0483 78.9997C42.2125 78.9997 42.3786 78.9692 42.5367 78.9027C43.0114 78.7067 43.3224 78.2401 43.3224 77.7255V62.1628C45.0303 61.2861 46.5409 60.0804 47.7554 58.6127H72.6288C73.3325 58.6127 73.903 58.0434 73.903 57.3385V53.5159H77.7256C78.4292 53.5159 78.9998 52.9467 78.9998 52.2418V1.27419C78.9998 0.571145 78.4292 0 77.7256 0ZM40.7741 74.6496L37.8524 71.7279C37.354 71.2295 36.549 71.2295 36.0506 71.7279L33.1289 74.6496V63.1669C34.3459 63.5122 35.625 63.7095 36.9515 63.7095C38.278 63.7095 39.5571 63.5122 40.7741 63.1669V74.6496ZM36.9515 61.1611C30.6291 61.1611 25.4838 56.017 25.4838 49.6934C25.4838 43.3697 30.6291 38.2257 36.9515 38.2257C43.2739 38.2257 48.4192 43.3697 48.4192 49.6934C48.4192 56.017 43.2739 61.1611 36.9515 61.1611ZM23.0007 50.9676H15.2001C14.6395 47.066 11.5455 43.9738 7.64514 43.4126V20.2968C11.5455 19.7356 14.6395 16.6422 15.2001 12.7419H58.7048C59.2654 16.6422 62.3588 19.7356 66.2591 20.2968V43.4139C62.3588 43.9738 59.2654 47.0672 58.7048 50.9688H50.9041C50.9408 50.547 50.9676 50.1239 50.9676 49.6934C50.9676 41.9655 44.6794 35.6773 36.9515 35.6773C29.2236 35.6773 22.9354 41.9655 22.9354 49.6934C22.9354 50.1239 22.9622 50.547 23.0007 50.9676ZM71.3546 56.0643H49.4209C49.8353 55.2568 50.1725 54.4056 50.4251 53.5159H59.8869C60.5906 53.5159 61.1611 52.9467 61.1611 52.2418C61.1611 48.729 64.0193 45.8708 67.5321 45.8708C68.2357 45.8708 68.8062 45.3015 68.8062 44.5966V19.1128C68.8062 18.4098 68.2357 17.8386 67.5321 17.8386C64.0193 17.8386 61.1611 14.9804 61.1611 11.4677C61.1611 10.7647 60.5906 10.1935 59.8869 10.1935H14.0161C13.313 10.1935 12.7419 10.7647 12.7419 11.4677C12.7419 14.9804 9.8843 17.8386 6.37095 17.8386C5.6679 17.8386 5.09676 18.4098 5.09676 19.1128V44.5966C5.09676 45.3015 5.6679 45.8708 6.37095 45.8708C9.8843 45.8708 12.7419 48.729 12.7419 52.2418C12.7419 52.9467 13.313 53.5159 14.0161 53.5159H23.4786C23.7305 54.4056 24.0684 55.2568 24.4821 56.0643H2.54838V7.64514H71.3546V56.0643ZM76.4514 50.9676H73.903V6.37095C73.903 5.6679 73.3325 5.09676 72.6288 5.09676H7.64514V2.54838H76.4514V50.9676Z" fill="#4C858B"></path>
      <path d="M36.9516 40.7742C32.0334 40.7742 28.0322 44.7766 28.0322 49.6935H30.5806C30.5806 46.1808 33.4388 43.3226 36.9516 43.3226V40.7742Z" fill="#4C858B"></path>
      <path d="M43.3226 49.6936C43.3226 53.2064 40.465 56.0646 36.9517 56.0646V58.613C41.8699 58.613 45.871 54.6106 45.871 49.6936H43.3226Z" fill="#4C858B"></path>
      <path d="M56.0644 21.6613V16.5645C56.0644 15.8614 55.4939 15.2903 54.7902 15.2903H19.1128C18.4098 15.2903 17.8386 15.8614 17.8386 16.5645V21.6613C17.8386 22.3643 18.4098 22.9354 19.1128 22.9354H54.7902C55.4939 22.9354 56.0644 22.3643 56.0644 21.6613ZM53.5161 20.3871H20.387V17.8387H53.5161V20.3871Z" fill="#4C858B"></path>
      <path d="M10.1936 25.4839H20.3871V28.0323H10.1936V25.4839Z" fill="#4C858B"></path>
      <path d="M10.1936 30.5806H20.3871V33.129H10.1936V30.5806Z" fill="#4C858B"></path>
      <path d="M22.9355 30.5806H63.7097V33.129H22.9355V30.5806Z" fill="#4C858B"></path>
      <path d="M22.9355 25.4839H63.7097V28.0323H22.9355V25.4839Z" fill="#4C858B"></path>
    </g>
    <defs>
      <clipPath id="clip0_51:282">
        <rect width="79" height="79" fill="white"></rect>
      </clipPath>
    </defs>
  </symbol>
  <symbol  class="header__favourites-icon" fill="none"  viewBox="0 0 23 23" id="heart">
    <path d="M11.5 20.7204C11.1725 20.7204 10.8569 20.6018 10.6108 20.3863C9.6817 19.5739 8.78589 18.8104 7.99555 18.1369L7.99152 18.1334C5.67436 16.1588 3.67341 14.4535 2.28118 12.7736C0.72489 10.8957 0 9.11514 0 7.16999C0 5.28011 0.648032 3.53658 1.8246 2.26035C3.0152 0.969017 4.64888 0.257812 6.42522 0.257812C7.75287 0.257812 8.96874 0.677551 10.039 1.50527C10.5791 1.92308 11.0687 2.43442 11.5 3.03086C11.9315 2.43442 12.4209 1.92308 12.9612 1.50527C14.0314 0.677551 15.2473 0.257812 16.5749 0.257812C18.3511 0.257812 19.9849 0.969017 21.1755 2.26035C22.3521 3.53658 23 5.28011 23 7.16999C23 9.11514 22.2752 10.8957 20.7189 12.7735C19.3267 14.4535 17.3259 16.1586 15.0091 18.133C14.2174 18.8076 13.3202 19.5723 12.3889 20.3867C12.1431 20.6018 11.8272 20.7204 11.5 20.7204V20.7204ZM6.42522 1.60512C5.02966 1.60512 3.74764 2.16208 2.81498 3.17352C1.86847 4.20023 1.34713 5.61948 1.34713 7.16999C1.34713 8.80595 1.95515 10.2691 3.31842 11.914C4.63607 13.504 6.59596 15.1742 8.86521 17.1081L8.86942 17.1116C9.66275 17.7877 10.5621 18.5542 11.498 19.3726C12.4397 18.5526 13.3404 17.7849 14.1353 17.1077C16.4043 15.1738 18.3641 13.504 19.6817 11.914C21.0448 10.2691 21.6528 8.80595 21.6528 7.16999C21.6528 5.61948 21.1315 4.20023 20.185 3.17352C19.2525 2.16208 17.9703 1.60512 16.5749 1.60512C15.5526 1.60512 14.614 1.9301 13.7852 2.57094C13.0466 3.14229 12.5321 3.86455 12.2305 4.36992C12.0754 4.6298 11.8023 4.78492 11.5 4.78492C11.1976 4.78492 10.9246 4.6298 10.7695 4.36992C10.468 3.86455 9.95351 3.14229 9.21476 2.57094C8.38599 1.9301 7.44737 1.60512 6.42522 1.60512V1.60512Z" fill="#E33E54"/>
  </symbol>
  <symbol fill="none"  viewBox="0 0 15 16" id="instagram">
    <path d="M10.9396 0H4.06036C1.82144 0 0 1.94287 0 4.33105V11.669C0 14.0571 1.82144 16 4.06036 16H10.9397C13.1785 16 15 14.0571 15 11.669V4.33105C15 1.94287 13.1785 0 10.9396 0V0ZM7.49999 12.3749C5.23841 12.3749 3.39855 10.4123 3.39855 7.99998C3.39855 5.58764 5.23841 3.62512 7.49999 3.62512C9.76156 3.62512 11.6014 5.58764 11.6014 7.99998C11.6014 10.4123 9.76156 12.3749 7.49999 12.3749ZM11.6995 4.65685C11.0312 4.65685 10.4876 4.07702 10.4876 3.36413C10.4876 2.65124 11.0312 2.07129 11.6995 2.07129C12.3678 2.07129 12.9115 2.65124 12.9115 3.36413C12.9115 4.07702 12.3678 4.65685 11.6995 4.65685Z" fill="#4C858B"></path>
    <path d="M7.49991 4.56311C5.72333 4.56311 4.27783 6.10486 4.27783 7.99999C4.27783 9.89501 5.72333 11.4369 7.49991 11.4369C9.2766 11.4369 10.722 9.89501 10.722 7.99999C10.722 6.10486 9.2766 4.56311 7.49991 4.56311Z" fill="#4C858B"></path>
    <path d="M11.6995 3.0094C11.5162 3.0094 11.3669 3.16858 11.3669 3.36413C11.3669 3.55969 11.5162 3.71887 11.6995 3.71887C11.883 3.71887 12.0322 3.55981 12.0322 3.36413C12.0322 3.16846 11.883 3.0094 11.6995 3.0094Z" fill="#4C858B"></path>
  </symbol>
  <symbol class="header__search-icon" fill="none"  viewBox="0 0 22 22" id="loupe">
    <g clip-path="url(#clip0_128:1405)">
      <path d="M21.7312 20.4352L15.475 14.179C16.6868 12.6821 17.4165 10.78 17.4165 8.70838C17.4165 3.90693 13.5097 0.00012207 8.70822 0.00012207C3.90677 0.00012207 0 3.90689 0 8.70834C0 13.5098 3.90681 17.4166 8.70826 17.4166C10.7799 17.4166 12.682 16.687 14.1789 15.4751L20.4351 21.7313C20.6138 21.9101 20.8484 21.9999 21.0831 21.9999C21.3178 21.9999 21.5525 21.9101 21.7312 21.7313C22.0896 21.3729 22.0896 20.7936 21.7312 20.4352ZM8.70826 15.5833C4.91695 15.5833 1.83333 12.4997 1.83333 8.70834C1.83333 4.91703 4.91695 1.83341 8.70826 1.83341C12.4996 1.83341 15.5832 4.91703 15.5832 8.70834C15.5832 12.4997 12.4995 15.5833 8.70826 15.5833Z" fill="#4C858B"></path>
    </g>
    <defs>
      <clipPath id="clip0_128:1405">
        <rect width="22" height="22" fill="white"></rect>
      </clipPath>
    </defs>
  </symbol>
  <symbol fill="none"  viewBox="0 0 12 17" id="marker">
    <path d="M6.35573 0.523438C3.3011 0.523438 0.815918 3.00861 0.815918 6.06324C0.815918 9.90257 6.36118 16.4609 6.36118 16.4609C6.36118 16.4609 11.8955 9.71376 11.8955 6.06324C11.8955 3.00861 9.41046 0.523438 6.35573 0.523438ZM8.02721 7.68529C7.56632 8.14608 6.96107 8.37653 6.35573 8.37653C5.75049 8.37653 5.14505 8.14608 4.68435 7.68529C3.76267 6.76371 3.76267 5.26412 4.68435 4.34244C5.13065 3.89595 5.72432 3.65004 6.35573 3.65004C6.98714 3.65004 7.58072 3.89605 8.02721 4.34244C8.94889 5.26412 8.94889 6.76371 8.02721 7.68529Z" fill="#4C858B"></path>
  </symbol>
  <symbol fill="none" viewBox="0 0 79 79" id="price-tag">
    <path d="M56.4198 55.1854L54.6741 53.4396L68.6137 39.5L34.0512 4.9375H13.5782V9.875H16.2593C16.5505 9.05141 17.1234 8.35727 17.8769 7.91527C18.6304 7.47327 19.5158 7.31186 20.3768 7.45958C21.2378 7.6073 22.0188 8.05463 22.5819 8.72251C23.1449 9.3904 23.4537 10.2358 23.4537 11.1094C23.4537 11.9829 23.1449 12.8284 22.5819 13.4962C22.0188 14.1641 21.2378 14.6115 20.3768 14.7592C19.5158 14.9069 18.6304 14.7455 17.8769 14.3035C17.1234 13.8615 16.5505 13.1673 16.2593 12.3438H13.5782V25.4105L37.9042 49.7365L36.1585 51.4822L11.471 26.7947C11.3563 26.6801 11.2654 26.544 11.2034 26.3943C11.1414 26.2445 11.1094 26.084 11.1095 25.9219V19.75H7.40633C6.09682 19.75 4.84095 19.2298 3.91499 18.3038C2.98903 17.3779 2.46883 16.122 2.46883 14.8125C2.46883 13.503 2.98903 12.2471 3.91499 11.3212C4.84095 10.3952 6.09682 9.875 7.40633 9.875H11.1095V3.70312C11.1095 3.37575 11.2395 3.06178 11.471 2.83029C11.7025 2.5988 12.0164 2.46875 12.3438 2.46875H34.5626C34.7247 2.46874 34.8852 2.50067 35.035 2.5627C35.1847 2.62473 35.3208 2.71565 35.4354 2.83027L71.2323 38.6271C71.3469 38.7418 71.4379 38.8778 71.4999 39.0276C71.5619 39.1774 71.5939 39.3379 71.5939 39.5C71.5939 39.6621 71.5619 39.8226 71.4999 39.9724C71.4379 40.1222 71.3469 40.2582 71.2323 40.3729L56.4198 55.1854ZM20.9845 11.1094C20.9841 10.7821 20.8539 10.4684 20.6225 10.2369C20.3911 10.0055 20.0773 9.87537 19.7501 9.875V12.3438C20.0773 12.3434 20.3911 12.2132 20.6225 11.9818C20.8539 11.7504 20.9841 11.4366 20.9845 11.1094ZM7.40633 12.3438C6.75157 12.3438 6.12363 12.6039 5.66065 13.0668C5.19767 13.5298 4.93758 14.1577 4.93758 14.8125C4.93758 15.4673 5.19767 16.0952 5.66065 16.5582C6.12363 17.0211 6.75157 17.2812 7.40633 17.2812H11.1095V12.3438H7.40633Z" fill="#4C858B"></path>
    <path d="M43.0202 26.8251C42.8337 27.421 42.5081 27.9639 42.0702 28.4091C41.6323 28.8542 41.0948 29.1887 40.5021 29.385C40.4855 29.9714 40.3345 30.5461 40.0606 31.0649C39.7867 31.5836 39.3973 32.0325 38.9224 32.3768C38.4124 32.7626 37.8186 33.0226 37.1893 33.1357C36.5599 33.2489 35.9128 33.2119 35.3004 33.028C34.9145 33.507 34.4261 33.8935 33.8712 34.159C33.3163 34.4246 32.709 34.5624 32.0938 34.5624C31.4786 34.5624 30.8713 34.4246 30.3164 34.159C29.7615 33.8935 29.2731 33.507 28.8872 33.028C28.2748 33.2119 27.6277 33.2488 26.9983 33.1357C26.369 33.0226 25.7752 32.7626 25.2652 32.3768C24.7903 32.0325 24.4009 31.5836 24.127 31.0649C23.8531 30.5461 23.7021 29.9714 23.6855 29.385C23.0928 29.1887 22.5553 28.8542 22.1174 28.4091C21.6796 27.9639 21.3539 27.421 21.1674 26.8251C20.9823 26.2622 20.9323 25.6636 21.0214 25.0778C21.1106 24.492 21.3363 23.9355 21.6805 23.4531C21.3363 22.9707 21.1106 22.4141 21.0214 21.8283C20.9323 21.2425 20.9823 20.644 21.1674 20.0811C21.3539 19.4852 21.6796 18.9422 22.1174 18.4971C22.5553 18.052 23.0928 17.7174 23.6855 17.5211C23.7021 16.9348 23.8531 16.36 24.127 15.8413C24.4009 15.3225 24.7903 14.8737 25.2652 14.5293C25.7752 14.1435 26.369 13.8835 26.9983 13.7704C27.6277 13.6572 28.2748 13.6942 28.8872 13.8782C29.2731 13.3991 29.7615 13.0127 30.3164 12.7471C30.8713 12.4816 31.4786 12.3438 32.0938 12.3438C32.709 12.3438 33.3163 12.4816 33.8712 12.7471C34.4261 13.0127 34.9145 13.3991 35.3004 13.8782C35.9128 13.6942 36.5599 13.6573 37.1893 13.7704C37.8186 13.8836 38.4124 14.1436 38.9224 14.5293C39.3973 14.8737 39.7867 15.3226 40.0606 15.8413C40.3345 16.36 40.4855 16.9348 40.5021 17.5211C41.0948 17.7174 41.6323 18.052 42.0702 18.4971C42.5081 18.9422 42.8337 19.4852 43.0202 20.0811C43.2053 20.644 43.2553 21.2425 43.1662 21.8283C43.077 22.4141 42.8513 22.9707 42.5071 23.4531C42.8513 23.9355 43.077 24.492 43.1662 25.0778C43.2553 25.6636 43.2053 26.2622 43.0202 26.8251ZM40.0696 22.4235C40.3364 22.2647 40.541 22.0195 40.6494 21.7285C40.7578 21.4375 40.7636 21.1182 40.6658 20.8236C40.5653 20.5015 40.3589 20.2229 40.0801 20.0329C39.8013 19.8429 39.4665 19.7528 39.13 19.7771C38.9284 19.7825 38.7286 19.7384 38.548 19.6487C38.3673 19.559 38.2115 19.4264 38.0939 19.2625C37.9764 19.0986 37.9008 18.9085 37.8738 18.7086C37.8467 18.5088 37.8691 18.3053 37.9389 18.1161C38.0477 17.8308 38.058 17.5173 37.9681 17.2254C37.8782 16.9336 37.6933 16.6802 37.4428 16.5056C37.1667 16.2887 36.826 16.1703 36.4749 16.1692C36.1237 16.1681 35.7823 16.2844 35.5048 16.4995C35.3461 16.6174 35.1613 16.6955 34.9661 16.7271C34.7709 16.7587 34.571 16.7429 34.3832 16.6811C34.1953 16.6193 34.0251 16.5133 33.8867 16.372C33.7484 16.2307 33.6461 16.0582 33.5883 15.8691C33.3504 15.0902 32.6602 14.8125 32.0938 14.8125C31.5274 14.8125 30.8372 15.0902 30.5993 15.8691C30.5415 16.0582 30.4392 16.2307 30.3009 16.372C30.1625 16.5133 29.9923 16.6193 29.8045 16.6811C29.6166 16.7429 29.4167 16.7587 29.2215 16.7271C29.0263 16.6955 28.8415 16.6174 28.6828 16.4995C28.4054 16.2842 28.0639 16.1678 27.7127 16.1689C27.3616 16.17 27.0208 16.2885 26.7448 16.5056C26.4943 16.6802 26.3094 16.9336 26.2195 17.2254C26.1296 17.5173 26.1399 17.8308 26.2487 18.1161C26.3185 18.3053 26.3409 18.5088 26.3138 18.7086C26.2868 18.9085 26.2112 19.0986 26.0937 19.2625C25.9762 19.4264 25.8203 19.559 25.6396 19.6487C25.459 19.7384 25.2592 19.7825 25.0576 19.7771C24.7212 19.7534 24.3866 19.8438 24.108 20.0336C23.8293 20.2235 23.6228 20.5018 23.5218 20.8236C23.424 21.1182 23.4298 21.4375 23.5382 21.7285C23.6466 22.0195 23.8512 22.2647 24.118 22.4235C24.2882 22.536 24.4278 22.6889 24.5244 22.8686C24.621 23.0483 24.6716 23.2491 24.6716 23.4531C24.6716 23.6571 24.621 23.8579 24.5244 24.0376C24.4278 24.2172 24.2882 24.3702 24.118 24.4827C23.8512 24.6415 23.6466 24.8867 23.5382 25.1777C23.4298 25.4686 23.424 25.7879 23.5218 26.0826C23.6224 26.4046 23.8289 26.6831 24.1076 26.873C24.3864 27.063 24.7211 27.1532 25.0576 27.129C25.2592 27.1237 25.459 27.1677 25.6396 27.2574C25.8203 27.3471 25.9762 27.4797 26.0937 27.6436C26.2112 27.8075 26.2868 27.9977 26.3138 28.1975C26.3409 28.3974 26.3185 28.6008 26.2487 28.7901C26.1399 29.0754 26.1296 29.3889 26.2195 29.6807C26.3094 29.9726 26.4943 30.226 26.7448 30.4006C27.0209 30.6175 27.3616 30.7359 27.7127 30.737C28.0639 30.7381 28.4053 30.6218 28.6828 30.4066C28.8415 30.2887 29.0263 30.2107 29.2215 30.1791C29.4167 30.1475 29.6166 30.1632 29.8045 30.225C29.9923 30.2868 30.1625 30.3928 30.3009 30.5342C30.4392 30.6755 30.5415 30.848 30.5993 31.0371C30.8372 31.816 31.5274 32.0937 32.0938 32.0937C32.6602 32.0937 33.3504 31.816 33.5883 31.0371C33.6461 30.848 33.7484 30.6755 33.8867 30.5342C34.0251 30.3928 34.1953 30.2868 34.3832 30.225C34.571 30.1632 34.7709 30.1475 34.9661 30.1791C35.1613 30.2107 35.3461 30.2887 35.5048 30.4066C35.7823 30.6217 36.1237 30.738 36.4749 30.7369C36.826 30.7358 37.1667 30.6174 37.4428 30.4006C37.6933 30.226 37.8782 29.9726 37.9681 29.6807C38.058 29.3889 38.0477 29.0754 37.9389 28.7901C37.8691 28.6008 37.8467 28.3974 37.8738 28.1975C37.9008 27.9977 37.9764 27.8075 38.0939 27.6436C38.2115 27.4797 38.3673 27.3471 38.548 27.2574C38.7286 27.1677 38.9284 27.1237 39.13 27.129C39.4666 27.1536 39.8015 27.0636 40.0804 26.8736C40.3592 26.6836 40.5655 26.4048 40.6658 26.0826C40.7636 25.7879 40.7578 25.4686 40.6494 25.1777C40.541 24.8867 40.3364 24.6415 40.0696 24.4827C39.8994 24.3702 39.7598 24.2172 39.6632 24.0376C39.5666 23.8579 39.516 23.6571 39.516 23.4531C39.516 23.2491 39.5666 23.0483 39.6632 22.8686C39.7598 22.6889 39.8994 22.536 40.0696 22.4235Z" fill="#4C858B"></path>
    <path d="M57.6541 32.4553L65.0603 39.8616L63.3146 41.6072L55.9084 34.201L57.6541 32.4553Z" fill="#4C858B"></path>
    <path d="M53.9511 36.1585L61.3573 43.5647L59.6116 45.3104L52.2054 37.9041L53.9511 36.1585Z" fill="#4C858B"></path>
    <path d="M50.2478 39.8616L57.6541 47.2678L55.9084 49.0135L48.5022 41.6073L50.2478 39.8616Z" fill="#4C858B"></path>
    <path d="M46.5447 43.5647L53.9509 50.9709L52.2053 52.7166L44.799 45.3104L46.5447 43.5647Z" fill="#4C858B"></path>
    <path d="M42.8417 47.2678L46.5448 50.9709L44.7991 52.7166L41.096 49.0135L42.8417 47.2678Z" fill="#4C858B"></path>
    <path d="M48.5021 26.2834L50.2478 28.0291L47.239 31.0378L45.4934 29.2922L48.5021 26.2834Z" fill="#4C858B"></path>
    <path d="M43.8732 30.9125L45.6189 32.6582L37.904 40.3731L36.1584 38.6274L43.8732 30.9125Z" fill="#4C858B"></path>
    <path d="M63.2525 11.0726C61.9774 11.3899 60.8128 12.0485 59.8837 12.9776C58.9546 13.9067 58.2961 15.0713 57.9788 16.3463C57.912 16.6134 57.7578 16.8504 57.5409 17.0198C57.3239 17.1892 57.0565 17.2812 56.7813 17.2812C56.506 17.2812 56.2386 17.1892 56.0216 17.0198C55.8047 16.8504 55.6505 16.6134 55.5838 16.3463C55.2664 15.0713 54.6079 13.9067 53.6788 12.9776C52.7497 12.0485 51.5851 11.3899 50.31 11.0726C50.043 11.0058 49.8059 10.8517 49.6365 10.6347C49.4672 10.4178 49.3751 10.1504 49.3751 9.87511C49.3751 9.59984 49.4672 9.33247 49.6365 9.1155C49.8059 8.89852 50.043 8.7444 50.31 8.67761C51.5851 8.3603 52.7497 7.70175 53.6788 6.77264C54.6079 5.84354 55.2664 4.67896 55.5838 3.4039C55.6505 3.13686 55.8047 2.8998 56.0216 2.7304C56.2386 2.561 56.506 2.46899 56.7813 2.46899C57.0565 2.46899 57.3239 2.561 57.5409 2.7304C57.7578 2.8998 57.912 3.13686 57.9788 3.4039C58.2961 4.67896 58.9546 5.84354 59.8837 6.77264C60.8128 7.70175 61.9774 8.3603 63.2525 8.67761C63.5195 8.7444 63.7566 8.89852 63.926 9.1155C64.0954 9.33247 64.1874 9.59984 64.1874 9.87511C64.1874 10.1504 64.0954 10.4178 63.926 10.6347C63.7566 10.8517 63.5195 11.0058 63.2525 11.0726ZM56.7813 6.81695C56.0053 8.05376 54.9599 9.09919 53.7231 9.87511C54.9599 10.651 56.0053 11.6965 56.7813 12.9333C57.5572 11.6965 58.6026 10.651 59.8394 9.87511C58.6026 9.09919 57.5572 8.05376 56.7813 6.81695Z" fill="#4C858B"></path>
    <path d="M17.4853 36.7242L26.7946 46.0334L25.0489 47.7791L15.7397 38.4699L17.4853 36.7242Z" fill="#4C858B"></path>
    <path d="M13.2166 32.4554L15.6853 34.9241L13.9396 36.6697L11.4709 34.201L13.2166 32.4554Z" fill="#4C858B"></path>
    <path d="M3.70312 51.8438H14.8125C15.1399 51.8438 15.4538 51.9738 15.6853 52.2053C15.9168 52.4368 16.0469 52.7508 16.0469 53.0781V54.248C19.0427 52.0952 22.5912 50.843 26.2746 50.639C29.9581 50.435 33.6231 51.2876 36.8384 53.0964L39.0004 54.3125H49.375C50.4982 54.312 51.6002 54.6182 52.5622 55.198C53.5242 55.7779 54.3097 56.6093 54.8339 57.6027C55.358 58.5961 55.6011 59.7137 55.5367 60.8351C55.4724 61.9565 55.1032 63.039 54.4688 63.966L67.6346 57.425C68.4222 57.0351 69.2877 56.8285 70.1664 56.8205L70.697 56.8165C72.0051 56.8064 73.278 57.2396 74.3084 58.0456C75.3388 58.8515 76.066 59.9825 76.3714 61.2545C76.6768 62.5265 76.5424 63.8644 75.9902 65.0503C75.4381 66.2362 74.5006 67.2001 73.3305 67.7851L58.184 75.3586C56.6406 76.128 54.9401 76.5294 53.2156 76.5313H3.70312C3.37575 76.5313 3.06178 76.4012 2.83029 76.1697C2.5988 75.9382 2.46875 75.6243 2.46875 75.2969V53.0781C2.46875 52.7508 2.5988 52.4368 2.83029 52.2053C3.06178 51.9738 3.37575 51.8438 3.70312 51.8438ZM57.08 73.1503L72.2264 65.577C72.8955 65.2424 73.4322 64.6917 73.7493 64.0141C74.0664 63.3365 74.1455 62.5717 73.9737 61.8436C73.8019 61.1154 73.3892 60.4666 72.8026 60.0022C72.2161 59.5379 71.4899 59.2852 70.7417 59.285H70.7156L70.1853 59.2891C69.6813 59.2937 69.1848 59.4122 68.7331 59.6358L54.8618 66.5273C54.6911 66.612 54.5031 66.6562 54.3125 66.6563H38.2656C37.9382 66.6563 37.6243 66.5262 37.3928 66.2947C37.1613 66.0632 37.0312 65.7493 37.0312 65.4219C37.0312 65.0945 37.1613 64.7806 37.3928 64.5491C37.6243 64.3176 37.9382 64.1875 38.2656 64.1875H49.375C50.3571 64.1875 51.299 63.7974 51.9935 63.1029C52.688 62.4084 53.0781 61.4665 53.0781 60.4844C53.0781 59.5023 52.688 58.5604 51.9935 57.8659C51.299 57.1714 50.3571 56.7813 49.375 56.7813H38.6771C38.4652 56.7813 38.2567 56.7267 38.072 56.6228L35.6281 55.248C32.6927 53.597 29.3309 52.8608 25.9742 53.134C22.6175 53.4072 19.419 54.6773 16.7892 56.7813L16.0469 57.3745V74.0625H53.2158C54.557 74.0609 55.8796 73.7487 57.08 73.1503ZM4.9375 74.0625H13.5781V54.3125H4.9375V74.0625Z" fill="#4C858B"></path>
    <path d="M9.25781 70.3594C8.89161 70.3594 8.53363 70.2508 8.22914 70.0473C7.92465 69.8439 7.68733 69.5547 7.54719 69.2164C7.40705 68.878 7.37039 68.5058 7.44183 68.1466C7.51327 67.7874 7.68961 67.4575 7.94856 67.1986C8.2075 66.9396 8.53742 66.7633 8.89659 66.6918C9.25576 66.6204 9.62804 66.6571 9.96637 66.7972C10.3047 66.9373 10.5939 67.1747 10.7973 67.4791C11.0008 67.7836 11.1094 68.1416 11.1094 68.5078C11.1088 68.9987 10.9136 69.4694 10.5665 69.8165C10.2194 70.1636 9.74871 70.3588 9.25781 70.3594Z" fill="#4C858B"></path>
    <path d="M50.971 31.2209L52.7167 32.9666L42.8416 42.8416L41.096 41.0959L50.971 31.2209Z" fill="#4C858B"></path>
  </symbol>
  <symbol class="header__shopping-cart-icon best-seller__cart-icon"  viewBox="0 0 24 24" id="shopping-cart">
    <g clip-path="url(#clip0_52:10)">
      <path d="M23.6437 8.67485C23.3268 8.27726 22.8513 8.04917 22.3392 8.04917H17.7171L15.2108 2.31012C15.0554 1.95429 14.6409 1.79168 14.285 1.94717C13.9291 2.10256 13.7666 2.51707 13.9221 2.87295L16.1826 8.04921H7.81739L10.0779 2.87295C10.2333 2.51707 10.0709 2.1026 9.71499 1.94717C9.35916 1.79168 8.94464 1.9542 8.78925 2.31012L6.28289 8.04921H1.66083C1.14867 8.04921 0.673222 8.27726 0.3563 8.6749C0.0451904 9.06528 -0.0696064 9.56712 0.0413467 10.0519L2.50964 20.8332C2.682 21.586 3.34796 22.1117 4.12913 22.1117H19.8709C20.6521 22.1117 21.318 21.586 21.4904 20.8332L23.9587 10.0519C24.0696 9.56707 23.9548 9.06523 23.6437 8.67485ZM19.8709 20.7054H4.12913C4.00974 20.7054 3.90516 20.6271 3.88046 20.5192L1.41216 9.73807C1.3928 9.65346 1.42528 9.58981 1.45603 9.55132C1.48453 9.51551 1.54908 9.45546 1.66083 9.45546H5.66878L5.48461 9.8772C5.32922 10.2331 5.49169 10.6475 5.84757 10.803C5.93916 10.843 6.0346 10.8619 6.12858 10.8619C6.39961 10.8619 6.65789 10.7043 6.7733 10.4401L7.20328 9.45556H16.7968L17.2268 10.4401C17.3422 10.7044 17.6005 10.8619 17.8715 10.8619C17.9655 10.8619 18.0609 10.843 18.1525 10.803C18.5084 10.6476 18.6709 10.2331 18.5155 9.8772L18.3313 9.45546H22.3393C22.451 9.45546 22.5156 9.51551 22.5441 9.55132C22.5748 9.58985 22.6073 9.65351 22.5879 9.73803L20.1196 20.5193C20.0949 20.6271 19.9903 20.7054 19.8709 20.7054Z" ></path>
      <path d="M7.78125 12.5023C7.39294 12.5023 7.07812 12.8171 7.07812 13.2054V18.3617C7.07812 18.75 7.39294 19.0648 7.78125 19.0648C8.16956 19.0648 8.48438 18.75 8.48438 18.3617V13.2054C8.48438 12.8171 8.16961 12.5023 7.78125 12.5023Z" ></path>
      <path d="M12 12.5023C11.6117 12.5023 11.2969 12.8171 11.2969 13.2054V18.3617C11.2969 18.75 11.6117 19.0648 12 19.0648C12.3883 19.0648 12.7031 18.75 12.7031 18.3617V13.2054C12.7031 12.8171 12.3883 12.5023 12 12.5023Z" ></path>
      <path d="M16.2188 12.5023C15.8304 12.5023 15.5156 12.8171 15.5156 13.2054V18.3617C15.5156 18.75 15.8304 19.0648 16.2188 19.0648C16.6071 19.0648 16.9219 18.75 16.9219 18.3617V13.2054C16.9218 12.8171 16.6071 12.5023 16.2188 12.5023Z" ></path>
    </g>
    <defs>
      <clipPath id="clip0_52:10">
        <rect width="24" height="24" fill="white"></rect>
      </clipPath>
    </defs>
  </symbol>
  <symbol fill="none"  viewBox="0 0 19 18" id="telegram">
    <path d="M7.45527 11.6509L7.14097 16.3042C7.59064 16.3042 7.78539 16.1009 8.01893 15.8567L10.1271 13.7359L14.4956 17.1034C15.2967 17.5734 15.8612 17.3259 16.0773 16.3276L18.9447 2.18422L18.9455 2.18339C19.1996 0.93672 18.5172 0.44922 17.7366 0.755053L0.882057 7.54755C-0.268234 8.01755 -0.250818 8.69255 0.686516 8.99839L4.99556 10.4092L15.0046 3.81672C15.4756 3.48839 15.9039 3.67005 15.5516 3.99839L7.45527 11.6509Z" fill="#4C858B"></path>
  </symbol>
  <symbol fill="none" viewBox="0 0 78 20" id="triangle">
    <path d="M16.5916 9.57212L-0.000106812 0V19.2022L16.5916 9.57212Z" fill="#4C858B"></path>
    <path d="M47.0483 9.57212L30.4567 0V19.2022L47.0483 9.57212Z" fill="#EA6628"></path>
    <path d="M77.5051 9.57212L60.9135 0V19.2022L77.5051 9.57212Z" fill="#4C858B"></path>
  </symbol>

  <symbol class="header__burger-menu" width="22" height="22" viewBox="0 0 22 22" fill="none" id="burger-menu">
    <g clip-path="url(#clip0_52:23)">
    <path d="M21.0833 0.916626H0.916683C0.410405 0.916626 0 1.32703 0 1.83326C0 2.33948 0.410405 2.74994 0.916683 2.74994H21.0833C21.5896 2.74994 22 2.33954 22 1.83326C22 1.32698 21.5896 0.916626 21.0833 0.916626Z" fill="#4C858B"/>
    <path d="M21.0833 10.0833H0.916683C0.410405 10.0833 0 10.4937 0 10.9999C0 11.5062 0.410405 11.9166 0.916683 11.9166H21.0833C21.5896 11.9166 22 11.5062 22 10.9999C22 10.4937 21.5896 10.0833 21.0833 10.0833Z" fill="#4C858B"/>
    <path d="M21.0833 19.25H0.916683C0.410405 19.25 0 19.6604 0 20.1667C0 20.673 0.410405 21.0834 0.916683 21.0834H21.0833C21.5896 21.0834 22 20.673 22 20.1667C22 19.6604 21.5896 19.25 21.0833 19.25Z" fill="#4C858B"/>
    </g>
    <defs>
    <clipPath id="clip0_52:23">
    <rect width="22" height="22" fill="white"/>
    </clipPath>
    </defs>
  </symbol>
</svg>